<svg width="358" height="226" viewBox="0 0 358 226" fill="none" xmlns="http://www.w3.org/2000/svg">
<rect width="358" height="226" rx="8" fill="#1C1C1C"/>
<path d="M116.904 173.531H116.025V177.727H114.49V173.766H113.646V183.41H114.49V178.488H116.025V183.949H116.904V173.531ZM108.385 181.371H109.053C110.652 181.365 111.713 181.324 112.967 181.066L112.885 180.293C111.725 180.527 110.734 180.58 109.299 180.586V175.57H112.287V174.809H108.385V181.371ZM127.908 181.91H125.178V179.426H126.971V178.664H125.342V175.266H126.994V174.504H119.213V175.266H120.865V178.664H119.236V179.426H121.029V181.91H118.369V182.672H127.908V181.91ZM121.779 178.664V175.266H124.439V178.664H121.779ZM121.955 181.91V179.426H124.264V181.91H121.955ZM132.232 176.332V174.434H131.33V176.332C131.318 178.236 130.111 180.234 128.588 180.984L129.174 181.723C130.346 181.096 131.33 179.777 131.793 178.242C132.256 179.689 133.217 180.926 134.365 181.523L134.928 180.785C133.445 180.059 132.232 178.166 132.232 176.332ZM135.889 183.949H136.803V178.559H138.549V177.762H136.803V173.531H135.889V183.949ZM142.861 175.77V175.16H145.264V174.41H139.498V175.16H141.936V175.77C141.93 177.246 140.828 178.6 139.264 179.145L139.744 179.883C140.986 179.426 141.965 178.488 142.416 177.305C142.891 178.4 143.852 179.256 145.064 179.672L145.533 178.934C143.975 178.441 142.867 177.176 142.861 175.77ZM140.986 183.727H148.041V182.953H141.9V180.457H140.986V183.727ZM146.799 181.184H147.713V173.543H146.799V181.184ZM154.229 173.719C151.902 173.719 150.537 174.357 150.537 175.512C150.537 176.695 151.902 177.334 154.229 177.34C156.543 177.334 157.902 176.695 157.908 175.512C157.902 174.357 156.543 173.719 154.229 173.719ZM149.482 178.793H158.975V178.043H149.482V178.793ZM150.631 180.398H156.854V181.348H150.654V183.832H158.072V183.105H151.568V182.027H157.756V179.695H150.631V180.398ZM151.498 175.512C151.486 174.826 152.5 174.416 154.229 174.41C155.957 174.416 156.965 174.826 156.971 175.512C156.965 176.238 155.957 176.637 154.229 176.637C152.5 176.637 151.486 176.238 151.498 175.512ZM170.928 173.531H170.014V183.973H170.928V178.43H172.674V177.656H170.928V173.531ZM163.322 181.359H164.143C166.123 181.359 167.488 181.301 169.123 181.008L169.006 180.211C167.453 180.498 166.123 180.58 164.236 180.586V175.312H168.186V174.551H163.322V181.359ZM182.764 178.828H173.225V179.59H177.607V181.723H178.533V179.59H182.764V178.828ZM174.303 175.898C174.297 177.182 175.756 177.979 177.982 177.973C180.209 177.979 181.65 177.182 181.65 175.898C181.65 174.604 180.209 173.807 177.982 173.801C175.756 173.807 174.297 174.604 174.303 175.898ZM174.455 183.727H181.697V182.941H175.381V180.68H174.455V183.727ZM175.287 175.898C175.275 175.066 176.359 174.557 177.982 174.551C179.6 174.557 180.678 175.066 180.678 175.898C180.678 176.707 179.6 177.223 177.982 177.223C176.359 177.223 175.275 176.707 175.287 175.898ZM191.752 173.531H190.838V179.625H191.752V176.824H193.322V176.051H191.752V173.531ZM184.053 178.969H188.904V174.129H187.99V175.723H184.955V174.129H184.053V178.969ZM184.955 178.23V176.461H187.99V178.23H184.955ZM185.213 183.809H192.033V183.059H186.127V180.949H191.834V180.211H185.213V183.809ZM196.768 174.34C195.221 174.346 194.137 175.758 194.143 177.973C194.137 180.193 195.221 181.6 196.768 181.594C198.303 181.6 199.393 180.193 199.404 177.973C199.393 175.758 198.303 174.346 196.768 174.34ZM195.01 177.973C195.016 176.279 195.736 175.166 196.768 175.16C197.811 175.166 198.514 176.279 198.514 177.973C198.514 179.666 197.811 180.779 196.768 180.773C195.736 180.779 195.016 179.666 195.01 177.973ZM201.127 183.949H202.041V178.488H203.787V177.691H202.041V173.531H201.127V183.949ZM215.998 173.531H215.072V175.523H213.291V176.285H215.072V177.492H213.291V178.266H215.072V181.289H215.998V173.531ZM207.385 178.922L207.502 179.707C209.195 179.701 211.574 179.666 213.596 179.355L213.549 178.664C213.098 178.717 212.623 178.758 212.143 178.787V175.137H213.209V174.387H207.678V175.137H208.732V178.91C208.252 178.916 207.801 178.922 207.385 178.922ZM209.283 183.727H216.279V182.953H210.209V180.645H209.283V183.727ZM209.623 178.893V175.137H211.252V178.84C210.707 178.863 210.156 178.881 209.623 178.893ZM221.482 175.254V174.984H223.885V174.234H218.119V174.984H220.557V175.254C220.551 176.684 219.432 177.967 217.861 178.465L218.342 179.191C219.584 178.77 220.568 177.867 221.031 176.713C221.5 177.791 222.479 178.629 223.697 179.016L224.166 178.289C222.613 177.82 221.488 176.613 221.482 175.254ZM219.584 183.809H226.334V179.684H225.42V180.949H220.498V179.684H219.584V183.809ZM220.498 183.059V181.688H225.42V183.059H220.498ZM225.42 179.168H226.334V173.531H225.42V179.168ZM236.166 173.531H235.252V183.949H236.166V178.594H237.912V177.832H236.166V173.531ZM228.045 175.969H234.244V175.207H231.643V173.66H230.729V175.207H228.045V175.969ZM228.643 179.227C228.637 180.639 229.715 181.617 231.197 181.617C232.668 181.617 233.74 180.639 233.752 179.227C233.74 177.82 232.668 176.836 231.197 176.836C229.715 176.836 228.637 177.82 228.643 179.227ZM229.521 179.227C229.516 178.283 230.225 177.604 231.197 177.609C232.158 177.604 232.861 178.283 232.873 179.227C232.861 180.176 232.158 180.844 231.197 180.832C230.225 180.844 229.516 180.176 229.521 179.227ZM241.275 174.34C239.734 174.346 238.656 175.758 238.662 177.973C238.656 180.193 239.734 181.6 241.275 181.594C242.283 181.6 243.092 180.984 243.525 179.93H246.197V183.973H247.111V173.531H246.197V175.863H243.461C243.01 174.902 242.23 174.346 241.275 174.34ZM239.541 177.973C239.547 176.279 240.25 175.166 241.275 175.16C242.295 175.166 243.01 176.279 243.01 177.973C243.01 179.666 242.295 180.779 241.275 180.773C240.25 180.779 239.547 179.666 239.541 177.973ZM243.725 176.637H246.197V179.168H243.76C243.836 178.805 243.877 178.4 243.877 177.973C243.877 177.486 243.824 177.041 243.725 176.637ZM97.668 194.211H90.625V194.973H96.7539V195.125C96.7539 196.098 96.7539 197.188 96.4375 198.688H89.4297V199.449H93.6953V203.973H94.6211V199.449H98.9219V198.688H97.3691C97.668 197.193 97.668 196.109 97.668 195.125V194.211ZM108.73 193.531H107.84V197.668H106.387V193.754H105.508V203.422H106.387V198.43H107.84V203.949H108.73V193.531ZM100.188 201.148H104.172V194.75H100.188V201.148ZM101.055 200.41V195.488H103.305V200.41H101.055ZM119.699 198.371H110.16V199.098H119.699V198.371ZM111.309 200.621H117.59V201.512H111.32V203.809H118.844V203.141H112.246V202.145H118.504V199.93H111.309V200.621ZM111.367 194.516H117.543V195.371H111.402V197.586H118.656V196.918H112.316V196.004H118.469V193.848H111.367V194.516ZM132.145 193.543H131.219V199.707H129.062V200.375H131.219V201.453H132.145V193.543ZM123.496 198.371L123.625 199.121C124.498 199.121 125.5 199.121 126.555 199.08V201.09H127.48V199.033C128.436 198.975 129.414 198.881 130.34 198.734L130.281 198.066C128.049 198.342 125.436 198.359 123.496 198.371ZM124.34 195.781C124.334 196.895 125.377 197.586 126.918 197.586C128.447 197.586 129.49 196.895 129.496 195.781C129.49 194.686 128.447 193.965 126.918 193.965C125.377 193.965 124.334 194.686 124.34 195.781ZM124.996 203.727H132.402V202.953H125.922V200.68H124.996V203.727ZM125.219 195.781C125.207 195.113 125.898 194.656 126.918 194.668C127.908 194.656 128.611 195.113 128.617 195.781C128.611 196.461 127.908 196.9 126.918 196.906C125.898 196.9 125.207 196.461 125.219 195.781ZM141.988 193.531H141.074V203.949H141.988V198.594H143.734V197.832H141.988V193.531ZM133.867 195.969H140.066V195.207H137.465V193.66H136.551V195.207H133.867V195.969ZM134.465 199.227C134.459 200.639 135.537 201.617 137.02 201.617C138.49 201.617 139.562 200.639 139.574 199.227C139.562 197.82 138.49 196.836 137.02 196.836C135.537 196.836 134.459 197.82 134.465 199.227ZM135.344 199.227C135.338 198.283 136.047 197.604 137.02 197.609C137.98 197.604 138.684 198.283 138.695 199.227C138.684 200.176 137.98 200.844 137.02 200.832C136.047 200.844 135.338 200.176 135.344 199.227ZM152.723 196.695H146.5V193.918H145.586V197.434H152.723V196.695ZM144.285 199.602H153.824V198.852H144.285V199.602ZM145.527 203.691H152.781V202.93H146.441V200.668H145.527V203.691ZM161.16 195.219V194.07H160.258V195.148C160.252 196.76 159.203 198.154 157.645 198.734L158.137 199.473C159.355 198.998 160.287 198.043 160.732 196.807C161.189 197.896 162.098 198.758 163.246 199.18L163.75 198.453C162.238 197.938 161.16 196.637 161.16 195.219ZM159.027 202.027C159.033 203.24 160.34 203.926 162.484 203.926C164.623 203.926 165.918 203.24 165.918 202.027C165.918 200.838 164.623 200.141 162.484 200.141C160.34 200.141 159.033 200.838 159.027 202.027ZM159.953 202.027C159.941 201.318 160.914 200.879 162.484 200.879C164.061 200.879 165.021 201.318 165.027 202.027C165.021 202.766 164.061 203.193 162.484 203.199C160.914 203.193 159.941 202.766 159.953 202.027ZM164.91 199.871H165.824V197.023H167.395V196.25H165.824V193.531H164.91V199.871ZM177.543 198.57H168.051V199.332H172.34V200.562H169.211V203.809H176.383V200.562H173.242V199.332H177.543V198.57ZM168.941 194.633H170.547V196.824H168.977V197.586H176.605V196.824H175.035V194.633H176.641V193.871H168.941V194.633ZM170.125 203.059V201.289H175.48V203.059H170.125ZM171.461 196.824V194.633H174.121V196.824H171.461ZM183.684 194.48H178.867V199.273H183.684V194.48ZM179.77 198.535V195.23H182.793V198.535H179.77ZM180.051 203.727H187.047V202.953H180.953V200.445H180.051V203.727ZM185.652 201.172H186.566V197.48H188.137V196.707H186.566V193.531H185.652V201.172ZM201.344 201.91H198.613V199.426H200.406V198.664H198.777V195.266H200.43V194.504H192.648V195.266H194.301V198.664H192.672V199.426H194.465V201.91H191.805V202.672H201.344V201.91ZM195.215 198.664V195.266H197.875V198.664H195.215ZM195.391 201.91V199.426H197.699V201.91H195.391ZM205.879 196.332V194.434H204.965V196.332C204.953 198.307 203.67 200.299 202.117 201.008L202.703 201.781C203.922 201.166 204.947 199.848 205.428 198.277C205.926 199.76 206.951 200.996 208.141 201.57L208.703 200.844C207.168 200.146 205.873 198.236 205.879 196.332ZM209.84 203.973H210.766V193.531H209.84V203.973ZM222.074 198.371H212.535V199.098H222.074V198.371ZM213.684 200.621H219.965V201.512H213.695V203.809H221.219V203.141H214.621V202.145H220.879V199.93H213.684V200.621ZM213.742 194.516H219.918V195.371H213.777V197.586H221.031V196.918H214.691V196.004H220.844V193.848H213.742V194.516ZM231.133 195.336H228.988V193.848H228.074V195.336H225.906V196.086H231.133V195.336ZM226.281 199.156C226.281 200.557 227.225 201.541 228.52 201.547C229.832 201.541 230.77 200.557 230.781 199.156C230.77 197.773 229.832 196.795 228.52 196.789C227.225 196.795 226.281 197.773 226.281 199.156ZM227.102 199.156C227.102 198.242 227.693 197.574 228.52 197.562C229.352 197.574 229.961 198.242 229.961 199.156C229.961 200.082 229.352 200.744 228.52 200.738C227.693 200.744 227.102 200.082 227.102 199.156ZM231.672 203.434H232.539V198.688H233.922V203.949H234.801V193.531H233.922V197.926H232.539V193.789H231.672V203.434ZM241.562 195.008V194.938H244.891V194.188H237.191V194.938H240.531V195.008C240.525 196.402 238.674 197.586 236.863 197.855L237.227 198.582C238.826 198.307 240.414 197.439 241.047 196.186C241.68 197.439 243.268 198.307 244.891 198.582L245.23 197.855C243.414 197.586 241.557 196.402 241.562 195.008ZM236.301 200.234H240.578V203.949H241.48V200.234H245.793V199.473H236.301V200.234ZM249.766 196.496V194.516H248.875V196.531C248.875 198.318 247.996 200.164 246.555 201.008L247.141 201.699C248.184 201.066 248.957 199.871 249.338 198.482C249.701 199.754 250.422 200.867 251.43 201.477L251.957 200.762C250.574 199.941 249.766 198.154 249.766 196.496ZM250.809 198.055H252.578V203.422H253.445V193.754H252.578V197.27H250.809V198.055ZM254.711 203.949H255.602V193.531H254.711V203.949ZM266.582 201.84H264.215V199.004C265.076 198.541 265.598 197.803 265.598 196.871C265.598 195.26 264.016 194.199 261.789 194.188C259.562 194.199 257.98 195.26 257.98 196.871C257.98 197.82 258.52 198.57 259.41 199.033V201.84H257.043V202.613H266.582V201.84ZM258.871 196.871C258.865 195.705 260.078 194.938 261.789 194.949C263.482 194.938 264.707 195.705 264.707 196.871C264.707 198.037 263.482 198.816 261.789 198.816C260.078 198.816 258.865 198.037 258.871 196.871ZM260.312 201.84V199.367C260.758 199.484 261.256 199.543 261.789 199.543C262.334 199.543 262.838 199.479 263.289 199.361V201.84H260.312Z" fill="#CCCCCC"/>
<rect x="207.209" y="37.9164" width="36" height="51" rx="4" transform="rotate(-1.41498 207.209 37.9164)" stroke="#FF70FE" stroke-width="2"/>
<rect x="284.318" y="37.2374" width="36" height="51" rx="4" transform="rotate(0.514213 284.318 37.2374)" stroke="#FF70FE" stroke-width="2"/>
<rect x="227.531" y="89.6663" width="36.1666" height="51" rx="4" transform="rotate(-0.759269 227.531 89.6663)" stroke="#FF70FE" stroke-width="2"/>
<rect x="265.719" y="89.4664" width="36.1278" height="51" rx="4" transform="rotate(-0.633225 265.719 89.4664)" stroke="#FF70FE" stroke-width="2"/>
<line x1="167.837" y1="88.2686" x2="186.244" y2="88.2686" stroke="white" stroke-width="3" stroke-linecap="round"/>
<line x1="1.5" y1="-1.5" x2="7.78928" y2="-1.5" transform="matrix(0.68818 -0.72554 0.68818 0.72554 183.131 95.1045)" stroke="white" stroke-width="3" stroke-linecap="round"/>
<line x1="1.5" y1="-1.5" x2="8.24593" y2="-1.5" transform="matrix(-0.68818 -0.72554 -0.68818 0.72554 187.568 90.3184)" stroke="white" stroke-width="3" stroke-linecap="round"/>
<g filter="url(#filter0_d_2228_51714)">
<rect width="28.9624" height="44.6006" rx="3.16731" transform="matrix(0.999873 -0.0164502 0.0160364 0.999864 231.211 92.6045)" fill="#36DDAB"/>
<g filter="url(#filter1_d_2228_51714)">
<rect width="28.9624" height="44.6006" rx="3.16731" transform="matrix(0.999873 -0.0164502 0.0160364 0.999864 231.211 92.6045)" fill="url(#paint0_linear_2228_51714)" fill-opacity="0.7" shape-rendering="crispEdges"/>
</g>
</g>
<g filter="url(#filter2_d_2228_51714)">
<rect width="28.9624" height="44.6006" rx="3.16731" transform="matrix(0.999927 -0.0127233 0.0123248 0.999916 269.409 92.6045)" fill="#36DDAB"/>
<g filter="url(#filter3_d_2228_51714)">
<rect width="28.9624" height="44.6006" rx="3.16731" transform="matrix(0.999927 -0.0127233 0.0123248 0.999916 269.409 92.6045)" fill="url(#paint1_linear_2228_51714)" fill-opacity="0.7" shape-rendering="crispEdges"/>
</g>
</g>
<g filter="url(#filter4_d_2228_51714)">
<rect width="28.9629" height="44.5998" rx="3.16731" transform="matrix(0.99965 -0.0266867 0.0259885 0.999656 210.811 41.0723)" fill="#36DDAB"/>
<g filter="url(#filter5_d_2228_51714)">
<rect width="28.9629" height="44.5998" rx="3.16731" transform="matrix(0.99965 -0.0266867 0.0259885 0.999656 210.811 41.0723)" fill="url(#paint2_linear_2228_51714)" fill-opacity="0.7" shape-rendering="crispEdges"/>
</g>
</g>
<g filter="url(#filter6_d_2228_51714)">
<rect width="28.9628" height="44.5999" rx="3.16731" transform="matrix(0.999867 0.0162224 -0.0164316 0.999866 249.932 40.0557)" fill="#36DDAB"/>
<g filter="url(#filter7_d_2228_51714)">
<rect width="28.9628" height="44.5999" rx="3.16731" transform="matrix(0.999867 0.0162224 -0.0164316 0.999866 249.932 40.0557)" fill="url(#paint3_linear_2228_51714)" fill-opacity="0.7" shape-rendering="crispEdges"/>
</g>
</g>
<g filter="url(#filter8_d_2228_51714)">
<rect width="28.9628" height="44.5999" rx="3.16731" transform="matrix(0.999986 0.00571343 -0.00557067 0.999982 287.869 40.6094)" fill="#36DDAB"/>
<g filter="url(#filter9_d_2228_51714)">
<rect width="28.9628" height="44.5999" rx="3.16731" transform="matrix(0.999986 0.00571343 -0.00557067 0.999982 287.869 40.6094)" fill="url(#paint4_linear_2228_51714)" fill-opacity="0.7" shape-rendering="crispEdges"/>
</g>
</g>
<g filter="url(#filter10_d_2228_51714)">
<rect width="28.9624" height="44.6006" rx="3.16731" transform="matrix(0.999873 -0.0164502 0.0160364 0.999864 59.584 92.6045)" fill="#36DDAB"/>
<g filter="url(#filter11_d_2228_51714)">
<rect width="28.9624" height="44.6006" rx="3.16731" transform="matrix(0.999873 -0.0164502 0.0160364 0.999864 59.584 92.6045)" fill="url(#paint5_linear_2228_51714)" fill-opacity="0.7" shape-rendering="crispEdges"/>
</g>
</g>
<g filter="url(#filter12_d_2228_51714)">
<rect width="28.9624" height="44.6006" rx="3.16731" transform="matrix(0.999927 -0.0127233 0.0123248 0.999916 97.7822 92.6045)" fill="#36DDAB"/>
<g filter="url(#filter13_d_2228_51714)">
<rect width="28.9624" height="44.6006" rx="3.16731" transform="matrix(0.999927 -0.0127233 0.0123248 0.999916 97.7822 92.6045)" fill="url(#paint6_linear_2228_51714)" fill-opacity="0.7" shape-rendering="crispEdges"/>
</g>
</g>
<g filter="url(#filter14_d_2228_51714)">
<rect width="28.9629" height="44.5998" rx="3.16731" transform="matrix(0.99965 -0.0266867 0.0259885 0.999656 39.1836 41.0723)" fill="#36DDAB"/>
<g filter="url(#filter15_d_2228_51714)">
<rect width="28.9629" height="44.5998" rx="3.16731" transform="matrix(0.99965 -0.0266867 0.0259885 0.999656 39.1836 41.0723)" fill="url(#paint7_linear_2228_51714)" fill-opacity="0.7" shape-rendering="crispEdges"/>
</g>
</g>
<g filter="url(#filter16_d_2228_51714)">
<rect width="28.9628" height="44.5999" rx="3.16731" transform="matrix(0.999867 0.0162224 -0.0164316 0.999866 78.3047 40.0557)" fill="#36DDAB"/>
<g filter="url(#filter17_d_2228_51714)">
<rect width="28.9628" height="44.5999" rx="3.16731" transform="matrix(0.999867 0.0162224 -0.0164316 0.999866 78.3047 40.0557)" fill="url(#paint8_linear_2228_51714)" fill-opacity="0.7" shape-rendering="crispEdges"/>
</g>
</g>
<g filter="url(#filter18_d_2228_51714)">
<rect width="28.9628" height="44.5999" rx="3.16731" transform="matrix(0.999986 0.00571343 -0.00557067 0.999982 116.242 40.6094)" fill="#36DDAB"/>
<g filter="url(#filter19_d_2228_51714)">
<rect width="28.9628" height="44.5999" rx="3.16731" transform="matrix(0.999986 0.00571343 -0.00557067 0.999982 116.242 40.6094)" fill="url(#paint9_linear_2228_51714)" fill-opacity="0.7" shape-rendering="crispEdges"/>
</g>
</g>
<defs>
<filter id="filter0_d_2228_51714" x="222.768" y="88.4048" width="38.0668" height="52.5176" filterUnits="userSpaceOnUse" color-interpolation-filters="sRGB">
<feFlood flood-opacity="0" result="BackgroundImageFix"/>
<feColorMatrix in="SourceAlpha" type="matrix" values="0 0 0 0 0 0 0 0 0 0 0 0 0 0 0 0 0 0 127 0" result="hardAlpha"/>
<feOffset dx="-4.71863"/>
<feGaussianBlur stdDeviation="1.88745"/>
<feComposite in2="hardAlpha" operator="out"/>
<feColorMatrix type="matrix" values="0 0 0 0 0 0 0 0 0 0 0 0 0 0 0 0 0 0 0.1 0"/>
<feBlend mode="normal" in2="BackgroundImageFix" result="effect1_dropShadow_2228_51714"/>
<feBlend mode="normal" in="SourceGraphic" in2="effect1_dropShadow_2228_51714" result="shape"/>
</filter>
<filter id="filter1_d_2228_51714" x="230.132" y="91.0498" width="34.0929" height="49.4875" filterUnits="userSpaceOnUse" color-interpolation-filters="sRGB">
<feFlood flood-opacity="0" result="BackgroundImageFix"/>
<feColorMatrix in="SourceAlpha" type="matrix" values="0 0 0 0 0 0 0 0 0 0 0 0 0 0 0 0 0 0 127 0" result="hardAlpha"/>
<feOffset dx="1.12992" dy="1.12992"/>
<feGaussianBlur stdDeviation="1.12992"/>
<feComposite in2="hardAlpha" operator="out"/>
<feColorMatrix type="matrix" values="0 0 0 0 0 0 0 0 0 0 0 0 0 0 0 0 0 0 0.05 0"/>
<feBlend mode="normal" in2="BackgroundImageFix" result="effect1_dropShadow_2228_51714"/>
<feBlend mode="normal" in="SourceGraphic" in2="effect1_dropShadow_2228_51714" result="shape"/>
</filter>
<filter id="filter2_d_2228_51714" x="260.955" y="88.501" width="37.9261" height="52.4351" filterUnits="userSpaceOnUse" color-interpolation-filters="sRGB">
<feFlood flood-opacity="0" result="BackgroundImageFix"/>
<feColorMatrix in="SourceAlpha" type="matrix" values="0 0 0 0 0 0 0 0 0 0 0 0 0 0 0 0 0 0 127 0" result="hardAlpha"/>
<feOffset dx="-4.71863"/>
<feGaussianBlur stdDeviation="1.88745"/>
<feComposite in2="hardAlpha" operator="out"/>
<feColorMatrix type="matrix" values="0 0 0 0 0 0 0 0 0 0 0 0 0 0 0 0 0 0 0.1 0"/>
<feBlend mode="normal" in2="BackgroundImageFix" result="effect1_dropShadow_2228_51714"/>
<feBlend mode="normal" in="SourceGraphic" in2="effect1_dropShadow_2228_51714" result="shape"/>
</filter>
<filter id="filter3_d_2228_51714" x="268.318" y="91.146" width="33.9523" height="49.4049" filterUnits="userSpaceOnUse" color-interpolation-filters="sRGB">
<feFlood flood-opacity="0" result="BackgroundImageFix"/>
<feColorMatrix in="SourceAlpha" type="matrix" values="0 0 0 0 0 0 0 0 0 0 0 0 0 0 0 0 0 0 127 0" result="hardAlpha"/>
<feOffset dx="1.12992" dy="1.12992"/>
<feGaussianBlur stdDeviation="1.12992"/>
<feComposite in2="hardAlpha" operator="out"/>
<feColorMatrix type="matrix" values="0 0 0 0 0 0 0 0 0 0 0 0 0 0 0 0 0 0 0.05 0"/>
<feBlend mode="normal" in2="BackgroundImageFix" result="effect1_dropShadow_2228_51714"/>
<feBlend mode="normal" in="SourceGraphic" in2="effect1_dropShadow_2228_51714" result="shape"/>
</filter>
<filter id="filter4_d_2228_51714" x="202.398" y="36.6079" width="38.4428" height="52.7402" filterUnits="userSpaceOnUse" color-interpolation-filters="sRGB">
<feFlood flood-opacity="0" result="BackgroundImageFix"/>
<feColorMatrix in="SourceAlpha" type="matrix" values="0 0 0 0 0 0 0 0 0 0 0 0 0 0 0 0 0 0 127 0" result="hardAlpha"/>
<feOffset dx="-4.71863"/>
<feGaussianBlur stdDeviation="1.88745"/>
<feComposite in2="hardAlpha" operator="out"/>
<feColorMatrix type="matrix" values="0 0 0 0 0 0 0 0 0 0 0 0 0 0 0 0 0 0 0.1 0"/>
<feBlend mode="normal" in2="BackgroundImageFix" result="effect1_dropShadow_2228_51714"/>
<feBlend mode="normal" in="SourceGraphic" in2="effect1_dropShadow_2228_51714" result="shape"/>
</filter>
<filter id="filter5_d_2228_51714" x="209.762" y="39.2529" width="34.4689" height="49.7101" filterUnits="userSpaceOnUse" color-interpolation-filters="sRGB">
<feFlood flood-opacity="0" result="BackgroundImageFix"/>
<feColorMatrix in="SourceAlpha" type="matrix" values="0 0 0 0 0 0 0 0 0 0 0 0 0 0 0 0 0 0 127 0" result="hardAlpha"/>
<feOffset dx="1.12992" dy="1.12992"/>
<feGaussianBlur stdDeviation="1.12992"/>
<feComposite in2="hardAlpha" operator="out"/>
<feColorMatrix type="matrix" values="0 0 0 0 0 0 0 0 0 0 0 0 0 0 0 0 0 0 0.05 0"/>
<feBlend mode="normal" in2="BackgroundImageFix" result="effect1_dropShadow_2228_51714"/>
<feBlend mode="normal" in="SourceGraphic" in2="effect1_dropShadow_2228_51714" result="shape"/>
</filter>
<filter id="filter6_d_2228_51714" x="240.756" y="36.3315" width="38.0824" height="52.5117" filterUnits="userSpaceOnUse" color-interpolation-filters="sRGB">
<feFlood flood-opacity="0" result="BackgroundImageFix"/>
<feColorMatrix in="SourceAlpha" type="matrix" values="0 0 0 0 0 0 0 0 0 0 0 0 0 0 0 0 0 0 127 0" result="hardAlpha"/>
<feOffset dx="-4.71863"/>
<feGaussianBlur stdDeviation="1.88745"/>
<feComposite in2="hardAlpha" operator="out"/>
<feColorMatrix type="matrix" values="0 0 0 0 0 0 0 0 0 0 0 0 0 0 0 0 0 0 0.1 0"/>
<feBlend mode="normal" in2="BackgroundImageFix" result="effect1_dropShadow_2228_51714"/>
<feBlend mode="normal" in="SourceGraphic" in2="effect1_dropShadow_2228_51714" result="shape"/>
</filter>
<filter id="filter7_d_2228_51714" x="248.12" y="38.9765" width="34.1085" height="49.4816" filterUnits="userSpaceOnUse" color-interpolation-filters="sRGB">
<feFlood flood-opacity="0" result="BackgroundImageFix"/>
<feColorMatrix in="SourceAlpha" type="matrix" values="0 0 0 0 0 0 0 0 0 0 0 0 0 0 0 0 0 0 127 0" result="hardAlpha"/>
<feOffset dx="1.12992" dy="1.12992"/>
<feGaussianBlur stdDeviation="1.12992"/>
<feComposite in2="hardAlpha" operator="out"/>
<feColorMatrix type="matrix" values="0 0 0 0 0 0 0 0 0 0 0 0 0 0 0 0 0 0 0.05 0"/>
<feBlend mode="normal" in2="BackgroundImageFix" result="effect1_dropShadow_2228_51714"/>
<feBlend mode="normal" in="SourceGraphic" in2="effect1_dropShadow_2228_51714" result="shape"/>
</filter>
<filter id="filter8_d_2228_51714" x="279.145" y="36.8525" width="37.6693" height="52.2783" filterUnits="userSpaceOnUse" color-interpolation-filters="sRGB">
<feFlood flood-opacity="0" result="BackgroundImageFix"/>
<feColorMatrix in="SourceAlpha" type="matrix" values="0 0 0 0 0 0 0 0 0 0 0 0 0 0 0 0 0 0 127 0" result="hardAlpha"/>
<feOffset dx="-4.71863"/>
<feGaussianBlur stdDeviation="1.88745"/>
<feComposite in2="hardAlpha" operator="out"/>
<feColorMatrix type="matrix" values="0 0 0 0 0 0 0 0 0 0 0 0 0 0 0 0 0 0 0.1 0"/>
<feBlend mode="normal" in2="BackgroundImageFix" result="effect1_dropShadow_2228_51714"/>
<feBlend mode="normal" in="SourceGraphic" in2="effect1_dropShadow_2228_51714" result="shape"/>
</filter>
<filter id="filter9_d_2228_51714" x="286.509" y="39.4975" width="33.6955" height="49.2482" filterUnits="userSpaceOnUse" color-interpolation-filters="sRGB">
<feFlood flood-opacity="0" result="BackgroundImageFix"/>
<feColorMatrix in="SourceAlpha" type="matrix" values="0 0 0 0 0 0 0 0 0 0 0 0 0 0 0 0 0 0 127 0" result="hardAlpha"/>
<feOffset dx="1.12992" dy="1.12992"/>
<feGaussianBlur stdDeviation="1.12992"/>
<feComposite in2="hardAlpha" operator="out"/>
<feColorMatrix type="matrix" values="0 0 0 0 0 0 0 0 0 0 0 0 0 0 0 0 0 0 0.05 0"/>
<feBlend mode="normal" in2="BackgroundImageFix" result="effect1_dropShadow_2228_51714"/>
<feBlend mode="normal" in="SourceGraphic" in2="effect1_dropShadow_2228_51714" result="shape"/>
</filter>
<filter id="filter10_d_2228_51714" x="51.1412" y="88.4048" width="38.0668" height="52.5176" filterUnits="userSpaceOnUse" color-interpolation-filters="sRGB">
<feFlood flood-opacity="0" result="BackgroundImageFix"/>
<feColorMatrix in="SourceAlpha" type="matrix" values="0 0 0 0 0 0 0 0 0 0 0 0 0 0 0 0 0 0 127 0" result="hardAlpha"/>
<feOffset dx="-4.71863"/>
<feGaussianBlur stdDeviation="1.88745"/>
<feComposite in2="hardAlpha" operator="out"/>
<feColorMatrix type="matrix" values="0 0 0 0 0 0 0 0 0 0 0 0 0 0 0 0 0 0 0.1 0"/>
<feBlend mode="normal" in2="BackgroundImageFix" result="effect1_dropShadow_2228_51714"/>
<feBlend mode="normal" in="SourceGraphic" in2="effect1_dropShadow_2228_51714" result="shape"/>
</filter>
<filter id="filter11_d_2228_51714" x="58.5048" y="91.0498" width="34.0929" height="49.4875" filterUnits="userSpaceOnUse" color-interpolation-filters="sRGB">
<feFlood flood-opacity="0" result="BackgroundImageFix"/>
<feColorMatrix in="SourceAlpha" type="matrix" values="0 0 0 0 0 0 0 0 0 0 0 0 0 0 0 0 0 0 127 0" result="hardAlpha"/>
<feOffset dx="1.12992" dy="1.12992"/>
<feGaussianBlur stdDeviation="1.12992"/>
<feComposite in2="hardAlpha" operator="out"/>
<feColorMatrix type="matrix" values="0 0 0 0 0 0 0 0 0 0 0 0 0 0 0 0 0 0 0.05 0"/>
<feBlend mode="normal" in2="BackgroundImageFix" result="effect1_dropShadow_2228_51714"/>
<feBlend mode="normal" in="SourceGraphic" in2="effect1_dropShadow_2228_51714" result="shape"/>
</filter>
<filter id="filter12_d_2228_51714" x="89.3278" y="88.501" width="37.9261" height="52.4351" filterUnits="userSpaceOnUse" color-interpolation-filters="sRGB">
<feFlood flood-opacity="0" result="BackgroundImageFix"/>
<feColorMatrix in="SourceAlpha" type="matrix" values="0 0 0 0 0 0 0 0 0 0 0 0 0 0 0 0 0 0 127 0" result="hardAlpha"/>
<feOffset dx="-4.71863"/>
<feGaussianBlur stdDeviation="1.88745"/>
<feComposite in2="hardAlpha" operator="out"/>
<feColorMatrix type="matrix" values="0 0 0 0 0 0 0 0 0 0 0 0 0 0 0 0 0 0 0.1 0"/>
<feBlend mode="normal" in2="BackgroundImageFix" result="effect1_dropShadow_2228_51714"/>
<feBlend mode="normal" in="SourceGraphic" in2="effect1_dropShadow_2228_51714" result="shape"/>
</filter>
<filter id="filter13_d_2228_51714" x="96.6914" y="91.146" width="33.9523" height="49.4049" filterUnits="userSpaceOnUse" color-interpolation-filters="sRGB">
<feFlood flood-opacity="0" result="BackgroundImageFix"/>
<feColorMatrix in="SourceAlpha" type="matrix" values="0 0 0 0 0 0 0 0 0 0 0 0 0 0 0 0 0 0 127 0" result="hardAlpha"/>
<feOffset dx="1.12992" dy="1.12992"/>
<feGaussianBlur stdDeviation="1.12992"/>
<feComposite in2="hardAlpha" operator="out"/>
<feColorMatrix type="matrix" values="0 0 0 0 0 0 0 0 0 0 0 0 0 0 0 0 0 0 0.05 0"/>
<feBlend mode="normal" in2="BackgroundImageFix" result="effect1_dropShadow_2228_51714"/>
<feBlend mode="normal" in="SourceGraphic" in2="effect1_dropShadow_2228_51714" result="shape"/>
</filter>
<filter id="filter14_d_2228_51714" x="30.7711" y="36.6079" width="38.4428" height="52.7402" filterUnits="userSpaceOnUse" color-interpolation-filters="sRGB">
<feFlood flood-opacity="0" result="BackgroundImageFix"/>
<feColorMatrix in="SourceAlpha" type="matrix" values="0 0 0 0 0 0 0 0 0 0 0 0 0 0 0 0 0 0 127 0" result="hardAlpha"/>
<feOffset dx="-4.71863"/>
<feGaussianBlur stdDeviation="1.88745"/>
<feComposite in2="hardAlpha" operator="out"/>
<feColorMatrix type="matrix" values="0 0 0 0 0 0 0 0 0 0 0 0 0 0 0 0 0 0 0.1 0"/>
<feBlend mode="normal" in2="BackgroundImageFix" result="effect1_dropShadow_2228_51714"/>
<feBlend mode="normal" in="SourceGraphic" in2="effect1_dropShadow_2228_51714" result="shape"/>
</filter>
<filter id="filter15_d_2228_51714" x="38.1347" y="39.2529" width="34.4689" height="49.7101" filterUnits="userSpaceOnUse" color-interpolation-filters="sRGB">
<feFlood flood-opacity="0" result="BackgroundImageFix"/>
<feColorMatrix in="SourceAlpha" type="matrix" values="0 0 0 0 0 0 0 0 0 0 0 0 0 0 0 0 0 0 127 0" result="hardAlpha"/>
<feOffset dx="1.12992" dy="1.12992"/>
<feGaussianBlur stdDeviation="1.12992"/>
<feComposite in2="hardAlpha" operator="out"/>
<feColorMatrix type="matrix" values="0 0 0 0 0 0 0 0 0 0 0 0 0 0 0 0 0 0 0.05 0"/>
<feBlend mode="normal" in2="BackgroundImageFix" result="effect1_dropShadow_2228_51714"/>
<feBlend mode="normal" in="SourceGraphic" in2="effect1_dropShadow_2228_51714" result="shape"/>
</filter>
<filter id="filter16_d_2228_51714" x="69.1295" y="36.3315" width="38.0824" height="52.5117" filterUnits="userSpaceOnUse" color-interpolation-filters="sRGB">
<feFlood flood-opacity="0" result="BackgroundImageFix"/>
<feColorMatrix in="SourceAlpha" type="matrix" values="0 0 0 0 0 0 0 0 0 0 0 0 0 0 0 0 0 0 127 0" result="hardAlpha"/>
<feOffset dx="-4.71863"/>
<feGaussianBlur stdDeviation="1.88745"/>
<feComposite in2="hardAlpha" operator="out"/>
<feColorMatrix type="matrix" values="0 0 0 0 0 0 0 0 0 0 0 0 0 0 0 0 0 0 0.1 0"/>
<feBlend mode="normal" in2="BackgroundImageFix" result="effect1_dropShadow_2228_51714"/>
<feBlend mode="normal" in="SourceGraphic" in2="effect1_dropShadow_2228_51714" result="shape"/>
</filter>
<filter id="filter17_d_2228_51714" x="76.4931" y="38.9765" width="34.1085" height="49.4816" filterUnits="userSpaceOnUse" color-interpolation-filters="sRGB">
<feFlood flood-opacity="0" result="BackgroundImageFix"/>
<feColorMatrix in="SourceAlpha" type="matrix" values="0 0 0 0 0 0 0 0 0 0 0 0 0 0 0 0 0 0 127 0" result="hardAlpha"/>
<feOffset dx="1.12992" dy="1.12992"/>
<feGaussianBlur stdDeviation="1.12992"/>
<feComposite in2="hardAlpha" operator="out"/>
<feColorMatrix type="matrix" values="0 0 0 0 0 0 0 0 0 0 0 0 0 0 0 0 0 0 0.05 0"/>
<feBlend mode="normal" in2="BackgroundImageFix" result="effect1_dropShadow_2228_51714"/>
<feBlend mode="normal" in="SourceGraphic" in2="effect1_dropShadow_2228_51714" result="shape"/>
</filter>
<filter id="filter18_d_2228_51714" x="107.518" y="36.8525" width="37.6693" height="52.2783" filterUnits="userSpaceOnUse" color-interpolation-filters="sRGB">
<feFlood flood-opacity="0" result="BackgroundImageFix"/>
<feColorMatrix in="SourceAlpha" type="matrix" values="0 0 0 0 0 0 0 0 0 0 0 0 0 0 0 0 0 0 127 0" result="hardAlpha"/>
<feOffset dx="-4.71863"/>
<feGaussianBlur stdDeviation="1.88745"/>
<feComposite in2="hardAlpha" operator="out"/>
<feColorMatrix type="matrix" values="0 0 0 0 0 0 0 0 0 0 0 0 0 0 0 0 0 0 0.1 0"/>
<feBlend mode="normal" in2="BackgroundImageFix" result="effect1_dropShadow_2228_51714"/>
<feBlend mode="normal" in="SourceGraphic" in2="effect1_dropShadow_2228_51714" result="shape"/>
</filter>
<filter id="filter19_d_2228_51714" x="114.882" y="39.4975" width="33.6955" height="49.2482" filterUnits="userSpaceOnUse" color-interpolation-filters="sRGB">
<feFlood flood-opacity="0" result="BackgroundImageFix"/>
<feColorMatrix in="SourceAlpha" type="matrix" values="0 0 0 0 0 0 0 0 0 0 0 0 0 0 0 0 0 0 127 0" result="hardAlpha"/>
<feOffset dx="1.12992" dy="1.12992"/>
<feGaussianBlur stdDeviation="1.12992"/>
<feComposite in2="hardAlpha" operator="out"/>
<feColorMatrix type="matrix" values="0 0 0 0 0 0 0 0 0 0 0 0 0 0 0 0 0 0 0.05 0"/>
<feBlend mode="normal" in2="BackgroundImageFix" result="effect1_dropShadow_2228_51714"/>
<feBlend mode="normal" in="SourceGraphic" in2="effect1_dropShadow_2228_51714" result="shape"/>
</filter>
<linearGradient id="paint0_linear_2228_51714" x1="23.4636" y1="10.8413" x2="6.52732" y2="23.0761" gradientUnits="userSpaceOnUse">
<stop stop-color="#36DDAB"/>
<stop offset="1" stop-color="white" stop-opacity="0"/>
</linearGradient>
<linearGradient id="paint1_linear_2228_51714" x1="23.4636" y1="10.8413" x2="6.52733" y2="23.0761" gradientUnits="userSpaceOnUse">
<stop stop-color="#36DDAB"/>
<stop offset="1" stop-color="white" stop-opacity="0"/>
</linearGradient>
<linearGradient id="paint2_linear_2228_51714" x1="23.4641" y1="10.8411" x2="6.52786" y2="23.0763" gradientUnits="userSpaceOnUse">
<stop stop-color="#36DDAB"/>
<stop offset="1" stop-color="white" stop-opacity="0"/>
</linearGradient>
<linearGradient id="paint3_linear_2228_51714" x1="23.464" y1="10.8412" x2="6.52776" y2="23.0763" gradientUnits="userSpaceOnUse">
<stop stop-color="#36DDAB"/>
<stop offset="1" stop-color="white" stop-opacity="0"/>
</linearGradient>
<linearGradient id="paint4_linear_2228_51714" x1="23.464" y1="10.8412" x2="6.52775" y2="23.0763" gradientUnits="userSpaceOnUse">
<stop stop-color="#36DDAB"/>
<stop offset="1" stop-color="white" stop-opacity="0"/>
</linearGradient>
<linearGradient id="paint5_linear_2228_51714" x1="23.4636" y1="10.8413" x2="6.52732" y2="23.0761" gradientUnits="userSpaceOnUse">
<stop stop-color="#36DDAB"/>
<stop offset="1" stop-color="white" stop-opacity="0"/>
</linearGradient>
<linearGradient id="paint6_linear_2228_51714" x1="23.4636" y1="10.8413" x2="6.52733" y2="23.0761" gradientUnits="userSpaceOnUse">
<stop stop-color="#36DDAB"/>
<stop offset="1" stop-color="white" stop-opacity="0"/>
</linearGradient>
<linearGradient id="paint7_linear_2228_51714" x1="23.4641" y1="10.8411" x2="6.52786" y2="23.0763" gradientUnits="userSpaceOnUse">
<stop stop-color="#36DDAB"/>
<stop offset="1" stop-color="white" stop-opacity="0"/>
</linearGradient>
<linearGradient id="paint8_linear_2228_51714" x1="23.464" y1="10.8412" x2="6.52776" y2="23.0763" gradientUnits="userSpaceOnUse">
<stop stop-color="#36DDAB"/>
<stop offset="1" stop-color="white" stop-opacity="0"/>
</linearGradient>
<linearGradient id="paint9_linear_2228_51714" x1="23.464" y1="10.8412" x2="6.52775" y2="23.0763" gradientUnits="userSpaceOnUse">
<stop stop-color="#36DDAB"/>
<stop offset="1" stop-color="white" stop-opacity="0"/>
</linearGradient>
</defs>
</svg>
