<svg width="358" height="161" viewBox="0 0 358 161" fill="none" xmlns="http://www.w3.org/2000/svg">
<rect width="358" height="161" rx="8" fill="#1C1C1C"/>
<rect x="26.4278" y="26.4278" width="305.428" height="50.4768" rx="6.41655" stroke="#CCCCCC" stroke-width="0.85554"/>
<path d="M54.6067 55.9092H51.7861V53.5966H53.6174V52.2197H51.9598V48.7976H53.6709V47.434H44.3402V48.7976H46.0245V52.2197H44.3937V53.5966H46.2384V55.9092H43.4713V57.2728H54.6067V55.9092ZM47.7356 52.2197V48.7976H50.2755V52.2197H47.7356ZM47.9495 55.9092V53.5966H50.075V55.9092H47.9495ZM60.034 49.212V47.3939H58.3095V49.212C58.3029 51.5714 57.2669 53.9041 55.1414 54.7997L56.1707 56.2167C57.6545 55.5416 58.6504 54.2182 59.1985 52.574C59.7533 54.0779 60.7158 55.2943 62.106 55.9226L63.1086 54.5591C61.0433 53.6835 60.0273 51.4444 60.034 49.212ZM63.7636 58.6496H65.4881V46.4582H63.7636V58.6496ZM76.7839 46.4716H75.0728V55.5483H76.7839V51.5914H78.4281V50.2012H76.7839V46.4716ZM67.1323 49.0917H74.3509V47.7415H71.5971V46.4448H69.8994V47.7415H67.1323V49.0917ZM67.7205 51.8722C67.7205 53.2758 68.9704 54.1982 70.7416 54.1982C72.5062 54.1982 73.736 53.2758 73.736 51.8722C73.736 50.4619 72.5062 49.5194 70.7416 49.5194C68.9704 49.5194 67.7205 50.4619 67.7205 51.8722ZM68.8969 58.409H77.225V57.0455H70.5946V54.8532H68.8969V58.409ZM69.3915 51.8722C69.3848 51.1971 69.9262 50.8228 70.7416 50.8161C71.5637 50.8228 72.1185 51.1971 72.1185 51.8722C72.1185 52.5406 71.5637 52.9015 70.7416 52.9015C69.9262 52.9015 69.3848 52.5406 69.3915 51.8722ZM93.253 55.8424H88.4941V53.6501H92.2638V52.3133H90.6062V48.8377H92.3173V47.4742H82.9865V48.8377H84.6709V52.3133H83.04V53.6501H86.7963V55.8424H82.1176V57.2728H93.253V55.8424ZM86.3819 52.3133V48.8377H88.9218V52.3133H86.3819ZM100.298 47.6212H94.6566V48.9847H98.5934C98.5533 49.5595 98.4664 50.1076 98.3394 50.6223L94.015 50.8829L94.2288 52.34L97.8248 52.0058C97.1363 53.356 95.9266 54.4856 93.8947 55.4948L94.8304 56.7781C99.3755 54.4989 100.284 51.3776 100.298 47.6212ZM101.835 58.5962H103.546V52.5272H105.271V51.1236H103.546V46.4582H101.835V58.5962ZM109.174 55.682H113.88V57.3931H115.791V55.682H117.021V54.0645H115.791V47.7148H113.265L109.174 54.0912V55.682ZM111.206 54.0645V53.9843L113.813 49.9205H113.906V54.0645H111.206ZM124.841 47.2736H118.211V48.6372H120.697C120.677 50.1811 119.761 51.7585 117.743 52.3935L118.612 53.7437C120.069 53.2624 121.058 52.2866 121.599 51.0634C122.134 52.0994 123.07 52.9215 124.413 53.3293L125.229 51.9925C123.29 51.4243 122.428 50.0541 122.422 48.6372H124.841V47.2736ZM119.427 56.2568C119.42 57.7473 121.025 58.6296 123.598 58.6229C126.131 58.6296 127.695 57.7473 127.702 56.2568C127.695 54.773 126.131 53.9108 123.598 53.9174C121.025 53.9108 119.42 54.773 119.427 56.2568ZM121.138 56.2568C121.125 55.575 122 55.2342 123.598 55.2408C125.175 55.2342 126.017 55.575 126.017 56.2568C126.017 56.9519 125.175 57.2995 123.598 57.2995C122 57.2995 121.125 56.9519 121.138 56.2568ZM125.87 53.6768H127.582V50.6691H129.226V49.2788H127.582V46.4582H125.87V53.6768ZM142.714 47.1667H134.185V48.5302H141.016C141.009 49.5796 140.983 50.776 140.669 52.34H132.915V53.7169H137.554V58.6363H139.265V53.7169H144.011V52.34H142.4C142.707 50.6356 142.707 49.3991 142.714 48.2629V47.1667ZM155.293 46.4582H153.662V51.0968H152.566V46.632H150.948V58.0615H152.566V52.4871H153.662V58.6229H155.293V46.4582ZM145.093 55.5617H149.932V47.7148H145.093V55.5617ZM146.684 54.2249V49.0649H148.342V54.2249H146.684ZM166.174 46.4582H164.49V58.6229H166.174V52.6208H167.966V51.2171H166.174V46.4582ZM156.509 49.6397H163.661V48.2762H160.974V46.6453H159.263V48.2762H156.509V49.6397ZM157.004 53.2223C156.997 54.92 158.321 56.1164 160.119 56.1231C161.89 56.1164 163.22 54.92 163.22 53.2223C163.22 51.5246 161.89 50.3148 160.119 50.3215C158.321 50.3148 156.997 51.5246 157.004 53.2223ZM158.635 53.2223C158.635 52.2866 159.257 51.7117 160.119 51.6984C160.968 51.7117 161.589 52.2866 161.589 53.2223C161.589 54.1647 160.968 54.7262 160.119 54.7195C159.257 54.7262 158.635 54.1647 158.635 53.2223ZM178.433 47.5143H169.556V48.8644H176.722C176.715 50.2948 176.695 52.0058 176.227 54.3051L177.938 54.4789C178.426 51.8989 178.426 50.1878 178.433 48.6639V47.5143ZM168.407 57.1391H179.502V55.7488H174.075V51.5647H172.377V55.7488H168.407V57.1391ZM193.578 46.4716H191.867V53.2089H193.578V46.4716ZM183.352 51.6984L184.167 53.0352C185.625 52.594 186.62 51.665 187.175 50.4886C187.73 51.5781 188.699 52.4202 190.103 52.8346L190.918 51.4845C188.926 50.9364 188.044 49.5061 188.057 48.0623V46.886H186.28V48.0623C186.28 49.5662 185.384 51.0835 183.352 51.6984ZM185.183 58.4892H193.752V57.1257H192.188V55.1072H193.645V53.757H185.29V55.1072H186.761V57.1257H185.183V58.4892ZM188.445 57.1257V55.1072H190.504V57.1257H188.445ZM198.578 47.3137C196.733 47.3137 195.41 48.9914 195.423 51.6449C195.41 54.3185 196.733 55.9894 198.578 55.9894C200.276 55.9894 201.532 54.5591 201.713 52.2197H203.805V58.6496H205.489V46.4582H203.805V50.8562H201.693C201.452 48.6639 200.222 47.3137 198.578 47.3137ZM197.054 51.6449C197.047 49.8403 197.669 48.851 198.578 48.851C199.494 48.851 200.102 49.8403 200.102 51.6449C200.102 53.4562 199.494 54.4455 198.578 54.4388C197.669 54.4455 197.047 53.4562 197.054 51.6449ZM218.189 55.8023H215.715V52.7879C216.631 52.2197 217.179 51.3709 217.186 50.3215C217.179 48.3497 215.234 47.0531 212.601 47.0464C209.954 47.0531 208.029 48.3497 208.029 50.3215C208.029 51.3909 208.597 52.2531 209.54 52.8213V55.8023H207.053V57.2059H218.189V55.8023ZM209.713 50.3215C209.713 49.0983 210.856 48.3898 212.601 48.3965C214.319 48.3898 215.495 49.0983 215.502 50.3215C215.495 51.5112 214.319 52.2465 212.601 52.2465C210.856 52.2465 209.713 51.5112 209.713 50.3215ZM211.224 55.8023V53.4429C211.652 53.5231 212.113 53.5699 212.601 53.5699C213.089 53.5699 213.557 53.5231 213.991 53.4362V55.8023H211.224ZM219.793 53.102V54.7329C220.234 54.2516 220.789 54.0043 221.41 53.9976C222.506 54.0043 223.442 54.7596 224.538 54.7596C225.167 54.7596 225.741 54.5056 226.196 54.0244V52.3935C225.755 52.8814 225.2 53.1287 224.578 53.1287C223.475 53.1287 222.546 52.3735 221.45 52.3668C220.822 52.3735 220.247 52.6208 219.793 53.102Z" fill="#36DDAB"/>
<path d="M98.5625 105.211H91.5195V105.973H97.6484V106.125C97.6484 107.098 97.6484 108.188 97.332 109.688H90.3242V110.449H94.5898V114.973H95.5156V110.449H99.8164V109.688H98.2637C98.5625 108.193 98.5625 107.109 98.5625 106.125V105.211ZM109.625 104.531H108.734V108.668H107.281V104.754H106.402V114.422H107.281V109.43H108.734V114.949H109.625V104.531ZM101.082 112.148H105.066V105.75H101.082V112.148ZM101.949 111.41V106.488H104.199V111.41H101.949ZM120.594 109.371H111.055V110.098H120.594V109.371ZM112.203 111.621H118.484V112.512H112.215V114.809H119.738V114.141H113.141V113.145H119.398V110.93H112.203V111.621ZM112.262 105.516H118.438V106.371H112.297V108.586H119.551V107.918H113.211V107.004H119.363V104.848H112.262V105.516ZM133.039 104.543H132.113V110.707H129.957V111.375H132.113V112.453H133.039V104.543ZM124.391 109.371L124.52 110.121C125.393 110.121 126.395 110.121 127.449 110.08V112.09H128.375V110.033C129.33 109.975 130.309 109.881 131.234 109.734L131.176 109.066C128.943 109.342 126.33 109.359 124.391 109.371ZM125.234 106.781C125.229 107.895 126.271 108.586 127.812 108.586C129.342 108.586 130.385 107.895 130.391 106.781C130.385 105.686 129.342 104.965 127.812 104.965C126.271 104.965 125.229 105.686 125.234 106.781ZM125.891 114.727H133.297V113.953H126.816V111.68H125.891V114.727ZM126.113 106.781C126.102 106.113 126.793 105.656 127.812 105.668C128.803 105.656 129.506 106.113 129.512 106.781C129.506 107.461 128.803 107.9 127.812 107.906C126.793 107.9 126.102 107.461 126.113 106.781ZM142.883 104.531H141.969V114.949H142.883V109.594H144.629V108.832H142.883V104.531ZM134.762 106.969H140.961V106.207H138.359V104.66H137.445V106.207H134.762V106.969ZM135.359 110.227C135.354 111.639 136.432 112.617 137.914 112.617C139.385 112.617 140.457 111.639 140.469 110.227C140.457 108.82 139.385 107.836 137.914 107.836C136.432 107.836 135.354 108.82 135.359 110.227ZM136.238 110.227C136.232 109.283 136.941 108.604 137.914 108.609C138.875 108.604 139.578 109.283 139.59 110.227C139.578 111.176 138.875 111.844 137.914 111.832C136.941 111.844 136.232 111.176 136.238 110.227ZM153.617 107.695H147.395V104.918H146.48V108.434H153.617V107.695ZM145.18 110.602H154.719V109.852H145.18V110.602ZM146.422 114.691H153.676V113.93H147.336V111.668H146.422V114.691ZM162.055 106.219V105.07H161.152V106.148C161.146 107.76 160.098 109.154 158.539 109.734L159.031 110.473C160.25 109.998 161.182 109.043 161.627 107.807C162.084 108.896 162.992 109.758 164.141 110.18L164.645 109.453C163.133 108.938 162.055 107.637 162.055 106.219ZM159.922 113.027C159.928 114.24 161.234 114.926 163.379 114.926C165.518 114.926 166.812 114.24 166.812 113.027C166.812 111.838 165.518 111.141 163.379 111.141C161.234 111.141 159.928 111.838 159.922 113.027ZM160.848 113.027C160.836 112.318 161.809 111.879 163.379 111.879C164.955 111.879 165.916 112.318 165.922 113.027C165.916 113.766 164.955 114.193 163.379 114.199C161.809 114.193 160.836 113.766 160.848 113.027ZM165.805 110.871H166.719V108.023H168.289V107.25H166.719V104.531H165.805V110.871ZM178.438 109.57H168.945V110.332H173.234V111.562H170.105V114.809H177.277V111.562H174.137V110.332H178.438V109.57ZM169.836 105.633H171.441V107.824H169.871V108.586H177.5V107.824H175.93V105.633H177.535V104.871H169.836V105.633ZM171.02 114.059V112.289H176.375V114.059H171.02ZM172.355 107.824V105.633H175.016V107.824H172.355ZM187.906 104.531H186.98V114.973H187.906V104.531ZM179.703 108.973C179.709 111.193 180.811 112.6 182.363 112.594C183.91 112.6 185.029 111.193 185.023 108.973C185.029 106.758 183.91 105.346 182.363 105.34C180.811 105.346 179.709 106.758 179.703 108.973ZM180.594 108.973C180.594 107.279 181.32 106.166 182.363 106.16C183.412 106.166 184.133 107.279 184.133 108.973C184.133 110.666 183.412 111.779 182.363 111.773C181.32 111.779 180.594 110.666 180.594 108.973ZM192.863 112.266H196.977V114H197.984V112.266H199.168V111.34H197.984V105.516H196.684L192.863 111.398V112.266ZM194 111.34V111.27L196.871 106.852H196.977V111.34H194ZM209.082 104.531H208.18V108.738H206.738V104.812H205.859V114.434H206.738V109.5H208.18V114.949H209.082V104.531ZM200.199 112.066L200.738 112.711C203.732 111.041 204.664 108.539 204.676 105.891H200.598V106.652H203.773C203.615 108.809 202.619 110.713 200.199 112.066ZM219.16 104.543H218.246V112.16H219.16V104.543ZM210.805 107.824C210.799 109.342 211.977 110.396 213.535 110.391C215.094 110.396 216.26 109.342 216.266 107.824C216.26 106.324 215.094 105.275 213.535 105.27C211.977 105.275 210.799 106.324 210.805 107.824ZM211.707 107.824C211.695 106.805 212.48 106.078 213.535 106.078C214.572 106.078 215.363 106.805 215.363 107.824C215.363 108.861 214.572 109.582 213.535 109.582C212.48 109.582 211.695 108.861 211.707 107.824ZM212.434 114.727H219.488V113.953H213.348V111.387H212.434V114.727ZM232.578 104.543H231.652V106.488H229.221C229.309 106.119 229.355 105.727 229.355 105.316H224.609V106.09H228.354C228.172 107.895 226.596 109.307 224.082 110.051L224.469 110.777C226.701 110.115 228.307 108.902 228.992 107.227H231.652V108.633H228.887V109.395H231.652V110.801H232.578V104.543ZM225.688 112.898C225.682 114.146 227.035 114.902 229.168 114.902C231.277 114.902 232.637 114.146 232.637 112.898C232.637 111.656 231.277 110.906 229.168 110.906C227.035 110.906 225.682 111.656 225.688 112.898ZM226.59 112.898C226.596 112.113 227.598 111.639 229.168 111.645C230.715 111.639 231.717 112.113 231.723 112.898C231.717 113.684 230.715 114.158 229.168 114.152C227.598 114.158 226.596 113.684 226.59 112.898ZM243.84 110.508H234.301V111.281H238.59V114.949H239.492V111.281H243.84V110.508ZM235.379 107.25C235.385 108.639 236.855 109.518 239.047 109.512C241.232 109.518 242.715 108.639 242.715 107.25C242.715 105.838 241.232 104.959 239.047 104.953C236.855 104.959 235.385 105.838 235.379 107.25ZM236.328 107.25C236.316 106.307 237.424 105.703 239.047 105.703C240.67 105.703 241.771 106.307 241.777 107.25C241.771 108.176 240.67 108.773 239.047 108.773C237.424 108.773 236.316 108.176 236.328 107.25ZM253.613 104.531H252.723V114.949H253.613V104.531ZM244.812 109.031C244.818 111.246 245.697 112.658 247.051 112.652C248.334 112.658 249.207 111.387 249.295 109.359H250.637V114.422H251.516V104.754H250.637V108.598H249.289C249.172 106.635 248.316 105.416 247.051 105.41C245.697 105.416 244.818 106.816 244.812 109.031ZM245.68 109.031C245.668 107.338 246.207 106.277 247.051 106.277C247.9 106.277 248.439 107.338 248.434 109.031C248.439 110.719 247.9 111.785 247.051 111.773C246.207 111.785 245.668 110.719 245.68 109.031ZM263.48 107.695H257.258V104.918H256.344V108.434H263.48V107.695ZM255.043 110.602H264.582V109.852H255.043V110.602ZM256.285 114.691H263.539V113.93H257.199V111.668H256.285V114.691ZM267.137 113.215H266L265.355 116.402H266.223L267.137 113.215ZM58.0391 128.703H59.1758L59.8203 125.516H58.9531L58.0391 128.703ZM70.2148 132.91H67.4844V130.426H69.2773V129.664H67.6484V126.266H69.3008V125.504H61.5195V126.266H63.1719V129.664H61.543V130.426H63.3359V132.91H60.6758V133.672H70.2148V132.91ZM64.0859 129.664V126.266H66.7461V129.664H64.0859ZM64.2617 132.91V130.426H66.5703V132.91H64.2617ZM74.75 127.332V125.434H73.8359V127.332C73.8242 129.307 72.541 131.299 70.9883 132.008L71.5742 132.781C72.793 132.166 73.8184 130.848 74.2988 129.277C74.7969 130.76 75.8223 131.996 77.0117 132.57L77.5742 131.844C76.0391 131.146 74.7441 129.236 74.75 127.332ZM78.7109 134.973H79.6367V124.531H78.7109V134.973ZM89.5625 124.543H88.6484V132.348H89.5625V128.75H91.1328V127.977H89.5625V124.543ZM81.4414 126.57H87.6523V125.82H85.0039V124.543H84.0898V125.82H81.4414V126.57ZM82.0391 129.09C82.0332 130.262 83.041 131.018 84.5469 131.012C86.0352 131.018 87.043 130.262 87.0547 129.09C87.043 127.906 86.0352 127.145 84.5469 127.145C83.041 127.145 82.0332 127.906 82.0391 129.09ZM82.918 129.09C82.9121 128.346 83.5625 127.865 84.5469 127.871C85.5195 127.865 86.1758 128.346 86.1875 129.09C86.1758 129.822 85.5195 130.297 84.5469 130.285C83.5625 130.297 82.9121 129.822 82.918 129.09ZM83.0469 134.727H90.043V133.953H83.9492V131.727H83.0469V134.727ZM104.34 132.875H99.9805V130.473H103.402V129.734H101.773V126.312H103.426V125.551H95.6445V126.312H97.2969V129.734H95.668V130.473H99.0781V132.875H94.8008V133.66H104.34V132.875ZM98.2109 129.734V126.312H100.871V129.734H98.2109ZM110.574 125.621H105.852V126.383H109.66C109.619 127.021 109.514 127.637 109.326 128.223L105.324 128.492L105.477 129.301L109.045 128.961C108.412 130.361 107.234 131.568 105.277 132.523L105.793 133.227C109.543 131.381 110.568 128.627 110.574 125.621ZM112.32 134.949H113.234V129.547H114.922V128.773H113.234V124.531H112.32V134.949ZM118.719 132.266H122.832V134H123.84V132.266H125.023V131.34H123.84V125.516H122.539L118.719 131.398V132.266ZM119.855 131.34V131.27L122.727 126.852H122.832V131.34H119.855ZM129.57 126.512V126.066H131.914V125.305H126.289V126.066H128.668V126.512C128.656 128.018 127.566 129.359 126.008 129.887L126.477 130.625C127.725 130.174 128.686 129.242 129.131 128.047C129.582 129.096 130.49 129.922 131.691 130.32L132.125 129.594C130.596 129.096 129.576 127.877 129.57 126.512ZM127.391 133.004C127.396 134.223 128.703 134.926 130.848 134.926C132.986 134.926 134.281 134.223 134.281 133.004C134.281 131.803 132.986 131.105 130.848 131.105C128.703 131.105 127.396 131.803 127.391 133.004ZM128.316 133.004C128.305 132.277 129.277 131.844 130.848 131.844C132.424 131.844 133.385 132.277 133.391 133.004C133.385 133.754 132.424 134.193 130.848 134.188C129.277 134.193 128.305 133.754 128.316 133.004ZM133.273 130.824H134.188V127.965H135.758V127.191H134.188V124.531H133.273V130.824ZM147.664 125.211H140.621V125.973H146.75V126.125C146.75 127.098 146.75 128.188 146.434 129.688H139.426V130.449H143.691V134.973H144.617V130.449H148.918V129.688H147.365C147.664 128.193 147.664 127.109 147.664 126.125V125.211ZM158.727 124.531H157.836V128.668H156.383V124.754H155.504V134.422H156.383V129.43H157.836V134.949H158.727V124.531ZM150.184 132.148H154.168V125.75H150.184V132.148ZM151.051 131.41V126.488H153.301V131.41H151.051ZM168.23 124.531H167.316V134.949H168.23V129.594H169.977V128.832H168.23V124.531ZM160.109 126.969H166.309V126.207H163.707V124.66H162.793V126.207H160.109V126.969ZM160.707 130.227C160.701 131.639 161.779 132.617 163.262 132.617C164.732 132.617 165.805 131.639 165.816 130.227C165.805 128.82 164.732 127.836 163.262 127.836C161.779 127.836 160.701 128.82 160.707 130.227ZM161.586 130.227C161.58 129.283 162.289 128.604 163.262 128.609C164.223 128.604 164.926 129.283 164.938 130.227C164.926 131.176 164.223 131.844 163.262 131.832C162.289 131.844 161.58 131.176 161.586 130.227ZM178.895 125.586H171.547V126.348H177.969V126.629C177.963 127.877 177.963 129.336 177.57 131.328L178.508 131.434C178.883 129.336 178.883 127.906 178.895 126.629V125.586ZM170.539 133.473H180.031V132.711H175.168V128.984H174.266V132.711H170.539V133.473ZM192.523 124.543H191.609V130.332H192.523V124.543ZM183.992 129.383L184.461 130.109C185.703 129.664 186.688 128.715 187.156 127.514C187.625 128.633 188.604 129.506 189.828 129.922L190.273 129.195C188.727 128.686 187.602 127.396 187.613 125.949V124.93H186.676V125.949C186.676 127.461 185.562 128.838 183.992 129.383ZM185.492 134.809H192.699V134.059H191.152V131.703H192.594V130.953H185.586V131.703H187.051V134.059H185.492V134.809ZM187.953 134.059V131.703H190.238V134.059H187.953ZM197.094 125.34C195.553 125.346 194.475 126.758 194.48 128.973C194.475 131.193 195.553 132.6 197.094 132.594C198.547 132.6 199.59 131.322 199.689 129.277H202.016V134.973H202.93V124.531H202.016V128.516H199.678C199.537 126.564 198.512 125.346 197.094 125.34ZM195.359 128.973C195.365 127.279 196.068 126.166 197.094 126.16C198.113 126.166 198.828 127.279 198.828 128.973C198.828 130.666 198.113 131.779 197.094 131.773C196.068 131.779 195.365 130.666 195.359 128.973ZM214.203 132.84H211.836V130.004C212.697 129.541 213.219 128.803 213.219 127.871C213.219 126.26 211.637 125.199 209.41 125.188C207.184 125.199 205.602 126.26 205.602 127.871C205.602 128.82 206.141 129.57 207.031 130.033V132.84H204.664V133.613H214.203V132.84ZM206.492 127.871C206.486 126.705 207.699 125.938 209.41 125.949C211.104 125.938 212.328 126.705 212.328 127.871C212.328 129.037 211.104 129.816 209.41 129.816C207.699 129.816 206.486 129.037 206.492 127.871ZM207.934 132.84V130.367C208.379 130.484 208.877 130.543 209.41 130.543C209.955 130.543 210.459 130.479 210.91 130.361V132.84H207.934ZM215.75 130.52V131.492C216.107 131.006 216.559 130.76 217.074 130.754C217.936 130.76 218.75 131.434 219.641 131.434C220.156 131.434 220.613 131.205 221 130.766V129.793C220.648 130.279 220.191 130.525 219.664 130.531C218.809 130.525 218 129.857 217.109 129.852C216.594 129.857 216.131 130.08 215.75 130.52ZM224.352 125.527H223.215L222.57 128.715H223.438L224.352 125.527ZM233.27 124.531H232.355V134.973H233.27V129.453H235.016V128.68H233.27V124.531ZM225.617 126.266H229.438V128.469H225.641V132.453H226.473C228.482 132.441 229.871 132.365 231.512 132.066L231.418 131.305C229.842 131.598 228.488 131.674 226.555 131.668V129.23H230.352V125.504H225.617V126.266ZM243.934 125.586H236.586V126.348H243.008V126.629C243.002 127.877 243.002 129.336 242.609 131.328L243.547 131.434C243.922 129.336 243.922 127.906 243.934 126.629V125.586ZM235.578 133.473H245.07V132.711H240.207V128.984H239.305V132.711H235.578V133.473ZM257.105 124.543H256.191V130.426H257.105V127.707H258.688V126.934H257.105V124.543ZM249.465 129.629H250.297C251.861 129.623 253.438 129.518 255.207 129.16L255.09 128.387C253.408 128.732 251.879 128.85 250.391 128.855V125.07H249.465V129.629ZM250.508 134.809H257.105V131H250.508V134.809ZM251.41 134.059V131.727H256.215V134.059H251.41ZM264.617 125.668H259.801V126.418H263.691C263.498 128.879 262.115 130.889 259.344 132.23L259.824 132.98C262.285 131.785 263.662 130.086 264.26 128.152H267.043V130.18H264.102V130.941H267.043V134.949H267.957V124.52H267.043V127.402H264.447C264.564 126.84 264.617 126.26 264.617 125.668ZM274.965 126.008V125.938H278.293V125.188H270.594V125.938H273.934V126.008C273.928 127.402 272.076 128.586 270.266 128.855L270.629 129.582C272.229 129.307 273.816 128.439 274.449 127.186C275.082 128.439 276.67 129.307 278.293 129.582L278.633 128.855C276.816 128.586 274.959 127.402 274.965 126.008ZM269.703 131.234H273.98V134.949H274.883V131.234H279.195V130.473H269.703V131.234ZM283.168 127.496V125.516H282.277V127.531C282.277 129.318 281.398 131.164 279.957 132.008L280.543 132.699C281.586 132.066 282.359 130.871 282.74 129.482C283.104 130.754 283.824 131.867 284.832 132.477L285.359 131.762C283.977 130.941 283.168 129.154 283.168 127.496ZM284.211 129.055H285.98V134.422H286.848V124.754H285.98V128.27H284.211V129.055ZM288.113 134.949H289.004V124.531H288.113V134.949ZM299.984 132.84H297.617V130.004C298.479 129.541 299 128.803 299 127.871C299 126.26 297.418 125.199 295.191 125.188C292.965 125.199 291.383 126.26 291.383 127.871C291.383 128.82 291.922 129.57 292.812 130.033V132.84H290.445V133.613H299.984V132.84ZM292.273 127.871C292.268 126.705 293.48 125.938 295.191 125.949C296.885 125.938 298.109 126.705 298.109 127.871C298.109 129.037 296.885 129.816 295.191 129.816C293.48 129.816 292.268 129.037 292.273 127.871ZM293.715 132.84V130.367C294.16 130.484 294.658 130.543 295.191 130.543C295.736 130.543 296.24 130.479 296.691 130.361V132.84H293.715Z" fill="#CCCCCC"/>
</svg>
