<svg width="26" height="26" viewBox="0 0 26 26" fill="none" xmlns="http://www.w3.org/2000/svg">
<path fill-rule="evenodd" clip-rule="evenodd" d="M21.1367 11.6474C20.5254 10.9187 19.9762 10.007 19.8499 8.11319C19.8497 3.63236 16.5805 0 12.5477 0C8.5149 0 5.24565 3.63236 5.24544 8.11319C5.11915 10.007 4.56995 10.9187 3.95871 11.6474C3.04893 12.4312 2.41543 13.3448 2.14575 14.3344C2.05075 14.6787 2 15.0413 2 15.4159C2 16.4029 2.30753 17.2462 2.88872 17.95C3.1331 18.2552 3.42065 18.5242 3.7421 18.7479C5.51991 20.0582 8.57877 20.6897 12.5477 20.6897C16.5166 20.6897 19.5755 20.0582 21.3533 18.7479C21.6747 18.5242 21.9623 18.2552 22.2067 17.9501C22.7879 17.2462 23.0954 16.4029 23.0954 15.4159C23.0954 15.0413 23.0446 14.6787 22.9496 14.3343C22.6799 13.3448 22.0464 12.4312 21.1367 11.6474ZM8.49057 23.3007C8.49057 24.7919 10.3069 26.0006 12.5474 26.0006C14.7879 26.0006 16.6042 24.7919 16.6042 23.3007C16.6042 21.8494 15.7834 21.8722 13.9172 21.9241L13.9171 21.9241C13.5108 21.9354 13.055 21.948 12.5474 21.9472C12.0397 21.948 11.5839 21.9354 11.1776 21.9241L11.1775 21.9241C9.31132 21.8722 8.49057 21.8494 8.49057 23.3007Z" fill="#292929"/>
</svg>
