<svg width="211" height="155" viewBox="0 0 211 155" fill="none" xmlns="http://www.w3.org/2000/svg">
<path d="M44.6406 134.863H34.9531V136.816H38.5664C38.4102 138.73 37.0625 140.625 34.2695 141.426L35.4805 143.359C37.6387 142.764 39.0938 141.455 39.8848 139.785C40.6953 141.26 42.1016 142.432 44.1133 142.969L45.2852 141.055C42.5703 140.293 41.2715 138.574 41.125 136.816H44.6406V134.863ZM36.8867 145.703H46.2031V146.758H36.9258V151.621H49.1914V149.727H39.3672V148.516H48.6836V143.828H36.8867V145.703ZM46.1836 143.145H48.6836V139.531H51.0859V137.539H48.6836V134.023H46.1836V143.145ZM66.0273 134.727H53.8789V140.859H58.7422V142.461H51.8672V144.453H68.0781V142.461H61.2031V140.859H66.0273V134.727ZM52.9609 149.785L53.8398 151.699C56.75 151.299 58.8496 150.166 59.9629 148.555C61.0566 150.166 63.1562 151.299 66.0664 151.699L66.9844 149.785C63.0684 149.307 61.2129 147.529 61.2227 145.645V145.254H58.7031V145.645C58.6836 147.529 56.8281 149.307 52.9609 149.785ZM56.3203 138.906V136.66H63.5859V138.906H56.3203ZM79.5234 139.473H73.2344V137.09H79.3672V135.098H70.7344V141.465H73.8398V143.34C72.2285 143.379 70.6562 143.398 69.2305 143.398L69.5625 145.371C72.8535 145.371 76.8672 145.273 80.6367 144.746L80.4609 142.969C79.1426 143.105 77.7461 143.193 76.3398 143.262V141.465H79.5234V139.473ZM71.9844 151.484H84.5625V149.492H74.5039V146.387H71.9844V151.484ZM81.5547 147.402H84.0938V134.004H81.5547V147.402ZM106.027 134.023H103.547V138.008H100.734V140.039H103.547V143.75H106.027V134.023ZM90.9492 142.109L92.2188 144.062C94.3184 143.379 95.7344 141.953 96.5254 140.176C97.2969 141.768 98.6543 143.047 100.617 143.691L101.848 141.777C99.1621 140.889 97.8828 138.838 97.7754 136.855H101.301V134.824H91.6523V136.855H95.2168C95.0898 139.023 93.752 141.172 90.9492 142.109ZM94.1719 151.602H106.027V144.434H103.547V146.113H96.6328V144.434H94.1719V151.602ZM96.6328 149.609V148.027H103.547V149.609H96.6328ZM122.668 135.02H110.324V137.012H120.188C120.178 138.418 120.129 139.912 119.738 141.895H108.332V143.887H124.602V141.895H122.277C122.678 139.717 122.678 138.027 122.668 136.523V135.02ZM110.402 151.465H123.176V149.473H112.863V145.449H110.402V151.465ZM140.5 134.023H137.98V151.836H140.5V134.023ZM126.145 141.602C126.135 145.508 128.117 147.949 130.852 147.949C133.527 147.949 135.52 145.508 135.52 141.602C135.52 137.725 133.527 135.273 130.852 135.273C128.117 135.273 126.135 137.725 126.145 141.602ZM128.547 141.602C128.537 138.965 129.465 137.52 130.852 137.52C132.199 137.52 133.107 138.965 133.117 141.602C133.107 144.248 132.199 145.693 130.852 145.684C129.465 145.693 128.537 144.248 128.547 141.602ZM158.312 134.023H155.93V151.797H158.312V134.023ZM143.059 141.719C143.059 145.713 144.572 148.184 146.926 148.184C149.113 148.184 150.607 146.064 150.822 142.578H152.258V150.977H154.602V134.277H152.258V140.605H150.803C150.529 137.285 149.064 135.283 146.926 135.293C144.572 135.283 143.059 137.744 143.059 141.719ZM145.363 141.719C145.344 138.994 145.93 137.637 146.926 137.637C147.951 137.637 148.557 138.994 148.547 141.719C148.557 144.453 147.951 145.801 146.926 145.781C145.93 145.801 145.344 144.453 145.363 141.719ZM176.457 147.676H172.844V143.271C174.182 142.441 174.982 141.201 174.992 139.668C174.982 136.787 172.141 134.893 168.293 134.883C164.426 134.893 161.613 136.787 161.613 139.668C161.613 141.23 162.443 142.49 163.82 143.32V147.676H160.188V149.727H176.457V147.676ZM164.074 139.668C164.074 137.881 165.744 136.846 168.293 136.855C170.803 136.846 172.521 137.881 172.531 139.668C172.521 141.406 170.803 142.48 168.293 142.48C165.744 142.48 164.074 141.406 164.074 139.668ZM166.281 147.676V144.229C166.906 144.346 167.58 144.414 168.293 144.414C169.006 144.414 169.689 144.346 170.324 144.219V147.676H166.281Z" fill="white"/>
<line x1="44.1377" y1="15.0549" x2="7.05493" y2="57.5225" stroke="#36DDAB" stroke-width="10" stroke-linecap="round"/>
<line x1="7" y1="58" x2="63" y2="58" stroke="#36DDAB" stroke-width="10" stroke-linecap="round"/>
<line x1="45" y1="15" x2="45" y2="79" stroke="#36DDAB" stroke-width="10" stroke-linecap="round"/>
<line x1="187.138" y1="15.0549" x2="150.055" y2="57.5225" stroke="#36DDAB" stroke-width="10" stroke-linecap="round"/>
<line x1="150" y1="58" x2="206" y2="58" stroke="#36DDAB" stroke-width="10" stroke-linecap="round"/>
<line x1="188" y1="15" x2="188" y2="79" stroke="#36DDAB" stroke-width="10" stroke-linecap="round"/>
<circle cx="107.146" cy="52.1465" r="51.1465" fill="#1C1C1C"/>
<g filter="url(#filter0_d_1961_52279)">
<circle cx="106.867" cy="40.2965" r="34.859" fill="#F2F2F2"/>
</g>
<circle cx="95.9602" cy="37.0266" r="3.27266" fill="#292929"/>
<circle cx="117.875" cy="37.0266" r="3.27266" fill="#292929"/>
<path d="M99.2324 48.8555C101.914 47.2509 106.756 42.6696 113.563 48.8555H99.2324Z" stroke="#292929" stroke-width="2.97413" stroke-linejoin="round"/>
<g filter="url(#filter1_d_1961_52279)">
<rect x="120.03" y="84.3125" width="20.1183" height="18.7296" rx="9.3648" transform="rotate(-11.4633 120.03 84.3125)" fill="#F2F2F2"/>
</g>
<g filter="url(#filter2_d_1961_52279)">
<rect width="20.1183" height="18.7296" rx="9.3648" transform="matrix(-0.980052 -0.198741 -0.198741 0.980052 93.4814 84.3125)" fill="#F2F2F2"/>
</g>
<defs>
<filter id="filter0_d_1961_52279" x="67.0078" y="0.4375" width="83.7178" height="83.7188" filterUnits="userSpaceOnUse" color-interpolation-filters="sRGB">
<feFlood flood-opacity="0" result="BackgroundImageFix"/>
<feColorMatrix in="SourceAlpha" type="matrix" values="0 0 0 0 0 0 0 0 0 0 0 0 0 0 0 0 0 0 127 0" result="hardAlpha"/>
<feMorphology radius="3" operator="dilate" in="SourceAlpha" result="effect1_dropShadow_1961_52279"/>
<feOffset dx="2" dy="2"/>
<feGaussianBlur stdDeviation="2"/>
<feComposite in2="hardAlpha" operator="out"/>
<feColorMatrix type="matrix" values="0 0 0 0 0 0 0 0 0 0 0 0 0 0 0 0 0 0 0.25 0"/>
<feBlend mode="normal" in2="BackgroundImageFix" result="effect1_dropShadow_1961_52279"/>
<feBlend mode="normal" in="SourceGraphic" in2="effect1_dropShadow_1961_52279" result="shape"/>
</filter>
<filter id="filter1_d_1961_52279" x="111.703" y="74.9883" width="40.0938" height="39.0078" filterUnits="userSpaceOnUse" color-interpolation-filters="sRGB">
<feFlood flood-opacity="0" result="BackgroundImageFix"/>
<feColorMatrix in="SourceAlpha" type="matrix" values="0 0 0 0 0 0 0 0 0 0 0 0 0 0 0 0 0 0 127 0" result="hardAlpha"/>
<feOffset dy="3"/>
<feGaussianBlur stdDeviation="5"/>
<feComposite in2="hardAlpha" operator="out"/>
<feColorMatrix type="matrix" values="0 0 0 0 0 0 0 0 0 0 0 0 0 0 0 0 0 0 0.25 0"/>
<feBlend mode="normal" in2="BackgroundImageFix" result="effect1_dropShadow_1961_52279"/>
<feBlend mode="normal" in="SourceGraphic" in2="effect1_dropShadow_1961_52279" result="shape"/>
</filter>
<filter id="filter2_d_1961_52279" x="61.7148" y="74.9883" width="40.0938" height="39.0078" filterUnits="userSpaceOnUse" color-interpolation-filters="sRGB">
<feFlood flood-opacity="0" result="BackgroundImageFix"/>
<feColorMatrix in="SourceAlpha" type="matrix" values="0 0 0 0 0 0 0 0 0 0 0 0 0 0 0 0 0 0 127 0" result="hardAlpha"/>
<feOffset dy="3"/>
<feGaussianBlur stdDeviation="5"/>
<feComposite in2="hardAlpha" operator="out"/>
<feColorMatrix type="matrix" values="0 0 0 0 0 0 0 0 0 0 0 0 0 0 0 0 0 0 0.25 0"/>
<feBlend mode="normal" in2="BackgroundImageFix" result="effect1_dropShadow_1961_52279"/>
<feBlend mode="normal" in="SourceGraphic" in2="effect1_dropShadow_1961_52279" result="shape"/>
</filter>
</defs>
</svg>
