<svg width="177" height="208" viewBox="0 0 177 208" fill="none" xmlns="http://www.w3.org/2000/svg">
<path d="M27.0742 167.023H24.5742V175.91H27.0742V172.512H29.4766V170.461H27.0742V167.023ZM13.0898 171.574C13.0801 173.918 15.1406 175.598 17.875 175.598C20.5996 175.598 22.6406 173.918 22.6406 171.574C22.6406 169.201 20.5996 167.561 17.875 167.551C15.1406 167.561 13.0801 169.201 13.0898 171.574ZM15.2773 178.527H24.5938V179.66H15.3164V184.602H27.582V182.648H17.7578V181.457H27.0742V176.613H15.2773V178.527ZM15.5312 171.574C15.5117 170.334 16.5078 169.582 17.875 169.582C19.2324 169.582 20.2188 170.334 20.2188 171.574C20.2188 172.834 19.2324 173.625 17.875 173.625C16.5078 173.625 15.5117 172.834 15.5312 171.574ZM44.3008 168.41V167.551H41.6836V168.41C41.6738 170.51 39.5352 172.824 35.4922 173.332L36.4883 175.344C39.5547 174.895 41.8203 173.449 42.9922 171.535C44.1543 173.459 46.4297 174.895 49.5352 175.344L50.5117 173.332C46.4395 172.824 44.291 170.51 44.3008 168.41ZM34.8672 178.723H41.7031V184.797H44.1641V178.723H51.0781V176.691H34.8672V178.723ZM61.0391 177.414H58.7344V184.602H65.2578V183.225L66.2734 184.758C67.7188 184.201 68.6953 183.176 69.2812 181.936C69.8477 183.215 70.834 184.23 72.3672 184.758L73.6562 182.902C71.4297 182.18 70.5605 180.461 70.5703 178.645V177.277H68.0703V178.645C68.0703 180.256 67.2305 181.916 65.2578 182.814V177.414H62.9531V179.191H61.0391V177.414ZM56.9961 171.867C56.9766 174.348 58.9883 176.086 61.7227 176.086C63.9883 176.086 65.8047 174.807 66.2832 172.883H69.2617V176.438H71.7422V167.023H69.2617V170.832H66.2734C65.7852 168.947 63.9785 167.697 61.7227 167.688C58.9883 167.697 56.9766 169.426 56.9961 171.867ZM59.3594 171.867C59.3496 170.559 60.3262 169.748 61.7227 169.738C63.0703 169.748 64.0371 170.559 64.0469 171.867C64.0371 173.215 63.0703 174.045 61.7227 174.055C60.3262 174.045 59.3496 173.215 59.3594 171.867ZM61.0391 182.707V181.027H62.9531V182.707H61.0391ZM88.4805 171.867H78.5391V167.648H76.0586V173.82H88.4805V171.867ZM74.0273 177.688H90.2969V175.734H74.0273V177.688ZM75.9023 184.406H88.5977V182.414H78.4023V179.133H75.9023V184.406ZM104.047 167.941C100.229 167.941 97.3672 169.875 97.3672 172.805C97.3672 175.48 99.623 177.277 102.797 177.639V180.676H95.9414V182.727H112.211V180.676H105.277V177.639C108.471 177.287 110.736 175.49 110.746 172.805C110.736 169.875 107.865 167.941 104.047 167.941ZM99.8281 172.805C99.8281 171.027 101.557 169.924 104.047 169.934C106.547 169.924 108.275 171.027 108.285 172.805C108.275 174.68 106.547 175.725 104.047 175.734C101.557 175.725 99.8281 174.68 99.8281 172.805ZM129.477 177.453H113.207V179.406H117.016V184.797H119.496V179.406H123.207V184.797H125.727V179.406H129.477V177.453ZM115.082 169.582H125.043V170.91H115.141V176.164H128.012V174.172H117.66V172.727H127.602V167.551H115.082V169.582ZM145.922 167.023H143.539V184.797H145.922V167.023ZM130.668 174.719C130.668 178.713 132.182 181.184 134.535 181.184C136.029 181.184 137.191 180.197 137.855 178.469H139.945V183.977H142.289V167.277H139.945V170.969H137.846C137.191 169.26 136.02 168.283 134.535 168.293C132.182 168.283 130.668 170.744 130.668 174.719ZM132.934 174.719C132.914 171.994 133.49 170.637 134.535 170.637C135.561 170.637 136.186 171.994 136.195 174.719C136.186 177.453 135.561 178.801 134.535 178.781C133.49 178.801 132.914 177.453 132.934 174.719ZM138.344 172.961H139.945V176.457H138.354C138.422 175.92 138.461 175.334 138.461 174.719C138.461 174.094 138.422 173.508 138.344 172.961ZM164.066 180.676H160.453V176.271C161.791 175.441 162.592 174.201 162.602 172.668C162.592 169.787 159.75 167.893 155.902 167.883C152.035 167.893 149.223 169.787 149.223 172.668C149.223 174.23 150.053 175.49 151.43 176.32V180.676H147.797V182.727H164.066V180.676ZM151.684 172.668C151.684 170.881 153.354 169.846 155.902 169.855C158.412 169.846 160.131 170.881 160.141 172.668C160.131 174.406 158.412 175.48 155.902 175.48C153.354 175.48 151.684 174.406 151.684 172.668ZM153.891 180.676V177.229C154.516 177.346 155.189 177.414 155.902 177.414C156.615 177.414 157.299 177.346 157.934 177.219V180.676H153.891Z" fill="white"/>
<path d="M4.40332 198.676C2.5625 198.686 1.22949 199.584 1.22949 200.951C1.22949 202.24 2.38184 203.095 4.02246 203.212V205.033H0.448242V205.678H8.39746V205.033H4.77441V203.212C6.4248 203.1 7.57715 202.245 7.57715 200.951C7.57715 199.584 6.24902 198.686 4.40332 198.676ZM1.97168 200.951C1.9668 199.97 2.99707 199.306 4.40332 199.311C5.80957 199.306 6.83496 199.97 6.83496 200.951C6.83496 201.952 5.80957 202.602 4.40332 202.611C2.99707 202.602 1.9668 201.952 1.97168 200.951ZM17.0303 203.295H9.08105V203.91H11.1611V206.791H11.9326V203.91H14.1787V206.791H14.9404V203.91H17.0303V203.295ZM10.0381 199.086H15.2822V200.082H10.0576V202.396H16.249V201.762H10.8291V200.678H16.0635V198.451H10.0381V199.086ZM24.4521 198.109H23.6904V206.791H24.4521V202.289H25.8584V201.645H24.4521V198.109ZM17.792 204.535L18.2217 205.141C21.0488 203.744 22.2012 201.503 22.2061 199.047H18.1924V199.691H21.4297C21.2539 201.747 20.0332 203.422 17.792 204.535ZM31.9912 200.775V199.643H34.0615V199.008H29.1689V199.643H31.2197V200.775C31.2148 202.279 30.1309 203.92 28.8857 204.516L29.3447 205.121C30.3359 204.623 31.2148 203.52 31.6201 202.245C32.0254 203.446 32.8994 204.447 33.915 204.906L34.3447 204.301C33.0654 203.749 31.9961 202.25 31.9912 200.775ZM35.2725 206.791H36.0439V198.109H35.2725V206.791ZM45.4678 202.475H41.8545V201.137H41.1025V202.475H37.5283V203.109H45.4678V202.475ZM38.0068 200.99L38.2998 201.605C39.6328 201.376 40.9365 200.688 41.4834 199.677C42.0254 200.678 43.334 201.376 44.6475 201.605L44.96 200.99C43.4268 200.78 41.8643 199.813 41.8643 198.656V198.246H41.0928V198.656C41.0928 199.813 39.54 200.78 38.0068 200.99ZM38.4072 204.574H43.6904V206.791H44.4619V203.959H38.4072V204.574ZM51.3467 201.859H47.6357V199.564H51.3076V198.939H46.8838V202.494H48.6807V204.232C47.8164 204.257 46.9766 204.262 46.2197 204.262L46.3271 204.906C47.9873 204.911 50.0869 204.872 52.0107 204.594L51.9521 204.018C51.1465 204.11 50.292 204.169 49.4424 204.203V202.494H51.3467V201.859ZM52.5283 206.811H53.29V198.109H52.5283V206.811ZM61.835 200.746H56.6494V198.432H55.8877V201.361H61.835V200.746ZM54.8037 203.168H62.7529V202.543H54.8037V203.168ZM55.8389 206.576H61.8838V205.941H56.6006V204.057H55.8389V206.576ZM73.1631 198.119H72.3916V199.74H70.3652C70.4385 199.433 70.4775 199.105 70.4775 198.764H66.5225V199.408H69.6426C69.4912 200.912 68.1777 202.089 66.083 202.709L66.4053 203.314C68.2656 202.763 69.6035 201.752 70.1748 200.355H72.3916V201.527H70.0869V202.162H72.3916V203.334H73.1631V198.119ZM67.4209 205.082C67.416 206.122 68.5439 206.752 70.3213 206.752C72.0791 206.752 73.2119 206.122 73.2119 205.082C73.2119 204.047 72.0791 203.422 70.3213 203.422C68.5439 203.422 67.416 204.047 67.4209 205.082ZM68.1729 205.082C68.1777 204.428 69.0127 204.032 70.3213 204.037C71.6104 204.032 72.4453 204.428 72.4502 205.082C72.4453 205.736 71.6104 206.132 70.3213 206.127C69.0127 206.132 68.1777 205.736 68.1729 205.082ZM82.5479 203.09H74.5986V203.734H78.1729V206.791H78.9248V203.734H82.5479V203.09ZM75.4971 200.375C75.502 201.532 76.7275 202.265 78.5537 202.26C80.375 202.265 81.6104 201.532 81.6104 200.375C81.6104 199.198 80.375 198.466 78.5537 198.461C76.7275 198.466 75.502 199.198 75.4971 200.375ZM76.2881 200.375C76.2783 199.589 77.2012 199.086 78.5537 199.086C79.9062 199.086 80.8242 199.589 80.8291 200.375C80.8242 201.146 79.9062 201.645 78.5537 201.645C77.2012 201.645 76.2783 201.146 76.2881 200.375ZM84.6768 205.346H83.7295L83.1924 208.002H83.915L84.6768 205.346ZM95.2822 198.988H89.1592V199.623H94.5107V199.857C94.5059 200.897 94.5059 202.113 94.1787 203.773L94.96 203.861C95.2725 202.113 95.2725 200.922 95.2822 199.857V198.988ZM88.3193 205.561H96.2295V204.926H92.1768V201.82H91.4248V204.926H88.3193V205.561ZM104.335 198.119H103.603V200.307H102.421V198.285H101.688V203.178H102.421V200.941H103.603V203.236H104.335V198.119ZM97.0107 202.758L97.3916 203.334C99.5938 202.396 100.766 200.829 100.771 198.754H97.3623V199.389H99.9795C99.833 200.849 98.8125 202.025 97.0107 202.758ZM98.4756 204.262H103.583V206.791H104.335V203.637H98.4756V204.262ZM112.978 198.109H112.245V204.623H112.978V198.109ZM105.634 202.777L106.063 203.373C106.894 202.968 107.504 202.201 107.812 201.337C108.109 202.123 108.681 202.792 109.481 203.158L109.911 202.553C108.808 202.084 108.173 201.039 108.173 200.023V198.725H107.431V200.023C107.436 201.049 106.752 202.25 105.634 202.777ZM107.284 206.605H113.241V205.961H108.046V203.822H107.284V206.605ZM109.159 200.951H110.526V204.379H111.269V198.285H110.526V200.316H109.159V200.951ZM121.444 198.109H120.683V201.391H118.847V202.025H120.683V206.811H121.444V198.109ZM114.647 204.711H115.312C116.991 204.711 118.051 204.652 119.315 204.447L119.228 203.812C118.036 204.027 117.011 204.071 115.419 204.076V201.977H118.319V201.352H115.419V199.545H118.7V198.91H114.647V204.711ZM130.839 205.072H127.216V203.432H130.038V202.797H124.647V201.381H129.833V198.754H123.866V199.389H129.081V200.756H123.886V203.432H126.464V205.072H122.89V205.717H130.839V205.072ZM141.981 202.553H134.032V203.188H137.685V204.965H138.446V203.188H141.981V202.553ZM135.048 206.605H141.093V205.961H135.819V204.105H135.048V206.605ZM135.067 201.557H140.946V198.539H135.067V201.557ZM135.819 200.941V199.145H140.185V200.941H135.819ZM145.526 198.744C144.154 198.749 143.178 199.579 143.183 200.785C143.178 201.996 144.154 202.821 145.526 202.826C146.889 202.821 147.855 201.996 147.86 200.785C147.855 199.579 146.889 198.749 145.526 198.744ZM142.733 204.242L142.841 204.896C144.403 204.896 146.537 204.887 148.524 204.516L148.466 203.949C146.547 204.232 144.335 204.247 142.733 204.242ZM143.935 200.785C143.93 199.979 144.599 199.418 145.526 199.418C146.444 199.418 147.113 199.979 147.108 200.785C147.113 201.596 146.444 202.152 145.526 202.152C144.599 202.152 143.93 201.596 143.935 200.785ZM149.042 206.811H149.804V198.109H149.042V206.811ZM158.046 198.109H157.284V206.791H158.046V202.328H159.501V201.693H158.046V198.109ZM151.278 200.141H156.444V199.506H154.276V198.217H153.515V199.506H151.278V200.141ZM151.776 202.855C151.771 204.032 152.67 204.848 153.905 204.848C155.131 204.848 156.024 204.032 156.034 202.855C156.024 201.684 155.131 200.863 153.905 200.863C152.67 200.863 151.771 201.684 151.776 202.855ZM152.509 202.855C152.504 202.069 153.095 201.503 153.905 201.508C154.706 201.503 155.292 202.069 155.302 202.855C155.292 203.646 154.706 204.203 153.905 204.193C153.095 204.203 152.504 203.646 152.509 202.855ZM162.548 200.58V198.93H161.806V200.609C161.806 202.099 161.073 203.637 159.872 204.34L160.36 204.916C161.229 204.389 161.874 203.393 162.191 202.235C162.494 203.295 163.095 204.223 163.935 204.73L164.374 204.135C163.222 203.451 162.548 201.962 162.548 200.58ZM163.417 201.879H164.892V206.352H165.614V198.295H164.892V201.225H163.417V201.879ZM166.669 206.791H167.411V198.109H166.669V206.791ZM176.562 205.033H174.589V202.67C175.307 202.284 175.741 201.669 175.741 200.893C175.741 199.55 174.423 198.666 172.567 198.656C170.712 198.666 169.394 199.55 169.394 200.893C169.394 201.684 169.843 202.309 170.585 202.694V205.033H168.612V205.678H176.562V205.033ZM170.136 200.893C170.131 199.921 171.142 199.281 172.567 199.291C173.979 199.281 174.999 199.921 174.999 200.893C174.999 201.864 173.979 202.514 172.567 202.514C171.142 202.514 170.131 201.864 170.136 200.893ZM171.337 205.033V202.973C171.708 203.07 172.123 203.119 172.567 203.119C173.021 203.119 173.441 203.065 173.817 202.968V205.033H171.337Z" fill="#999999"/>
<circle cx="88.5" cy="70.5" r="65.5" fill="#1C1C1C"/>
<g filter="url(#filter0_d_1961_52512)">
<circle cx="88.1417" cy="55.3214" r="44.6417" fill="#F2F2F2"/>
</g>
<circle cx="74.1745" cy="51.1325" r="4.19108" fill="#292929"/>
<circle cx="102.24" cy="51.1325" r="4.19108" fill="#292929"/>
<path d="M78.3652 66.2812C81.7987 64.2264 88 58.3594 96.7176 66.2812H78.3652Z" stroke="#292929" stroke-width="2.97413" stroke-linejoin="round"/>
<g filter="url(#filter1_d_1961_52512)">
<rect x="105" y="111.691" width="25.7641" height="23.9858" rx="11.9929" transform="rotate(-11.4633 105 111.691)" fill="#F2F2F2"/>
</g>
<g filter="url(#filter2_d_1961_52512)">
<rect width="25.7641" height="23.9858" rx="11.9929" transform="matrix(-0.980052 -0.198741 -0.198741 0.980052 71 111.691)" fill="#F2F2F2"/>
</g>
<rect width="10" height="9.9995" rx="4.99975" transform="matrix(1 0 0 -1 133 34)" fill="#36DDAB"/>
<path d="M133 10.5532C133 2.71028 145 3.60095 145 10.5532C145 17.5055 137.582 16 137.582 19" stroke="#36DDAB" stroke-width="7" stroke-linecap="round"/>
<defs>
<filter id="filter0_d_1961_52512" x="38.5" y="5.67969" width="103.283" height="103.285" filterUnits="userSpaceOnUse" color-interpolation-filters="sRGB">
<feFlood flood-opacity="0" result="BackgroundImageFix"/>
<feColorMatrix in="SourceAlpha" type="matrix" values="0 0 0 0 0 0 0 0 0 0 0 0 0 0 0 0 0 0 127 0" result="hardAlpha"/>
<feMorphology radius="3" operator="dilate" in="SourceAlpha" result="effect1_dropShadow_1961_52512"/>
<feOffset dx="2" dy="2"/>
<feGaussianBlur stdDeviation="2"/>
<feComposite in2="hardAlpha" operator="out"/>
<feColorMatrix type="matrix" values="0 0 0 0 0 0 0 0 0 0 0 0 0 0 0 0 0 0 0.25 0"/>
<feBlend mode="normal" in2="BackgroundImageFix" result="effect1_dropShadow_1961_52512"/>
<feBlend mode="normal" in="SourceGraphic" in2="effect1_dropShadow_1961_52512" result="shape"/>
</filter>
<filter id="filter1_d_1961_52512" x="97.1416" y="101.715" width="45.7334" height="44.3438" filterUnits="userSpaceOnUse" color-interpolation-filters="sRGB">
<feFlood flood-opacity="0" result="BackgroundImageFix"/>
<feColorMatrix in="SourceAlpha" type="matrix" values="0 0 0 0 0 0 0 0 0 0 0 0 0 0 0 0 0 0 127 0" result="hardAlpha"/>
<feOffset dy="3"/>
<feGaussianBlur stdDeviation="5"/>
<feComposite in2="hardAlpha" operator="out"/>
<feColorMatrix type="matrix" values="0 0 0 0 0 0 0 0 0 0 0 0 0 0 0 0 0 0 0.25 0"/>
<feBlend mode="normal" in2="BackgroundImageFix" result="effect1_dropShadow_1961_52512"/>
<feBlend mode="normal" in="SourceGraphic" in2="effect1_dropShadow_1961_52512" result="shape"/>
</filter>
<filter id="filter2_d_1961_52512" x="33.125" y="101.715" width="45.7334" height="44.3438" filterUnits="userSpaceOnUse" color-interpolation-filters="sRGB">
<feFlood flood-opacity="0" result="BackgroundImageFix"/>
<feColorMatrix in="SourceAlpha" type="matrix" values="0 0 0 0 0 0 0 0 0 0 0 0 0 0 0 0 0 0 127 0" result="hardAlpha"/>
<feOffset dy="3"/>
<feGaussianBlur stdDeviation="5"/>
<feComposite in2="hardAlpha" operator="out"/>
<feColorMatrix type="matrix" values="0 0 0 0 0 0 0 0 0 0 0 0 0 0 0 0 0 0 0.25 0"/>
<feBlend mode="normal" in2="BackgroundImageFix" result="effect1_dropShadow_1961_52512"/>
<feBlend mode="normal" in="SourceGraphic" in2="effect1_dropShadow_1961_52512" result="shape"/>
</filter>
</defs>
</svg>
