<svg width="292" height="121" viewBox="0 0 292 121" fill="none" xmlns="http://www.w3.org/2000/svg">
<g filter="url(#filter0_d_515_21403)">
<rect width="48.8052" height="74.8843" rx="5.33081" transform="matrix(0.999391 -0.0348995 0.0349978 0.999387 15 39.7041)" fill="#36DDAB"/>
<g filter="url(#filter1_d_515_21403)">
<rect width="48.8052" height="74.8843" rx="5.33081" transform="matrix(0.999391 -0.0348995 0.0349978 0.999387 15 39.7041)" fill="url(#paint0_linear_515_21403)" fill-opacity="0.7" shape-rendering="crispEdges"/>
</g>
</g>
<g filter="url(#filter2_d_515_21403)">
<rect width="48.8052" height="74.8843" rx="5.33081" transform="matrix(0.999391 0.0348995 -0.0348012 0.999394 76.7715 38)" fill="#36DDAB"/>
<g filter="url(#filter3_d_515_21403)">
<rect width="48.8052" height="74.8843" rx="5.33081" transform="matrix(0.999391 0.0348995 -0.0348012 0.999394 76.7715 38)" fill="url(#paint1_linear_515_21403)" fill-opacity="0.7" shape-rendering="crispEdges"/>
</g>
</g>
<path d="M32.1662 104.497L39.3302 104.247L39.2648 102.375L35.8821 102.493L37.7898 100.66C38.1412 100.333 38.4231 99.9769 38.6354 99.5905C38.8474 99.196 38.9454 98.7692 38.9294 98.3102C38.9181 97.988 38.8386 97.6723 38.6907 97.3629C38.5428 97.0536 38.3274 96.7749 38.0446 96.5267C37.7695 96.2702 37.428 96.0725 37.0199 95.9335C36.6116 95.7865 36.1457 95.7221 35.6222 95.7404C34.8973 95.7657 34.2864 95.9362 33.7894 96.2519C33.3004 96.5674 32.9398 96.9791 32.7076 97.4872C32.4754 97.9953 32.3698 98.5513 32.3909 99.1554L34.3963 99.0853C34.3856 98.7793 34.4245 98.5078 34.513 98.2708C34.6096 98.0336 34.7523 97.8472 34.9411 97.7116C35.1379 97.5757 35.3652 97.5032 35.6229 97.4942C35.8162 97.4875 35.9865 97.5138 36.1337 97.5732C36.2806 97.6245 36.4043 97.7008 36.5046 97.8021C36.6046 97.8954 36.681 98.0056 36.7338 98.1328C36.7867 98.26 36.8153 98.388 36.8198 98.5169C36.8277 98.7424 36.7909 98.9574 36.7093 99.1618C36.6355 99.3579 36.5176 99.5596 36.3555 99.7669C36.2014 99.9738 36.016 100.206 35.7992 100.464L32.1662 104.497ZM40.6335 103.379C40.6442 103.685 40.762 103.943 40.9871 104.153C41.2121 104.363 41.4857 104.462 41.8079 104.451C42.1462 104.439 42.4162 104.321 42.618 104.096C42.8198 103.871 42.9154 103.606 42.9047 103.3C42.894 102.994 42.7802 102.736 42.5632 102.526C42.3462 102.315 42.0686 102.216 41.7303 102.228C41.4081 102.239 41.1421 102.358 40.9322 102.583C40.7224 102.808 40.6228 103.073 40.6335 103.379ZM43.8798 97.5325L47.782 97.3962L44.7125 104.059L46.9234 103.982L50.7114 95.3828L43.8132 95.6237L43.8798 97.5325Z" fill="white"/>
<path d="M91.3126 99.6807C91.3264 99.286 91.3751 98.9289 91.4589 98.6092C91.5429 98.2816 91.6573 98.0074 91.8021 97.7866C91.9472 97.5578 92.1144 97.3863 92.3039 97.2719C92.5017 97.1498 92.7174 97.0928 92.9509 97.101C93.1845 97.1091 93.3917 97.1809 93.5724 97.3162C93.7615 97.4438 93.9204 97.6267 94.0492 97.8651C94.1782 98.0954 94.2732 98.3769 94.3342 98.7097C94.3954 99.0343 94.4191 99.394 94.4053 99.7887C94.3916 100.183 94.3427 100.544 94.2586 100.872C94.1749 101.192 94.0605 101.466 93.9154 101.695C93.7706 101.916 93.5993 102.087 93.4015 102.209C93.2121 102.323 93.0006 102.376 92.767 102.368C92.5334 102.36 92.3221 102.292 92.133 102.165C91.9523 102.029 91.7974 101.847 91.6683 101.616C91.5396 101.378 91.4446 101.096 91.3834 100.772C91.3224 100.439 91.2988 100.075 91.3126 99.6807ZM89.3434 99.6119C89.3113 100.53 89.4289 101.32 89.696 101.983C89.9713 102.646 90.3685 103.164 90.8876 103.536C91.4071 103.901 92.0132 104.096 92.7058 104.12C93.4307 104.145 94.0609 103.994 94.5965 103.666C95.1324 103.33 95.5527 102.841 95.8574 102.198C96.1701 101.556 96.3425 100.776 96.3745 99.8574C96.4066 98.9393 96.2891 98.1489 96.0219 97.4864C95.7628 96.8242 95.3775 96.3108 94.8661 95.9462C94.355 95.5735 93.737 95.3746 93.0121 95.3492C92.3195 95.3251 91.7012 95.4809 91.1572 95.8167C90.6136 96.1444 90.1813 96.6293 89.8606 97.2713C89.5478 97.9135 89.3754 98.6937 89.3434 99.6119ZM97.5496 103.309C97.5389 103.616 97.6385 103.881 97.8483 104.106C98.0582 104.331 98.3242 104.449 98.6464 104.461C98.9846 104.472 99.2623 104.373 99.4793 104.163C99.6963 103.953 99.8101 103.695 99.8208 103.389C99.8315 103.083 99.7359 102.817 99.5341 102.593C99.3323 102.368 99.0623 102.249 98.724 102.238C98.4018 102.226 98.1282 102.326 97.9032 102.536C97.6781 102.745 97.5603 103.003 97.5496 103.309ZM106.257 98.9446C106.247 99.2265 106.174 99.4739 106.037 99.6868C105.909 99.9001 105.734 100.063 105.512 100.177C105.299 100.29 105.059 100.342 104.793 100.333C104.519 100.323 104.276 100.254 104.063 100.126C103.857 99.9978 103.694 99.8227 103.573 99.6008C103.46 99.3791 103.408 99.1273 103.418 98.8454C103.428 98.5555 103.497 98.3079 103.625 98.1027C103.762 97.8898 103.937 97.7306 104.15 97.6251C104.372 97.5119 104.619 97.4601 104.893 97.4696C105.159 97.4789 105.394 97.5476 105.6 97.6757C105.813 97.7961 105.977 97.9671 106.09 98.1888C106.211 98.4027 106.267 98.6546 106.257 98.9446ZM104.665 104.344L107.214 101.325C107.5 100.996 107.742 100.641 107.941 100.261C108.147 99.8815 108.259 99.466 108.274 99.015C108.299 98.3143 108.162 97.7249 107.864 97.2468C107.575 96.769 107.172 96.4042 106.657 96.1523C106.15 95.8927 105.582 95.7519 104.954 95.73C104.318 95.7078 103.734 95.8083 103.202 96.0317C102.678 96.2472 102.251 96.5831 101.921 97.0393C101.598 97.4957 101.425 98.0743 101.4 98.775C101.385 99.2018 101.449 99.5871 101.59 99.9307C101.731 100.274 101.922 100.571 102.163 100.822C102.405 101.064 102.677 101.255 102.978 101.394C103.288 101.526 103.6 101.598 103.914 101.608C104.22 101.619 104.475 101.596 104.679 101.538C104.89 101.473 105.113 101.336 105.346 101.126L104.929 101.293L102.08 104.254L104.665 104.344Z" fill="white"/>
<path d="M63.6002 5.2L61.6834 8.882L59.7642 5.2H57.0482L60.4801 11.024L60.4814 15H62.8894L62.8881 11.01L66.3162 5.2H63.6002ZM68.9116 15H73.8536L73.853 13.054H68.911L68.9116 15ZM68.9091 7.146H73.8511L73.8504 5.2H68.9084L68.9091 7.146ZM68.9102 10.8H73.5722L73.5716 8.896H68.9096L68.9102 10.8ZM67.3404 5.2L67.3436 15H69.6116L69.6084 5.2H67.3404ZM76.856 11.556L75.2044 12.746C75.4286 13.2127 75.7414 13.642 76.1428 14.034C76.5443 14.426 77.0157 14.7387 77.5572 14.972C78.1079 15.196 78.7006 15.308 79.3353 15.308C79.7926 15.308 80.2359 15.238 80.6652 15.098C81.1038 14.9673 81.4911 14.7713 81.827 14.51C82.1723 14.2487 82.4428 13.9267 82.6387 13.544C82.8439 13.152 82.9464 12.7087 82.9463 12.214C82.9461 11.8033 82.8807 11.4393 82.7499 11.122C82.6191 10.8047 82.437 10.5247 82.2036 10.282C81.9795 10.0393 81.7181 9.834 81.4194 9.666C81.1207 9.48867 80.7987 9.33467 80.4533 9.204C79.9959 9.04533 79.6038 8.896 79.2771 8.756C78.9598 8.616 78.7124 8.462 78.535 8.294C78.3669 8.126 78.2829 7.93 78.2828 7.706C78.2827 7.49133 78.3713 7.314 78.5486 7.174C78.7259 7.02467 78.9825 6.95 79.3185 6.95C79.5705 6.95 79.8039 7.00133 80.0186 7.104C80.2426 7.19733 80.4433 7.33267 80.6207 7.51C80.8074 7.678 80.9708 7.87867 81.1109 8.112L82.9166 7.104C82.7485 6.768 82.5057 6.43667 82.1883 6.11C81.8708 5.78333 81.4694 5.51267 80.984 5.298C80.5079 5.08333 79.9432 4.976 79.2899 4.976C78.6552 4.976 78.0766 5.088 77.554 5.312C77.0407 5.52667 76.6302 5.844 76.3223 6.264C76.0238 6.684 75.8746 7.18333 75.8748 7.762C75.875 8.24733 75.9638 8.66267 76.1412 9.008C76.3187 9.344 76.5427 9.63333 76.8135 9.876C77.0842 10.1093 77.369 10.3007 77.6677 10.45C77.9757 10.5993 78.2464 10.716 78.4798 10.8C78.9559 10.9773 79.3386 11.136 79.628 11.276C79.9173 11.416 80.1274 11.5653 80.2581 11.724C80.3888 11.8733 80.4542 12.074 80.4543 12.326C80.4544 12.6247 80.3425 12.8627 80.1185 13.04C79.8946 13.208 79.6099 13.292 79.2646 13.292C78.9379 13.292 78.6253 13.222 78.3265 13.082C78.0372 12.942 77.7664 12.7413 77.5143 12.48C77.2716 12.2187 77.0522 11.9107 76.856 11.556Z" fill="#36DDAB"/>
<g filter="url(#filter4_d_515_21403)">
<rect width="48.8052" height="74.8843" rx="5.33081" transform="matrix(0.999391 -0.0348995 0.0349978 0.999387 175.555 39.7041)" fill="#36DDAB"/>
<g filter="url(#filter5_d_515_21403)">
<rect width="48.8052" height="74.8843" rx="5.33081" transform="matrix(0.999391 -0.0348995 0.0349978 0.999387 175.555 39.7041)" fill="url(#paint2_linear_515_21403)" fill-opacity="0.7" shape-rendering="crispEdges"/>
</g>
</g>
<g filter="url(#filter6_d_515_21403)">
<rect width="48.8052" height="74.8843" rx="5.33081" transform="matrix(0.999391 0.0348995 -0.0348012 0.999394 237.326 38)" fill="#36DDAB"/>
<g filter="url(#filter7_d_515_21403)">
<rect width="48.8052" height="74.8843" rx="5.33081" transform="matrix(0.999391 0.0348995 -0.0348012 0.999394 237.326 38)" fill="url(#paint3_linear_515_21403)" fill-opacity="0.7" shape-rendering="crispEdges"/>
</g>
</g>
<path d="M224.154 5.2L222.237 8.882L220.318 5.2H217.602L221.034 11.024L221.035 15H223.443L223.442 11.01L226.87 5.2H224.154ZM229.465 15H234.407L234.407 13.054H229.465L229.465 15ZM229.463 7.146H234.405L234.404 5.2H229.462L229.463 7.146ZM229.464 10.8H234.126L234.125 8.896H229.463L229.464 10.8ZM227.894 5.2L227.897 15H230.165L230.162 5.2H227.894ZM237.41 11.556L235.758 12.746C235.982 13.2127 236.295 13.642 236.697 14.034C237.098 14.426 237.569 14.7387 238.111 14.972C238.662 15.196 239.254 15.308 239.889 15.308C240.346 15.308 240.79 15.238 241.219 15.098C241.658 14.9673 242.045 14.7713 242.381 14.51C242.726 14.2487 242.997 13.9267 243.192 13.544C243.398 13.152 243.5 12.7087 243.5 12.214C243.5 11.8033 243.434 11.4393 243.304 11.122C243.173 10.8047 242.991 10.5247 242.757 10.282C242.533 10.0393 242.272 9.834 241.973 9.666C241.674 9.48867 241.352 9.33467 241.007 9.204C240.55 9.04533 240.158 8.896 239.831 8.756C239.513 8.616 239.266 8.462 239.089 8.294C238.921 8.126 238.837 7.93 238.837 7.706C238.836 7.49133 238.925 7.314 239.102 7.174C239.28 7.02467 239.536 6.95 239.872 6.95C240.124 6.95 240.358 7.00133 240.572 7.104C240.796 7.19733 240.997 7.33267 241.174 7.51C241.361 7.678 241.525 7.87867 241.665 8.112L243.47 7.104C243.302 6.768 243.059 6.43667 242.742 6.11C242.425 5.78333 242.023 5.51267 241.538 5.298C241.062 5.08333 240.497 4.976 239.844 4.976C239.209 4.976 238.63 5.088 238.108 5.312C237.594 5.52667 237.184 5.844 236.876 6.264C236.578 6.684 236.428 7.18333 236.429 7.762C236.429 8.24733 236.517 8.66267 236.695 9.008C236.872 9.344 237.096 9.63333 237.367 9.876C237.638 10.1093 237.923 10.3007 238.221 10.45C238.529 10.5993 238.8 10.716 239.034 10.8C239.51 10.9773 239.892 11.136 240.182 11.276C240.471 11.416 240.681 11.5653 240.812 11.724C240.943 11.8733 241.008 12.074 241.008 12.326C241.008 12.6247 240.896 12.8627 240.672 13.04C240.448 13.208 240.164 13.292 239.818 13.292C239.492 13.292 239.179 13.222 238.88 13.082C238.591 12.942 238.32 12.7413 238.068 12.48C237.825 12.2187 237.606 11.9107 237.41 11.556Z" fill="#36DDAB"/>
<defs>
<filter id="filter0_d_515_21403" x="0.888017" y="31.8302" width="65.325" height="88.8831" filterUnits="userSpaceOnUse" color-interpolation-filters="sRGB">
<feFlood flood-opacity="0" result="BackgroundImageFix"/>
<feColorMatrix in="SourceAlpha" type="matrix" values="0 0 0 0 0 0 0 0 0 0 0 0 0 0 0 0 0 0 127 0" result="hardAlpha"/>
<feOffset dx="-7.94178"/>
<feGaussianBlur stdDeviation="3.17671"/>
<feComposite in2="hardAlpha" operator="out"/>
<feColorMatrix type="matrix" values="0 0 0 0 0 0 0 0 0 0 0 0 0 0 0 0 0 0 0.1 0"/>
<feBlend mode="normal" in2="BackgroundImageFix" result="effect1_dropShadow_515_21403"/>
<feBlend mode="normal" in="SourceGraphic" in2="effect1_dropShadow_515_21403" result="shape"/>
</filter>
<filter id="filter1_d_515_21403" x="13.2815" y="36.2819" width="58.6367" height="83.7832" filterUnits="userSpaceOnUse" color-interpolation-filters="sRGB">
<feFlood flood-opacity="0" result="BackgroundImageFix"/>
<feColorMatrix in="SourceAlpha" type="matrix" values="0 0 0 0 0 0 0 0 0 0 0 0 0 0 0 0 0 0 127 0" result="hardAlpha"/>
<feOffset dx="1.90173" dy="1.90173"/>
<feGaussianBlur stdDeviation="1.90173"/>
<feComposite in2="hardAlpha" operator="out"/>
<feColorMatrix type="matrix" values="0 0 0 0 0 0 0 0 0 0 0 0 0 0 0 0 0 0 0.05 0"/>
<feBlend mode="normal" in2="BackgroundImageFix" result="effect1_dropShadow_515_21403"/>
<feBlend mode="normal" in="SourceGraphic" in2="effect1_dropShadow_515_21403" result="shape"/>
</filter>
<filter id="filter2_d_515_21403" x="60.0524" y="31.8292" width="65.3123" height="88.8836" filterUnits="userSpaceOnUse" color-interpolation-filters="sRGB">
<feFlood flood-opacity="0" result="BackgroundImageFix"/>
<feColorMatrix in="SourceAlpha" type="matrix" values="0 0 0 0 0 0 0 0 0 0 0 0 0 0 0 0 0 0 127 0" result="hardAlpha"/>
<feOffset dx="-7.94178"/>
<feGaussianBlur stdDeviation="3.17671"/>
<feComposite in2="hardAlpha" operator="out"/>
<feColorMatrix type="matrix" values="0 0 0 0 0 0 0 0 0 0 0 0 0 0 0 0 0 0 0.1 0"/>
<feBlend mode="normal" in2="BackgroundImageFix" result="effect1_dropShadow_515_21403"/>
<feBlend mode="normal" in="SourceGraphic" in2="effect1_dropShadow_515_21403" result="shape"/>
</filter>
<filter id="filter3_d_515_21403" x="72.4459" y="36.2809" width="58.624" height="83.7837" filterUnits="userSpaceOnUse" color-interpolation-filters="sRGB">
<feFlood flood-opacity="0" result="BackgroundImageFix"/>
<feColorMatrix in="SourceAlpha" type="matrix" values="0 0 0 0 0 0 0 0 0 0 0 0 0 0 0 0 0 0 127 0" result="hardAlpha"/>
<feOffset dx="1.90173" dy="1.90173"/>
<feGaussianBlur stdDeviation="1.90173"/>
<feComposite in2="hardAlpha" operator="out"/>
<feColorMatrix type="matrix" values="0 0 0 0 0 0 0 0 0 0 0 0 0 0 0 0 0 0 0.05 0"/>
<feBlend mode="normal" in2="BackgroundImageFix" result="effect1_dropShadow_515_21403"/>
<feBlend mode="normal" in="SourceGraphic" in2="effect1_dropShadow_515_21403" result="shape"/>
</filter>
<filter id="filter4_d_515_21403" x="161.443" y="31.8302" width="65.325" height="88.8831" filterUnits="userSpaceOnUse" color-interpolation-filters="sRGB">
<feFlood flood-opacity="0" result="BackgroundImageFix"/>
<feColorMatrix in="SourceAlpha" type="matrix" values="0 0 0 0 0 0 0 0 0 0 0 0 0 0 0 0 0 0 127 0" result="hardAlpha"/>
<feOffset dx="-7.94178"/>
<feGaussianBlur stdDeviation="3.17671"/>
<feComposite in2="hardAlpha" operator="out"/>
<feColorMatrix type="matrix" values="0 0 0 0 0 0 0 0 0 0 0 0 0 0 0 0 0 0 0.1 0"/>
<feBlend mode="normal" in2="BackgroundImageFix" result="effect1_dropShadow_515_21403"/>
<feBlend mode="normal" in="SourceGraphic" in2="effect1_dropShadow_515_21403" result="shape"/>
</filter>
<filter id="filter5_d_515_21403" x="173.836" y="36.2819" width="58.6367" height="83.7832" filterUnits="userSpaceOnUse" color-interpolation-filters="sRGB">
<feFlood flood-opacity="0" result="BackgroundImageFix"/>
<feColorMatrix in="SourceAlpha" type="matrix" values="0 0 0 0 0 0 0 0 0 0 0 0 0 0 0 0 0 0 127 0" result="hardAlpha"/>
<feOffset dx="1.90173" dy="1.90173"/>
<feGaussianBlur stdDeviation="1.90173"/>
<feComposite in2="hardAlpha" operator="out"/>
<feColorMatrix type="matrix" values="0 0 0 0 0 0 0 0 0 0 0 0 0 0 0 0 0 0 0.05 0"/>
<feBlend mode="normal" in2="BackgroundImageFix" result="effect1_dropShadow_515_21403"/>
<feBlend mode="normal" in="SourceGraphic" in2="effect1_dropShadow_515_21403" result="shape"/>
</filter>
<filter id="filter6_d_515_21403" x="220.607" y="31.8292" width="65.3123" height="88.8836" filterUnits="userSpaceOnUse" color-interpolation-filters="sRGB">
<feFlood flood-opacity="0" result="BackgroundImageFix"/>
<feColorMatrix in="SourceAlpha" type="matrix" values="0 0 0 0 0 0 0 0 0 0 0 0 0 0 0 0 0 0 127 0" result="hardAlpha"/>
<feOffset dx="-7.94178"/>
<feGaussianBlur stdDeviation="3.17671"/>
<feComposite in2="hardAlpha" operator="out"/>
<feColorMatrix type="matrix" values="0 0 0 0 0 0 0 0 0 0 0 0 0 0 0 0 0 0 0.1 0"/>
<feBlend mode="normal" in2="BackgroundImageFix" result="effect1_dropShadow_515_21403"/>
<feBlend mode="normal" in="SourceGraphic" in2="effect1_dropShadow_515_21403" result="shape"/>
</filter>
<filter id="filter7_d_515_21403" x="233.001" y="36.2809" width="58.624" height="83.7837" filterUnits="userSpaceOnUse" color-interpolation-filters="sRGB">
<feFlood flood-opacity="0" result="BackgroundImageFix"/>
<feColorMatrix in="SourceAlpha" type="matrix" values="0 0 0 0 0 0 0 0 0 0 0 0 0 0 0 0 0 0 127 0" result="hardAlpha"/>
<feOffset dx="1.90173" dy="1.90173"/>
<feGaussianBlur stdDeviation="1.90173"/>
<feComposite in2="hardAlpha" operator="out"/>
<feColorMatrix type="matrix" values="0 0 0 0 0 0 0 0 0 0 0 0 0 0 0 0 0 0 0.05 0"/>
<feBlend mode="normal" in2="BackgroundImageFix" result="effect1_dropShadow_515_21403"/>
<feBlend mode="normal" in="SourceGraphic" in2="effect1_dropShadow_515_21403" result="shape"/>
</filter>
<linearGradient id="paint0_linear_515_21403" x1="39.5391" y1="18.2026" x2="11.0707" y2="38.8432" gradientUnits="userSpaceOnUse">
<stop stop-color="#36DDAB"/>
<stop offset="1" stop-color="white" stop-opacity="0"/>
</linearGradient>
<linearGradient id="paint1_linear_515_21403" x1="39.5391" y1="18.2026" x2="11.0707" y2="38.8432" gradientUnits="userSpaceOnUse">
<stop stop-color="#36DDAB"/>
<stop offset="1" stop-color="white" stop-opacity="0"/>
</linearGradient>
<linearGradient id="paint2_linear_515_21403" x1="39.5391" y1="18.2026" x2="11.0707" y2="38.8432" gradientUnits="userSpaceOnUse">
<stop stop-color="#36DDAB"/>
<stop offset="1" stop-color="white" stop-opacity="0"/>
</linearGradient>
<linearGradient id="paint3_linear_515_21403" x1="39.5391" y1="18.2026" x2="11.0707" y2="38.8432" gradientUnits="userSpaceOnUse">
<stop stop-color="#36DDAB"/>
<stop offset="1" stop-color="white" stop-opacity="0"/>
</linearGradient>
</defs>
</svg>
