<svg width="300" height="123" viewBox="0 0 300 123" fill="none" xmlns="http://www.w3.org/2000/svg">
<g filter="url(#filter0_d_515_21453)">
<rect width="26.9032" height="41.4313" rx="2.94219" transform="matrix(0.996171 -0.0874211 0.0879312 0.996127 241.764 56.0127)" fill="white"/>
</g>
<rect width="26.9039" height="41.4303" rx="2.94219" transform="matrix(0.998308 -0.0581545 0.0574579 0.998348 247.226 55.761)" fill="#36DDAB"/>
<g filter="url(#filter1_d_515_21453)">
<rect width="26.9039" height="41.4303" rx="2.94219" transform="matrix(0.998308 -0.0581545 0.0574579 0.998348 247.226 55.761)" fill="url(#paint0_linear_515_21453)" fill-opacity="0.7" shape-rendering="crispEdges"/>
</g>
<g filter="url(#filter2_d_515_21453)">
<rect width="26.9032" height="41.4313" rx="2.94219" transform="matrix(0.996171 -0.0874211 0.0879312 0.996127 251.486 56.0127)" fill="white"/>
</g>
<rect width="26.9042" height="41.4298" rx="2.94219" transform="matrix(0.995766 0.0919271 -0.09201 0.995758 260.76 53.3953)" fill="#36DDAB"/>
<g filter="url(#filter3_d_515_21453)">
<rect width="26.9042" height="41.4298" rx="2.94219" transform="matrix(0.995766 0.0919271 -0.09201 0.995758 260.76 53.3953)" fill="url(#paint1_linear_515_21453)" fill-opacity="0.7" shape-rendering="crispEdges"/>
</g>
<g filter="url(#filter4_d_515_21453)">
<rect width="26.9032" height="41.4313" rx="2.94219" transform="matrix(0.996171 -0.0874211 0.0879312 0.996127 262.569 56.2212)" fill="white"/>
</g>
<rect width="26.9038" height="41.4305" rx="2.94219" transform="matrix(0.999528 -0.0307117 0.0301267 0.999546 267.86 56.5376)" fill="#36DDAB"/>
<g filter="url(#filter5_d_515_21453)">
<rect width="26.9038" height="41.4305" rx="2.94219" transform="matrix(0.999528 -0.0307117 0.0301267 0.999546 267.86 56.5376)" fill="url(#paint2_linear_515_21453)" fill-opacity="0.7" shape-rendering="crispEdges"/>
</g>
<path d="M245.02 9.98082L243.57 11.024C243.766 11.4331 244.039 11.8095 244.391 12.1531C244.742 12.4968 245.155 12.7709 245.629 12.9754C246.112 13.1718 246.631 13.27 247.187 13.27C247.588 13.27 247.977 13.2086 248.354 13.0859C248.738 12.9714 249.078 12.7995 249.373 12.5704C249.676 12.3413 249.914 12.0591 250.086 11.7236C250.266 11.3799 250.357 10.9913 250.358 10.5577C250.358 10.1976 250.301 9.87854 250.187 9.60035C250.073 9.32216 249.914 9.0767 249.709 8.86397C249.513 8.65124 249.284 8.47123 249.023 8.32396C248.761 8.1685 248.479 8.03349 248.177 7.91894C247.776 7.77985 247.432 7.64894 247.146 7.52621C246.868 7.40348 246.651 7.26847 246.496 7.1212C246.349 6.97392 246.276 6.8021 246.276 6.60573C246.276 6.41754 246.354 6.26208 246.51 6.13935C246.665 6.00844 246.891 5.94298 247.185 5.94298C247.406 5.94298 247.611 5.98798 247.799 6.07799C247.995 6.15981 248.171 6.27845 248.326 6.43391C248.489 6.58118 248.632 6.7571 248.755 6.96165L250.339 6.07799C250.192 5.78343 249.98 5.49297 249.702 5.2066C249.424 4.92023 249.073 4.68295 248.648 4.49476C248.231 4.30658 247.736 4.21248 247.163 4.21248C246.607 4.21248 246.099 4.31067 245.641 4.50704C245.19 4.69522 244.83 4.97341 244.56 5.3416C244.297 5.7098 244.166 6.14753 244.165 6.65482C244.164 7.08029 244.242 7.44439 244.397 7.74712C244.552 8.04168 244.748 8.29532 244.985 8.50805C245.222 8.7126 245.471 8.88033 245.733 9.01125C246.003 9.14216 246.24 9.24443 246.444 9.31807C246.861 9.47353 247.196 9.61263 247.45 9.73536C247.703 9.85809 247.887 9.989 248.002 10.1281C248.116 10.259 248.173 10.4349 248.173 10.6558C248.172 10.9177 248.074 11.1263 247.877 11.2818C247.681 11.429 247.431 11.5027 247.128 11.5027C246.842 11.5027 246.568 11.4413 246.306 11.3186C246.053 11.1958 245.816 11.0199 245.595 10.7908C245.383 10.5617 245.191 10.2917 245.02 9.98082ZM253.453 8.70442C253.454 8.19713 253.552 7.75121 253.749 7.36666C253.954 6.97392 254.237 6.66709 254.597 6.44618C254.966 6.22526 255.396 6.11481 255.887 6.11481C256.386 6.11481 256.815 6.22526 257.175 6.44618C257.534 6.66709 257.812 6.97392 258.008 7.36666C258.204 7.75121 258.301 8.19713 258.301 8.70442C258.3 9.21171 258.197 9.66172 257.992 10.0545C257.795 10.439 257.512 10.7417 257.144 10.9627C256.784 11.1836 256.362 11.294 255.879 11.294C255.388 11.294 254.959 11.1836 254.591 10.9627C254.231 10.7417 253.95 10.439 253.746 10.0545C253.55 9.66172 253.452 9.21171 253.453 8.70442ZM251.256 8.70442C251.255 9.36717 251.365 9.97673 251.585 10.5331C251.813 11.0895 252.132 11.5722 252.54 11.9813C252.957 12.3904 253.447 12.7095 254.012 12.9386C254.576 13.1595 255.198 13.27 255.877 13.27C256.548 13.27 257.165 13.1595 257.73 12.9386C258.295 12.7095 258.783 12.3904 259.192 11.9813C259.61 11.5722 259.93 11.0895 260.151 10.5331C260.381 9.97673 260.497 9.36717 260.498 8.70442C260.499 8.04168 260.385 7.43621 260.156 6.88801C259.928 6.33981 259.606 5.86525 259.189 5.46433C258.772 5.06342 258.282 4.75659 257.717 4.54386C257.161 4.32294 256.552 4.21248 255.889 4.21248C255.235 4.21248 254.625 4.32294 254.06 4.54386C253.495 4.75659 253.004 5.06342 252.586 5.46433C252.168 5.86525 251.84 6.33981 251.602 6.88801C251.372 7.43621 251.257 8.04168 251.256 8.70442ZM267.053 8.72897H268.66C269.258 8.72897 269.781 8.64715 270.232 8.48351C270.69 8.31168 271.05 8.06622 271.313 7.74712C271.583 7.42802 271.719 7.04347 271.719 6.59346C271.72 6.10253 271.585 5.69752 271.316 5.37842C271.055 5.05114 270.695 4.80977 270.237 4.65431C269.787 4.49067 269.264 4.40885 268.666 4.40885H265.512L265.5 13H268.863C269.542 13 270.131 12.9182 270.631 12.7545C271.13 12.5827 271.515 12.3209 271.785 11.9691C272.064 11.6172 272.204 11.1549 272.205 10.5822C272.205 10.1485 272.108 9.78036 271.912 9.47762C271.724 9.16671 271.471 8.91306 271.152 8.71669C270.833 8.51214 270.477 8.36487 270.085 8.27486C269.692 8.18486 269.287 8.13986 268.87 8.13986H267.053L267.052 9.26898H268.635C268.84 9.26898 269.024 9.28944 269.187 9.33035C269.359 9.36307 269.51 9.42035 269.641 9.50217C269.772 9.58399 269.874 9.69036 269.947 9.82127C270.021 9.95218 270.058 10.1076 270.057 10.2876C270.057 10.5658 269.991 10.7867 269.86 10.9504C269.737 11.1058 269.569 11.2204 269.356 11.294C269.144 11.3595 268.902 11.3922 268.632 11.3922H267.577L267.584 6.01662H268.443C268.803 6.01662 269.081 6.09026 269.277 6.23754C269.474 6.38481 269.571 6.60573 269.571 6.90028C269.571 7.09665 269.526 7.26438 269.435 7.40348C269.345 7.53439 269.214 7.63666 269.042 7.7103C268.878 7.78394 268.678 7.82076 268.441 7.82076H267.054L267.053 8.72897ZM274.823 11.3431H279.364L279.231 9.7599H274.972L274.823 11.3431ZM277.074 7.56303L278.285 10.349L278.211 10.8768L279.239 13H281.595L277.079 3.86884L272.55 13H274.894L275.965 10.7908L275.867 10.3367L277.074 7.56303ZM282.507 4.40885L282.496 13H284.631L284.643 4.40885H282.507ZM285.564 13C286.505 13 287.319 12.8241 288.007 12.4722C288.695 12.1204 289.227 11.6254 289.604 10.9872C289.982 10.3408 290.171 9.5799 290.172 8.70442C290.173 7.82076 289.986 7.05983 289.611 6.42163C289.235 5.78343 288.704 5.28842 288.017 4.93659C287.33 4.58477 286.517 4.40885 285.576 4.40885H283.882L283.879 6.24981H285.499C285.827 6.24981 286.142 6.29072 286.444 6.37254C286.755 6.45436 287.025 6.58936 287.254 6.77755C287.491 6.96574 287.679 7.21938 287.817 7.53848C287.956 7.8494 288.025 8.23804 288.024 8.70442C288.024 9.1708 287.954 9.56353 287.814 9.88263C287.675 10.1936 287.486 10.4431 287.249 10.6313C287.019 10.8195 286.749 10.9545 286.438 11.0363C286.135 11.1181 285.82 11.159 285.493 11.159H283.873L283.87 13H285.564Z" fill="#FF70FE"/>
<g filter="url(#filter6_d_515_21453)">
<rect width="26.9038" height="41.4304" rx="2.94219" transform="matrix(0.999873 -0.0164502 0.0160364 0.999864 26.8894 77.4543)" fill="#36DDAB"/>
<g filter="url(#filter7_d_515_21453)">
<rect width="26.9038" height="41.4304" rx="2.94219" transform="matrix(0.999873 -0.0164502 0.0160364 0.999864 26.8894 77.4543)" fill="url(#paint3_linear_515_21453)" fill-opacity="0.7" shape-rendering="crispEdges"/>
</g>
</g>
<g filter="url(#filter8_d_515_21453)">
<rect width="26.9038" height="41.4304" rx="2.94219" transform="matrix(0.999927 -0.0127233 0.0123248 0.999916 62.0095 77.2546)" fill="#36DDAB"/>
<g filter="url(#filter9_d_515_21453)">
<rect width="26.9038" height="41.4304" rx="2.94219" transform="matrix(0.999927 -0.0127233 0.0123248 0.999916 62.0095 77.2546)" fill="url(#paint4_linear_515_21453)" fill-opacity="0.7" shape-rendering="crispEdges"/>
</g>
</g>
<g filter="url(#filter10_d_515_21453)">
<rect width="26.9043" height="41.4297" rx="2.94219" transform="matrix(0.99965 -0.0266867 0.0259885 0.999656 8.33759 29.9927)" fill="#36DDAB"/>
<g filter="url(#filter11_d_515_21453)">
<rect width="26.9043" height="41.4297" rx="2.94219" transform="matrix(0.99965 -0.0266867 0.0259885 0.999656 8.33759 29.9927)" fill="url(#paint5_linear_515_21453)" fill-opacity="0.7" shape-rendering="crispEdges"/>
</g>
</g>
<g filter="url(#filter12_d_515_21453)">
<rect width="26.9042" height="41.4298" rx="2.94219" transform="matrix(0.999867 0.0162224 -0.0164316 0.999866 44.6755 29.0479)" fill="#36DDAB"/>
<g filter="url(#filter13_d_515_21453)">
<rect width="26.9042" height="41.4298" rx="2.94219" transform="matrix(0.999867 0.0162224 -0.0164316 0.999866 44.6755 29.0479)" fill="url(#paint6_linear_515_21453)" fill-opacity="0.7" shape-rendering="crispEdges"/>
</g>
</g>
<g filter="url(#filter14_d_515_21453)">
<rect width="26.9042" height="41.4298" rx="2.94219" transform="matrix(0.999986 0.00571343 -0.00557067 0.999982 78.8347 29.5562)" fill="#36DDAB"/>
<g filter="url(#filter15_d_515_21453)">
<rect width="26.9042" height="41.4298" rx="2.94219" transform="matrix(0.999986 0.00571343 -0.00557067 0.999982 78.8347 29.5562)" fill="url(#paint7_linear_515_21453)" fill-opacity="0.7" shape-rendering="crispEdges"/>
</g>
</g>
<path d="M39.5778 9.89492H41.8606C41.787 10.1158 41.6848 10.3245 41.554 10.5208C41.4313 10.709 41.28 10.8768 41.1 11.024C40.9201 11.1631 40.7033 11.2736 40.4497 11.3554C40.1961 11.429 39.9138 11.4659 39.6029 11.4659C39.0956 11.4659 38.6455 11.3554 38.2527 11.1345C37.8681 10.9054 37.5612 10.5863 37.3319 10.1772C37.1109 9.75991 37.0003 9.26899 37.0001 8.70443C36.9999 8.13169 37.1143 7.64894 37.3433 7.25621C37.5804 6.85529 37.8953 6.54846 38.288 6.33573C38.6888 6.12299 39.1265 6.01663 39.6011 6.01663C40.1002 6.01663 40.5134 6.13118 40.8408 6.36027C41.1763 6.58119 41.4423 6.86347 41.6388 7.20711L43.4795 6.24982C43.2093 5.8489 42.886 5.49707 42.5095 5.19433C42.1413 4.88341 41.7157 4.64204 41.2329 4.47022C40.7501 4.2984 40.206 4.21249 39.6005 4.21249C38.9214 4.21249 38.2914 4.31885 37.7106 4.53159C37.1297 4.74432 36.6225 5.04706 36.189 5.43979C35.7555 5.83253 35.4202 6.30709 35.1831 6.86347C34.946 7.41167 34.8275 8.02532 34.8277 8.70443C34.828 9.38354 34.9427 10.0054 35.172 10.5699C35.4095 11.1263 35.7369 11.6091 36.1543 12.0182C36.5717 12.4191 37.0668 12.73 37.6397 12.9509C38.2125 13.1636 38.8425 13.27 39.5298 13.27C40.258 13.27 40.9044 13.1432 41.4688 12.8895C42.0333 12.6277 42.5037 12.2677 42.8799 11.8095C43.2561 11.3513 43.5341 10.8236 43.7139 10.2263C43.8938 9.629 43.9631 8.98671 43.922 8.29942H39.5773L39.5778 9.89492ZM47.4624 9.10944L49.8692 13H52.2993L49.6102 9.10944H47.4624ZM45.3131 4.40886L45.3159 13H47.39L47.3873 4.40886H45.3131ZM46.6146 6.1639H48.296C48.5742 6.1639 48.8115 6.20891 49.0079 6.29891C49.2125 6.38891 49.368 6.51982 49.4744 6.69165C49.5808 6.85529 49.6341 7.05575 49.6342 7.29303C49.6342 7.53031 49.5811 7.73486 49.4748 7.90668C49.3685 8.07032 49.2131 8.19714 49.0086 8.28714C48.8122 8.36896 48.575 8.40987 48.2968 8.40987H46.6154L46.6159 10.0176H48.4446C49.1809 10.0176 49.7946 9.89901 50.2854 9.66173C50.7763 9.42445 51.1484 9.09717 51.4019 8.67988C51.6554 8.25442 51.7821 7.76758 51.7819 7.21939C51.7817 6.66301 51.6548 6.17618 51.401 5.75889C51.1472 5.33343 50.7748 5.00205 50.2838 4.76478C49.7928 4.5275 49.1791 4.40886 48.4427 4.40886H46.6141L46.6146 6.1639ZM54.6368 13H58.9692L58.9687 11.294H54.6363L54.6368 13ZM54.6346 6.11481H58.967L58.9664 4.40886H54.634L54.6346 6.11481ZM54.6356 9.31808H58.7225L58.722 7.64894H54.6351L54.6356 9.31808ZM53.2594 4.40886L53.2622 13H55.2505L55.2477 4.40886H53.2594ZM62.0067 11.3431H66.5478L66.4122 9.75991H62.1535L62.0067 11.3431ZM64.2515 7.56303L65.4674 10.349L65.3939 10.8768L66.4256 13H68.782L64.2503 3.86884L59.7367 13H62.0809L63.1479 10.7908L63.0496 10.3367L64.2515 7.56303ZM67.958 6.26209H70.3144L70.3166 13H72.3908L72.3886 6.26209H74.7573L74.7567 4.40886H67.9574L67.958 6.26209ZM75.7452 4.40886L76.1521 10.1649H77.6494L78.0403 4.40886H75.7452ZM75.7478 12.2391C75.7479 12.55 75.8543 12.8036 76.0671 13C76.2881 13.1964 76.5663 13.2946 76.9018 13.2946C77.2372 13.2946 77.5113 13.1964 77.724 13C77.9448 12.8036 78.0552 12.55 78.0551 12.2391C78.055 11.9282 77.9445 11.6745 77.7235 11.4781C77.5107 11.2818 77.2366 11.1836 76.9011 11.1836C76.5656 11.1836 76.2875 11.2818 76.0666 11.4781C75.854 11.6745 75.7477 11.9282 75.7478 12.2391Z" fill="#36DDAB"/>
<path d="M144.999 4.40885L144.993 9.24443L139.072 3.9793L139.06 13H141.048L141.054 8.16441L146.987 13.4295L147 4.40885H144.999ZM150.516 8.70442C150.516 8.19713 150.615 7.75121 150.812 7.36666C151.017 6.97392 151.3 6.66709 151.66 6.44618C152.029 6.22526 152.458 6.11481 152.949 6.11481C153.448 6.11481 153.878 6.22526 154.237 6.44618C154.597 6.66709 154.875 6.97392 155.071 7.36666C155.267 7.75121 155.364 8.19713 155.363 8.70442C155.363 9.21171 155.26 9.66172 155.055 10.0545C154.858 10.439 154.575 10.7417 154.207 10.9627C153.846 11.1836 153.425 11.294 152.942 11.294C152.451 11.294 152.022 11.1836 151.654 10.9627C151.294 10.7417 151.012 10.439 150.808 10.0545C150.612 9.66172 150.515 9.21171 150.516 8.70442ZM148.319 8.70442C148.318 9.36717 148.427 9.97673 148.648 10.5331C148.876 11.0895 149.194 11.5722 149.603 11.9813C150.02 12.3904 150.51 12.7095 151.074 12.9386C151.639 13.1595 152.26 13.27 152.939 13.27C153.61 13.27 154.228 13.1595 154.793 12.9386C155.358 12.7095 155.845 12.3904 156.255 11.9813C156.673 11.5722 156.992 11.0895 157.214 10.5331C157.444 9.97673 157.559 9.36717 157.56 8.70442C157.561 8.04168 157.448 7.43621 157.219 6.88801C156.991 6.33981 156.668 5.86525 156.252 5.46433C155.835 5.06342 155.344 4.75659 154.78 4.54386C154.224 4.32294 153.615 4.21248 152.952 4.21248C152.297 4.21248 151.688 4.32294 151.123 4.54386C150.558 4.75659 150.066 5.06342 149.649 5.46433C149.231 5.86525 148.903 6.33981 148.665 6.88801C148.435 7.43621 148.32 8.04168 148.319 8.70442ZM157.662 6.26208H160.018L160.009 13H162.083L162.093 6.26208H164.461L164.464 4.40885H157.665L157.662 6.26208ZM173.334 9.89491H175.617C175.543 10.1158 175.44 10.3245 175.309 10.5208C175.186 10.709 175.035 10.8768 174.854 11.024C174.674 11.1631 174.457 11.2736 174.203 11.3554C173.95 11.429 173.667 11.4659 173.356 11.4659C172.849 11.4659 172.399 11.3554 172.007 11.1345C171.623 10.9054 171.316 10.5863 171.088 10.1772C170.867 9.7599 170.758 9.26898 170.758 8.70442C170.759 8.13168 170.874 7.64894 171.104 7.2562C171.342 6.85528 171.657 6.54845 172.05 6.33572C172.451 6.12299 172.889 6.01662 173.364 6.01662C173.863 6.01662 174.276 6.13117 174.603 6.36027C174.938 6.58118 175.204 6.86346 175.4 7.20711L177.242 6.24981C176.972 5.84889 176.65 5.49706 176.274 5.19433C175.906 4.88341 175.481 4.64204 174.998 4.47022C174.516 4.29839 173.972 4.21248 173.366 4.21248C172.687 4.21248 172.057 4.31885 171.476 4.53158C170.895 4.74432 170.387 5.04705 169.953 5.43979C169.519 5.83253 169.183 6.30708 168.944 6.86346C168.706 7.41166 168.587 8.02531 168.586 8.70442C168.585 9.38353 168.699 10.0054 168.927 10.5699C169.164 11.1263 169.49 11.609 169.907 12.0181C170.324 12.4191 170.818 12.73 171.391 12.9509C171.963 13.1636 172.593 13.27 173.28 13.27C174.009 13.27 174.655 13.1432 175.22 12.8895C175.785 12.6277 176.256 12.2677 176.633 11.8095C177.01 11.3513 177.289 10.8236 177.47 10.2263C177.65 9.62899 177.721 8.9867 177.681 8.29941H173.336L173.334 9.89491ZM180.779 8.70442C180.779 8.19713 180.878 7.75121 181.075 7.36666C181.28 6.97392 181.563 6.66709 181.923 6.44618C182.292 6.22526 182.721 6.11481 183.212 6.11481C183.711 6.11481 184.141 6.22526 184.501 6.44618C184.86 6.66709 185.138 6.97392 185.334 7.36666C185.53 7.75121 185.627 8.19713 185.627 8.70442C185.626 9.21171 185.523 9.66172 185.318 10.0545C185.121 10.439 184.838 10.7417 184.47 10.9627C184.11 11.1836 183.688 11.294 183.205 11.294C182.714 11.294 182.285 11.1836 181.917 10.9627C181.557 10.7417 181.275 10.439 181.071 10.0545C180.876 9.66172 180.778 9.21171 180.779 8.70442ZM178.582 8.70442C178.581 9.36717 178.691 9.97673 178.911 10.5331C179.139 11.0895 179.457 11.5722 179.866 11.9813C180.283 12.3904 180.773 12.7095 181.337 12.9386C181.902 13.1595 182.523 13.27 183.203 13.27C183.873 13.27 184.491 13.1595 185.056 12.9386C185.621 12.7095 186.108 12.3904 186.518 11.9813C186.936 11.5722 187.256 11.0895 187.477 10.5331C187.707 9.97673 187.823 9.36717 187.823 8.70442C187.824 8.04168 187.711 7.43621 187.482 6.88801C187.254 6.33981 186.931 5.86525 186.515 5.46433C186.098 5.06342 185.607 4.75659 185.043 4.54386C184.487 4.32294 183.878 4.21248 183.215 4.21248C182.56 4.21248 181.951 4.32294 181.386 4.54386C180.821 4.75659 180.33 5.06342 179.912 5.46433C179.494 5.86525 179.166 6.33981 178.928 6.88801C178.698 7.43621 178.583 8.04168 178.582 8.70442ZM190.858 8.70442C190.859 8.19713 190.958 7.75121 191.155 7.36666C191.36 6.97392 191.643 6.66709 192.003 6.44618C192.371 6.22526 192.801 6.11481 193.292 6.11481C193.791 6.11481 194.221 6.22526 194.58 6.44618C194.94 6.66709 195.218 6.97392 195.414 7.36666C195.609 7.75121 195.707 8.19713 195.706 8.70442C195.706 9.21171 195.603 9.66172 195.398 10.0545C195.201 10.439 194.918 10.7417 194.55 10.9627C194.189 11.1836 193.768 11.294 193.285 11.294C192.794 11.294 192.365 11.1836 191.997 10.9627C191.637 10.7417 191.355 10.439 191.151 10.0545C190.955 9.66172 190.858 9.21171 190.858 8.70442ZM188.662 8.70442C188.661 9.36717 188.77 9.97673 188.99 10.5331C189.219 11.0895 189.537 11.5722 189.946 11.9813C190.362 12.3904 190.853 12.7095 191.417 12.9386C191.981 13.1595 192.603 13.27 193.282 13.27C193.953 13.27 194.571 13.1595 195.136 12.9386C195.701 12.7095 196.188 12.3904 196.598 11.9813C197.016 11.5722 197.335 11.0895 197.557 10.5331C197.787 9.97673 197.902 9.36717 197.903 8.70442C197.904 8.04168 197.79 7.43621 197.562 6.88801C197.334 6.33981 197.011 5.86525 196.594 5.46433C196.178 5.06342 195.687 4.75659 195.123 4.54386C194.567 4.32294 193.957 4.21248 193.295 4.21248C192.64 4.21248 192.03 4.32294 191.466 4.54386C190.901 4.75659 190.409 5.06342 189.992 5.46433C189.574 5.86525 189.246 6.33981 189.008 6.88801C188.778 7.43621 188.663 8.04168 188.662 8.70442ZM199.238 4.40885L199.226 13H201.362L201.374 4.40885H199.238ZM202.295 13C203.236 13 204.05 12.8241 204.738 12.4722C205.425 12.1204 205.958 11.6254 206.335 10.9872C206.712 10.3408 206.902 9.5799 206.903 8.70442C206.904 7.82076 206.717 7.05983 206.341 6.42163C205.966 5.78343 205.435 5.28842 204.748 4.93659C204.061 4.58477 203.247 4.40885 202.306 4.40885H200.613L200.61 6.24981H202.23C202.558 6.24981 202.872 6.29072 203.175 6.37254C203.486 6.45436 203.756 6.58936 203.985 6.77755C204.222 6.96574 204.409 7.21938 204.548 7.53848C204.687 7.8494 204.756 8.23804 204.755 8.70442C204.754 9.1708 204.684 9.56353 204.545 9.88263C204.405 10.1936 204.217 10.4431 203.979 10.6313C203.75 10.8195 203.48 10.9545 203.169 11.0363C202.866 11.1181 202.551 11.159 202.223 11.159H200.603L200.601 13H202.295Z" fill="white"/>
<rect width="26.9058" height="41.4274" rx="2.94219" transform="matrix(0.981397 -0.19199 0.190779 0.981633 135.4 56.5496)" fill="#36DDAB"/>
<g filter="url(#filter16_d_515_21453)">
<rect width="26.9058" height="41.4274" rx="2.94219" transform="matrix(0.981397 -0.19199 0.190779 0.981633 135.4 56.5496)" fill="url(#paint8_linear_515_21453)" fill-opacity="0.7" shape-rendering="crispEdges"/>
</g>
<g filter="url(#filter17_d_515_21453)">
<rect width="26.9028" height="41.432" rx="2.94219" transform="matrix(0.999979 -0.00649904 0.00734195 0.999973 159.719 53.5461)" fill="white"/>
</g>
<rect width="26.9051" height="41.4284" rx="2.94219" transform="matrix(0.987243 0.159219 -0.159035 0.987273 183.521 50.7083)" fill="#36DDAB"/>
<g filter="url(#filter18_d_515_21453)">
<rect width="26.9051" height="41.4284" rx="2.94219" transform="matrix(0.987243 0.159219 -0.159035 0.987273 183.521 50.7083)" fill="url(#paint9_linear_515_21453)" fill-opacity="0.7" shape-rendering="crispEdges"/>
</g>
<defs>
<filter id="filter0_d_515_21453" x="240.962" y="52.8569" width="34.1475" height="47.3298" filterUnits="userSpaceOnUse" color-interpolation-filters="sRGB">
<feFlood flood-opacity="0" result="BackgroundImageFix"/>
<feColorMatrix in="SourceAlpha" type="matrix" values="0 0 0 0 0 0 0 0 0 0 0 0 0 0 0 0 0 0 127 0" result="hardAlpha"/>
<feOffset dx="1.04961" dy="1.04961"/>
<feGaussianBlur stdDeviation="1.04961"/>
<feComposite in2="hardAlpha" operator="out"/>
<feColorMatrix type="matrix" values="0 0 0 0 0 0 0 0 0 0 0 0 0 0 0 0 0 0 0.05 0"/>
<feBlend mode="normal" in2="BackgroundImageFix" result="effect1_dropShadow_515_21453"/>
<feBlend mode="normal" in="SourceGraphic" in2="effect1_dropShadow_515_21453" result="shape"/>
</filter>
<filter id="filter1_d_515_21453" x="246.341" y="53.3129" width="33.1091" height="46.7927" filterUnits="userSpaceOnUse" color-interpolation-filters="sRGB">
<feFlood flood-opacity="0" result="BackgroundImageFix"/>
<feColorMatrix in="SourceAlpha" type="matrix" values="0 0 0 0 0 0 0 0 0 0 0 0 0 0 0 0 0 0 127 0" result="hardAlpha"/>
<feOffset dx="1.04961" dy="1.04961"/>
<feGaussianBlur stdDeviation="1.04961"/>
<feComposite in2="hardAlpha" operator="out"/>
<feColorMatrix type="matrix" values="0 0 0 0 0 0 0 0 0 0 0 0 0 0 0 0 0 0 0.05 0"/>
<feBlend mode="normal" in2="BackgroundImageFix" result="effect1_dropShadow_515_21453"/>
<feBlend mode="normal" in="SourceGraphic" in2="effect1_dropShadow_515_21453" result="shape"/>
</filter>
<filter id="filter2_d_515_21453" x="250.683" y="52.8569" width="34.1475" height="47.3298" filterUnits="userSpaceOnUse" color-interpolation-filters="sRGB">
<feFlood flood-opacity="0" result="BackgroundImageFix"/>
<feColorMatrix in="SourceAlpha" type="matrix" values="0 0 0 0 0 0 0 0 0 0 0 0 0 0 0 0 0 0 127 0" result="hardAlpha"/>
<feOffset dx="1.04961" dy="1.04961"/>
<feGaussianBlur stdDeviation="1.04961"/>
<feComposite in2="hardAlpha" operator="out"/>
<feColorMatrix type="matrix" values="0 0 0 0 0 0 0 0 0 0 0 0 0 0 0 0 0 0 0.05 0"/>
<feBlend mode="normal" in2="BackgroundImageFix" result="effect1_dropShadow_515_21453"/>
<feBlend mode="normal" in="SourceGraphic" in2="effect1_dropShadow_515_21453" result="shape"/>
</filter>
<filter id="filter3_d_515_21453" x="256.157" y="52.6035" width="34.2846" height="47.4101" filterUnits="userSpaceOnUse" color-interpolation-filters="sRGB">
<feFlood flood-opacity="0" result="BackgroundImageFix"/>
<feColorMatrix in="SourceAlpha" type="matrix" values="0 0 0 0 0 0 0 0 0 0 0 0 0 0 0 0 0 0 127 0" result="hardAlpha"/>
<feOffset dx="1.04961" dy="1.04961"/>
<feGaussianBlur stdDeviation="1.04961"/>
<feComposite in2="hardAlpha" operator="out"/>
<feColorMatrix type="matrix" values="0 0 0 0 0 0 0 0 0 0 0 0 0 0 0 0 0 0 0.05 0"/>
<feBlend mode="normal" in2="BackgroundImageFix" result="effect1_dropShadow_515_21453"/>
<feBlend mode="normal" in="SourceGraphic" in2="effect1_dropShadow_515_21453" result="shape"/>
</filter>
<filter id="filter4_d_515_21453" x="261.766" y="53.0654" width="34.1475" height="47.3298" filterUnits="userSpaceOnUse" color-interpolation-filters="sRGB">
<feFlood flood-opacity="0" result="BackgroundImageFix"/>
<feColorMatrix in="SourceAlpha" type="matrix" values="0 0 0 0 0 0 0 0 0 0 0 0 0 0 0 0 0 0 127 0" result="hardAlpha"/>
<feOffset dx="1.04961" dy="1.04961"/>
<feGaussianBlur stdDeviation="1.04961"/>
<feComposite in2="hardAlpha" operator="out"/>
<feColorMatrix type="matrix" values="0 0 0 0 0 0 0 0 0 0 0 0 0 0 0 0 0 0 0.05 0"/>
<feBlend mode="normal" in2="BackgroundImageFix" result="effect1_dropShadow_515_21453"/>
<feBlend mode="normal" in="SourceGraphic" in2="effect1_dropShadow_515_21453" result="shape"/>
</filter>
<filter id="filter5_d_515_21453" x="266.898" y="54.7507" width="32.1632" height="46.2585" filterUnits="userSpaceOnUse" color-interpolation-filters="sRGB">
<feFlood flood-opacity="0" result="BackgroundImageFix"/>
<feColorMatrix in="SourceAlpha" type="matrix" values="0 0 0 0 0 0 0 0 0 0 0 0 0 0 0 0 0 0 127 0" result="hardAlpha"/>
<feOffset dx="1.04961" dy="1.04961"/>
<feGaussianBlur stdDeviation="1.04961"/>
<feComposite in2="hardAlpha" operator="out"/>
<feColorMatrix type="matrix" values="0 0 0 0 0 0 0 0 0 0 0 0 0 0 0 0 0 0 0.05 0"/>
<feBlend mode="normal" in2="BackgroundImageFix" result="effect1_dropShadow_515_21453"/>
<feBlend mode="normal" in="SourceGraphic" in2="effect1_dropShadow_515_21453" result="shape"/>
</filter>
<filter id="filter6_d_515_21453" x="19.0463" y="73.5532" width="35.361" height="48.7844" filterUnits="userSpaceOnUse" color-interpolation-filters="sRGB">
<feFlood flood-opacity="0" result="BackgroundImageFix"/>
<feColorMatrix in="SourceAlpha" type="matrix" values="0 0 0 0 0 0 0 0 0 0 0 0 0 0 0 0 0 0 127 0" result="hardAlpha"/>
<feOffset dx="-4.38324"/>
<feGaussianBlur stdDeviation="1.75329"/>
<feComposite in2="hardAlpha" operator="out"/>
<feColorMatrix type="matrix" values="0 0 0 0 0 0 0 0 0 0 0 0 0 0 0 0 0 0 0.1 0"/>
<feBlend mode="normal" in2="BackgroundImageFix" result="effect1_dropShadow_515_21453"/>
<feBlend mode="normal" in="SourceGraphic" in2="effect1_dropShadow_515_21453" result="shape"/>
</filter>
<filter id="filter7_d_515_21453" x="25.8865" y="76.0102" width="31.6696" height="45.9697" filterUnits="userSpaceOnUse" color-interpolation-filters="sRGB">
<feFlood flood-opacity="0" result="BackgroundImageFix"/>
<feColorMatrix in="SourceAlpha" type="matrix" values="0 0 0 0 0 0 0 0 0 0 0 0 0 0 0 0 0 0 127 0" result="hardAlpha"/>
<feOffset dx="1.04961" dy="1.04961"/>
<feGaussianBlur stdDeviation="1.04961"/>
<feComposite in2="hardAlpha" operator="out"/>
<feColorMatrix type="matrix" values="0 0 0 0 0 0 0 0 0 0 0 0 0 0 0 0 0 0 0.05 0"/>
<feBlend mode="normal" in2="BackgroundImageFix" result="effect1_dropShadow_515_21453"/>
<feBlend mode="normal" in="SourceGraphic" in2="effect1_dropShadow_515_21453" result="shape"/>
</filter>
<filter id="filter8_d_515_21453" x="54.1557" y="73.4429" width="35.2302" height="48.7082" filterUnits="userSpaceOnUse" color-interpolation-filters="sRGB">
<feFlood flood-opacity="0" result="BackgroundImageFix"/>
<feColorMatrix in="SourceAlpha" type="matrix" values="0 0 0 0 0 0 0 0 0 0 0 0 0 0 0 0 0 0 127 0" result="hardAlpha"/>
<feOffset dx="-4.38324"/>
<feGaussianBlur stdDeviation="1.75329"/>
<feComposite in2="hardAlpha" operator="out"/>
<feColorMatrix type="matrix" values="0 0 0 0 0 0 0 0 0 0 0 0 0 0 0 0 0 0 0.1 0"/>
<feBlend mode="normal" in2="BackgroundImageFix" result="effect1_dropShadow_515_21453"/>
<feBlend mode="normal" in="SourceGraphic" in2="effect1_dropShadow_515_21453" result="shape"/>
</filter>
<filter id="filter9_d_515_21453" x="60.9959" y="75.8999" width="31.5388" height="45.8935" filterUnits="userSpaceOnUse" color-interpolation-filters="sRGB">
<feFlood flood-opacity="0" result="BackgroundImageFix"/>
<feColorMatrix in="SourceAlpha" type="matrix" values="0 0 0 0 0 0 0 0 0 0 0 0 0 0 0 0 0 0 127 0" result="hardAlpha"/>
<feOffset dx="1.04961" dy="1.04961"/>
<feGaussianBlur stdDeviation="1.04961"/>
<feComposite in2="hardAlpha" operator="out"/>
<feColorMatrix type="matrix" values="0 0 0 0 0 0 0 0 0 0 0 0 0 0 0 0 0 0 0.05 0"/>
<feBlend mode="normal" in2="BackgroundImageFix" result="effect1_dropShadow_515_21453"/>
<feBlend mode="normal" in="SourceGraphic" in2="effect1_dropShadow_515_21453" result="shape"/>
</filter>
<filter id="filter10_d_515_21453" x="0.523215" y="25.8455" width="35.7105" height="48.9917" filterUnits="userSpaceOnUse" color-interpolation-filters="sRGB">
<feFlood flood-opacity="0" result="BackgroundImageFix"/>
<feColorMatrix in="SourceAlpha" type="matrix" values="0 0 0 0 0 0 0 0 0 0 0 0 0 0 0 0 0 0 127 0" result="hardAlpha"/>
<feOffset dx="-4.38324"/>
<feGaussianBlur stdDeviation="1.75329"/>
<feComposite in2="hardAlpha" operator="out"/>
<feColorMatrix type="matrix" values="0 0 0 0 0 0 0 0 0 0 0 0 0 0 0 0 0 0 0.1 0"/>
<feBlend mode="normal" in2="BackgroundImageFix" result="effect1_dropShadow_515_21453"/>
<feBlend mode="normal" in="SourceGraphic" in2="effect1_dropShadow_515_21453" result="shape"/>
</filter>
<filter id="filter11_d_515_21453" x="7.36343" y="28.3024" width="32.0191" height="46.1769" filterUnits="userSpaceOnUse" color-interpolation-filters="sRGB">
<feFlood flood-opacity="0" result="BackgroundImageFix"/>
<feColorMatrix in="SourceAlpha" type="matrix" values="0 0 0 0 0 0 0 0 0 0 0 0 0 0 0 0 0 0 127 0" result="hardAlpha"/>
<feOffset dx="1.04961" dy="1.04961"/>
<feGaussianBlur stdDeviation="1.04961"/>
<feComposite in2="hardAlpha" operator="out"/>
<feColorMatrix type="matrix" values="0 0 0 0 0 0 0 0 0 0 0 0 0 0 0 0 0 0 0.05 0"/>
<feBlend mode="normal" in2="BackgroundImageFix" result="effect1_dropShadow_515_21453"/>
<feBlend mode="normal" in="SourceGraphic" in2="effect1_dropShadow_515_21453" result="shape"/>
</filter>
<filter id="filter12_d_515_21453" x="36.1528" y="25.5886" width="35.3753" height="48.7793" filterUnits="userSpaceOnUse" color-interpolation-filters="sRGB">
<feFlood flood-opacity="0" result="BackgroundImageFix"/>
<feColorMatrix in="SourceAlpha" type="matrix" values="0 0 0 0 0 0 0 0 0 0 0 0 0 0 0 0 0 0 127 0" result="hardAlpha"/>
<feOffset dx="-4.38324"/>
<feGaussianBlur stdDeviation="1.75329"/>
<feComposite in2="hardAlpha" operator="out"/>
<feColorMatrix type="matrix" values="0 0 0 0 0 0 0 0 0 0 0 0 0 0 0 0 0 0 0.1 0"/>
<feBlend mode="normal" in2="BackgroundImageFix" result="effect1_dropShadow_515_21453"/>
<feBlend mode="normal" in="SourceGraphic" in2="effect1_dropShadow_515_21453" result="shape"/>
</filter>
<filter id="filter13_d_515_21453" x="42.9931" y="28.0456" width="31.6839" height="45.9645" filterUnits="userSpaceOnUse" color-interpolation-filters="sRGB">
<feFlood flood-opacity="0" result="BackgroundImageFix"/>
<feColorMatrix in="SourceAlpha" type="matrix" values="0 0 0 0 0 0 0 0 0 0 0 0 0 0 0 0 0 0 127 0" result="hardAlpha"/>
<feOffset dx="1.04961" dy="1.04961"/>
<feGaussianBlur stdDeviation="1.04961"/>
<feComposite in2="hardAlpha" operator="out"/>
<feColorMatrix type="matrix" values="0 0 0 0 0 0 0 0 0 0 0 0 0 0 0 0 0 0 0.05 0"/>
<feBlend mode="normal" in2="BackgroundImageFix" result="effect1_dropShadow_515_21453"/>
<feBlend mode="normal" in="SourceGraphic" in2="effect1_dropShadow_515_21453" result="shape"/>
</filter>
<filter id="filter14_d_515_21453" x="70.7304" y="26.0664" width="34.9918" height="48.5625" filterUnits="userSpaceOnUse" color-interpolation-filters="sRGB">
<feFlood flood-opacity="0" result="BackgroundImageFix"/>
<feColorMatrix in="SourceAlpha" type="matrix" values="0 0 0 0 0 0 0 0 0 0 0 0 0 0 0 0 0 0 127 0" result="hardAlpha"/>
<feOffset dx="-4.38324"/>
<feGaussianBlur stdDeviation="1.75329"/>
<feComposite in2="hardAlpha" operator="out"/>
<feColorMatrix type="matrix" values="0 0 0 0 0 0 0 0 0 0 0 0 0 0 0 0 0 0 0.1 0"/>
<feBlend mode="normal" in2="BackgroundImageFix" result="effect1_dropShadow_515_21453"/>
<feBlend mode="normal" in="SourceGraphic" in2="effect1_dropShadow_515_21453" result="shape"/>
</filter>
<filter id="filter15_d_515_21453" x="77.5706" y="28.5234" width="31.3004" height="45.7477" filterUnits="userSpaceOnUse" color-interpolation-filters="sRGB">
<feFlood flood-opacity="0" result="BackgroundImageFix"/>
<feColorMatrix in="SourceAlpha" type="matrix" values="0 0 0 0 0 0 0 0 0 0 0 0 0 0 0 0 0 0 127 0" result="hardAlpha"/>
<feOffset dx="1.04961" dy="1.04961"/>
<feGaussianBlur stdDeviation="1.04961"/>
<feComposite in2="hardAlpha" operator="out"/>
<feColorMatrix type="matrix" values="0 0 0 0 0 0 0 0 0 0 0 0 0 0 0 0 0 0 0.05 0"/>
<feBlend mode="normal" in2="BackgroundImageFix" result="effect1_dropShadow_515_21453"/>
<feBlend mode="normal" in="SourceGraphic" in2="effect1_dropShadow_515_21453" result="shape"/>
</filter>
<filter id="filter16_d_515_21453" x="134.857" y="50.8439" width="37.4938" height="49.0114" filterUnits="userSpaceOnUse" color-interpolation-filters="sRGB">
<feFlood flood-opacity="0" result="BackgroundImageFix"/>
<feColorMatrix in="SourceAlpha" type="matrix" values="0 0 0 0 0 0 0 0 0 0 0 0 0 0 0 0 0 0 127 0" result="hardAlpha"/>
<feOffset dx="1.04961" dy="1.04961"/>
<feGaussianBlur stdDeviation="1.04961"/>
<feComposite in2="hardAlpha" operator="out"/>
<feColorMatrix type="matrix" values="0 0 0 0 0 0 0 0 0 0 0 0 0 0 0 0 0 0 0.05 0"/>
<feBlend mode="normal" in2="BackgroundImageFix" result="effect1_dropShadow_515_21453"/>
<feBlend mode="normal" in="SourceGraphic" in2="effect1_dropShadow_515_21453" result="shape"/>
</filter>
<filter id="filter17_d_515_21453" x="158.691" y="52.3408" width="31.3618" height="45.7661" filterUnits="userSpaceOnUse" color-interpolation-filters="sRGB">
<feFlood flood-opacity="0" result="BackgroundImageFix"/>
<feColorMatrix in="SourceAlpha" type="matrix" values="0 0 0 0 0 0 0 0 0 0 0 0 0 0 0 0 0 0 127 0" result="hardAlpha"/>
<feOffset dx="1.04961" dy="1.04961"/>
<feGaussianBlur stdDeviation="1.04961"/>
<feComposite in2="hardAlpha" operator="out"/>
<feColorMatrix type="matrix" values="0 0 0 0 0 0 0 0 0 0 0 0 0 0 0 0 0 0 0.05 0"/>
<feBlend mode="normal" in2="BackgroundImageFix" result="effect1_dropShadow_515_21453"/>
<feBlend mode="normal" in="SourceGraphic" in2="effect1_dropShadow_515_21453" result="shape"/>
</filter>
<filter id="filter18_d_515_21453" x="176.313" y="50.0891" width="36.4889" height="48.5224" filterUnits="userSpaceOnUse" color-interpolation-filters="sRGB">
<feFlood flood-opacity="0" result="BackgroundImageFix"/>
<feColorMatrix in="SourceAlpha" type="matrix" values="0 0 0 0 0 0 0 0 0 0 0 0 0 0 0 0 0 0 127 0" result="hardAlpha"/>
<feOffset dx="1.04961" dy="1.04961"/>
<feGaussianBlur stdDeviation="1.04961"/>
<feComposite in2="hardAlpha" operator="out"/>
<feColorMatrix type="matrix" values="0 0 0 0 0 0 0 0 0 0 0 0 0 0 0 0 0 0 0.05 0"/>
<feBlend mode="normal" in2="BackgroundImageFix" result="effect1_dropShadow_515_21453"/>
<feBlend mode="normal" in="SourceGraphic" in2="effect1_dropShadow_515_21453" result="shape"/>
</filter>
<linearGradient id="paint0_linear_515_21453" x1="21.796" y1="10.0707" x2="6.0635" y2="21.436" gradientUnits="userSpaceOnUse">
<stop stop-color="#36DDAB"/>
<stop offset="1" stop-color="white" stop-opacity="0"/>
</linearGradient>
<linearGradient id="paint1_linear_515_21453" x1="21.7962" y1="10.0706" x2="6.06379" y2="21.436" gradientUnits="userSpaceOnUse">
<stop stop-color="#36DDAB"/>
<stop offset="1" stop-color="white" stop-opacity="0"/>
</linearGradient>
<linearGradient id="paint2_linear_515_21453" x1="21.7959" y1="10.0708" x2="6.06336" y2="21.4359" gradientUnits="userSpaceOnUse">
<stop stop-color="#36DDAB"/>
<stop offset="1" stop-color="white" stop-opacity="0"/>
</linearGradient>
<linearGradient id="paint3_linear_515_21453" x1="21.7959" y1="10.0707" x2="6.06337" y2="21.4359" gradientUnits="userSpaceOnUse">
<stop stop-color="#36DDAB"/>
<stop offset="1" stop-color="white" stop-opacity="0"/>
</linearGradient>
<linearGradient id="paint4_linear_515_21453" x1="21.7959" y1="10.0707" x2="6.06338" y2="21.4359" gradientUnits="userSpaceOnUse">
<stop stop-color="#36DDAB"/>
<stop offset="1" stop-color="white" stop-opacity="0"/>
</linearGradient>
<linearGradient id="paint5_linear_515_21453" x1="21.7963" y1="10.0706" x2="6.06387" y2="21.4361" gradientUnits="userSpaceOnUse">
<stop stop-color="#36DDAB"/>
<stop offset="1" stop-color="white" stop-opacity="0"/>
</linearGradient>
<linearGradient id="paint6_linear_515_21453" x1="21.7962" y1="10.0706" x2="6.06377" y2="21.436" gradientUnits="userSpaceOnUse">
<stop stop-color="#36DDAB"/>
<stop offset="1" stop-color="white" stop-opacity="0"/>
</linearGradient>
<linearGradient id="paint7_linear_515_21453" x1="21.7962" y1="10.0706" x2="6.06377" y2="21.436" gradientUnits="userSpaceOnUse">
<stop stop-color="#36DDAB"/>
<stop offset="1" stop-color="white" stop-opacity="0"/>
</linearGradient>
<linearGradient id="paint8_linear_515_21453" x1="21.7975" y1="10.07" x2="6.06539" y2="21.4365" gradientUnits="userSpaceOnUse">
<stop stop-color="#36DDAB"/>
<stop offset="1" stop-color="white" stop-opacity="0"/>
</linearGradient>
<linearGradient id="paint9_linear_515_21453" x1="21.797" y1="10.0702" x2="6.06475" y2="21.4363" gradientUnits="userSpaceOnUse">
<stop stop-color="#36DDAB"/>
<stop offset="1" stop-color="white" stop-opacity="0"/>
</linearGradient>
</defs>
</svg>
