<svg width="118" height="19" viewBox="0 0 118 19" fill="none" xmlns="http://www.w3.org/2000/svg">
<g clip-path="url(#clip0_1479_70219)">
<path d="M36.656 15.044L35 17.168C35.252 17.336 35.552 17.492 35.9 17.636C36.248 17.792 36.638 17.924 37.07 18.032C37.502 18.14 37.952 18.194 38.42 18.194C38.972 18.194 39.5 18.128 40.004 17.996C40.508 17.876 40.952 17.684 41.336 17.42C41.72 17.168 42.02 16.826 42.236 16.394C42.452 15.974 42.56 15.464 42.56 14.864V1.292H39.284V14.18C39.284 14.708 39.158 15.08 38.906 15.296C38.654 15.512 38.39 15.62 38.114 15.62C37.85 15.62 37.586 15.56 37.322 15.44C37.058 15.332 36.836 15.2 36.656 15.044Z" fill="white"/>
<path d="M45.1354 1.292V9.752C45.1354 10.544 45.2614 11.234 45.5134 11.822C45.7774 12.41 46.1374 12.896 46.5934 13.28C47.0614 13.652 47.6014 13.934 48.2134 14.126C48.8254 14.318 49.4854 14.414 50.1934 14.414C50.9014 14.414 51.5614 14.318 52.1734 14.126C52.7974 13.934 53.3374 13.652 53.7934 13.28C54.2614 12.896 54.6214 12.41 54.8734 11.822C55.1374 11.234 55.2694 10.544 55.2694 9.752V1.292H52.2274V9.536C52.2274 10.172 52.0594 10.688 51.7234 11.084C51.3874 11.48 50.8774 11.678 50.1934 11.678C49.5214 11.678 49.0174 11.48 48.6814 11.084C48.3454 10.688 48.1774 10.172 48.1774 9.536V1.292H45.1354Z" fill="white"/>
<path d="M59.2325 9.464L57.1085 10.994C57.3965 11.594 57.7985 12.146 58.3145 12.65C58.8305 13.154 59.4365 13.556 60.1325 13.856C60.8405 14.144 61.6025 14.288 62.4185 14.288C63.0065 14.288 63.5765 14.198 64.1285 14.018C64.6925 13.85 65.1905 13.598 65.6225 13.262C66.0665 12.926 66.4145 12.512 66.6665 12.02C66.9305 11.516 67.0625 10.946 67.0625 10.31C67.0625 9.782 66.9785 9.314 66.8105 8.906C66.6425 8.498 66.4085 8.138 66.1085 7.826C65.8205 7.514 65.4845 7.25 65.1005 7.034C64.7165 6.806 64.3025 6.608 63.8585 6.44C63.2705 6.236 62.7665 6.044 62.3465 5.864C61.9385 5.684 61.6205 5.486 61.3925 5.27C61.1765 5.054 61.0685 4.802 61.0685 4.514C61.0685 4.238 61.1825 4.01 61.4105 3.83C61.6385 3.638 61.9685 3.542 62.4005 3.542C62.7245 3.542 63.0245 3.608 63.3005 3.74C63.5885 3.86 63.8465 4.034 64.0745 4.262C64.3145 4.478 64.5245 4.736 64.7045 5.036L67.0265 3.74C66.8105 3.308 66.4985 2.882 66.0905 2.462C65.6825 2.042 65.1665 1.694 64.5425 1.418C63.9305 1.142 63.2045 1.004 62.3645 1.004C61.5485 1.004 60.8045 1.148 60.1325 1.436C59.4725 1.712 58.9445 2.12 58.5485 2.66C58.1645 3.2 57.9725 3.842 57.9725 4.586C57.9725 5.21 58.0865 5.744 58.3145 6.188C58.5425 6.62 58.8305 6.992 59.1785 7.304C59.5265 7.604 59.8925 7.85 60.2765 8.042C60.6725 8.234 61.0205 8.384 61.3205 8.492C61.9325 8.72 62.4245 8.924 62.7965 9.104C63.1685 9.284 63.4385 9.476 63.6065 9.68C63.7745 9.872 63.8585 10.13 63.8585 10.454C63.8585 10.838 63.7145 11.144 63.4265 11.372C63.1385 11.588 62.7725 11.696 62.3285 11.696C61.9085 11.696 61.5065 11.606 61.1225 11.426C60.7505 11.246 60.4025 10.988 60.0785 10.652C59.7665 10.316 59.4845 9.92 59.2325 9.464Z" fill="white"/>
<path d="M67.8365 4.01H71.2925V13.892H74.3345V4.01H77.8085V1.292H67.8365V4.01Z" fill="white"/>
<path d="M84.5828 1.292V13.892H87.6248V1.292H84.5828ZM86.4908 3.794H88.9568C89.5688 3.794 90.0488 3.932 90.3968 4.208C90.7448 4.484 90.9188 4.886 90.9188 5.414C90.9188 5.93 90.7448 6.326 90.3968 6.602C90.0488 6.878 89.5688 7.016 88.9568 7.016H86.4908V9.518H88.9568C90.0248 9.518 90.9188 9.356 91.6388 9.032C92.3708 8.696 92.9228 8.222 93.2948 7.61C93.6668 6.986 93.8528 6.254 93.8528 5.414C93.8528 4.55 93.6668 3.812 93.2948 3.2C92.9228 2.588 92.3708 2.12 91.6388 1.796C90.9188 1.46 90.0248 1.292 88.9568 1.292H86.4908V3.794Z" fill="white"/>
<path d="M96.512 11.462H103.172L102.974 9.14H96.728L96.512 11.462ZM99.806 5.918L101.588 10.004L101.48 10.778L102.992 13.892H106.448L99.806 0.5L93.182 13.892H96.62L98.186 10.652L98.042 9.986L99.806 5.918Z" fill="white"/>
<path d="M113.577 1.292L111.111 6.026L108.645 1.292H105.153L109.563 8.78V13.892H112.659V8.762L117.069 1.292H113.577Z" fill="white"/>
<rect y="1.5" width="29" height="16.7895" rx="8.39474" fill="url(#paint0_linear_1479_70219)"/>
<circle cx="8.39474" cy="9.89474" r="8.39474" fill="#36DDAB"/>
</g>
<defs>
<linearGradient id="paint0_linear_1479_70219" x1="29" y1="18.2895" x2="3.34615" y2="18.2895" gradientUnits="userSpaceOnUse">
<stop stop-color="#36DDAB"/>
<stop offset="1" stop-color="#36DDAB" stop-opacity="0"/>
</linearGradient>
<clipPath id="clip0_1479_70219">
<rect width="118" height="18" fill="white" transform="translate(0 0.5)"/>
</clipPath>
</defs>
</svg>
