<svg width="52" height="52" viewBox="0 0 52 52" fill="none" xmlns="http://www.w3.org/2000/svg">
<rect x="0.5" y="0.5" width="51" height="51" rx="7.5" stroke="#36DDAB"/>
<path d="M24.0168 27.9832C24.5935 28.5317 24.5935 29.4319 24.0168 29.9804C23.4683 30.529 22.5681 30.529 22.0196 29.9804C20.7022 28.6611 19.9623 26.8729 19.9623 25.0084C19.9623 23.144 20.7022 21.3557 22.0196 20.0364L26.9986 15.0573C28.318 13.7399 30.1062 13 31.9707 13C33.8351 13 35.6234 13.7399 36.9427 15.0573C38.2601 16.3767 39 18.1649 39 20.0293C39 21.8938 38.2601 23.682 36.9427 25.0014L34.847 27.0971C34.8611 25.9437 34.6782 24.7904 34.2844 23.6933L34.9454 23.0182C35.3397 22.6281 35.6528 22.1638 35.8664 21.6519C36.08 21.1401 36.19 20.591 36.19 20.0364C36.19 19.4817 36.08 18.9326 35.8664 18.4208C35.6528 17.909 35.3397 17.4446 34.9454 17.0546C34.5554 16.6603 34.091 16.3472 33.5792 16.1336C33.0674 15.92 32.5183 15.81 31.9636 15.81C31.409 15.81 30.8599 15.92 30.3481 16.1336C29.8362 16.3472 29.3719 16.6603 28.9818 17.0546L24.0168 22.0196C23.6225 22.4096 23.3095 22.874 23.0959 23.3858C22.8822 23.8976 22.7722 24.4468 22.7722 25.0014C22.7722 25.556 22.8822 26.1051 23.0959 26.6169C23.3095 27.1288 23.6225 27.5931 24.0168 27.9832ZM27.9832 22.0196C28.5317 21.471 29.4319 21.471 29.9804 22.0196C31.2978 23.3389 32.0377 25.1271 32.0377 26.9916C32.0377 28.856 31.2978 30.6443 29.9804 31.9636L25.0014 36.9427C23.682 38.2601 21.8938 39 20.0293 39C18.1649 39 16.3767 38.2601 15.0573 36.9427C13.7399 35.6234 13 33.8351 13 31.9707C13 30.1062 13.7399 28.318 15.0573 26.9986L17.153 24.9029C17.1389 26.0563 17.3218 27.2096 17.7156 28.3208L17.0546 28.9818C16.6603 29.3719 16.3472 29.8362 16.1336 30.3481C15.92 30.8599 15.81 31.409 15.81 31.9636C15.81 32.5183 15.92 33.0674 16.1336 33.5792C16.3472 34.091 16.6603 34.5554 17.0546 34.9454C17.4446 35.3397 17.909 35.6528 18.4208 35.8664C18.9326 36.08 19.4817 36.19 20.0364 36.19C20.591 36.19 21.1401 36.08 21.6519 35.8664C22.1638 35.6528 22.6281 35.3397 23.0182 34.9454L27.9832 29.9804C28.3775 29.5904 28.6905 29.126 28.9042 28.6142C29.1178 28.1024 29.2278 27.5533 29.2278 26.9986C29.2278 26.444 29.1178 25.8949 28.9042 25.3831C28.6905 24.8712 28.3775 24.4069 27.9832 24.0168C27.8466 23.8888 27.7377 23.7341 27.6633 23.5624C27.5888 23.3906 27.5504 23.2054 27.5504 23.0182C27.5504 22.831 27.5888 22.6458 27.6633 22.474C27.7377 22.3022 27.8466 22.1476 27.9832 22.0196Z" fill="#36DDAB"/>
</svg>
