<svg width="152" height="188" viewBox="0 0 152 188" fill="none" xmlns="http://www.w3.org/2000/svg">
<path d="M40.9414 180.773H34.0078V178.098H39.4766V176.066H29.0469V174.074H39.0664V168.176H26.5273V170.168H36.6055V172.121H26.5469V178.098H31.5273V180.773H24.6719V182.824H40.9414V180.773ZM56.8398 167.023H54.3398V177.648H56.8398V167.023ZM42.9727 176.555H44.5156C48.5684 176.564 50.7461 176.477 53.1484 175.988L52.9336 173.996C50.7656 174.416 48.8027 174.553 45.4336 174.562V170.344H51.4688V168.352H42.9727V176.555ZM44.6719 181.32C44.6621 183.518 46.9863 184.816 50.7852 184.816C54.5254 184.816 56.8789 183.518 56.8984 181.32C56.8789 179.113 54.5254 177.814 50.7852 177.824C46.9863 177.814 44.6621 179.113 44.6719 181.32ZM47.1719 181.32C47.1719 180.256 48.4121 179.777 50.7852 179.777C53.1387 179.777 54.4277 180.256 54.4375 181.32C54.4277 182.355 53.1387 182.883 50.7852 182.883C48.4121 182.883 47.1719 182.355 47.1719 181.32ZM75.4531 175.09H59.2422V177.102H66.0977V178.41C62.9434 178.635 61.0977 179.748 61.0977 181.594C61.0977 183.654 63.4316 184.807 67.3281 184.797C71.166 184.807 73.5 183.654 73.5195 181.594C73.5 179.758 71.6641 178.645 68.5781 178.42V177.102H75.4531V175.09ZM59.9648 172.473L60.7852 174.426C64.1543 174.113 66.3906 172.834 67.3281 171.115C68.2754 172.844 70.5312 174.104 73.8906 174.426L74.7695 172.473C71.3906 172.18 69.584 170.979 69.1543 169.738H73.9883V167.785H60.7266V169.738H65.5215C65.0723 170.969 63.2559 172.18 59.9648 172.473ZM63.6367 181.594C63.627 180.695 64.8672 180.266 67.3281 180.246C69.7402 180.266 71.0098 180.695 71.0195 181.594C71.0098 182.453 69.7402 182.922 67.3281 182.922C64.8672 182.922 63.627 182.453 63.6367 181.594ZM91.4102 167.023H88.8906V184.836H91.4102V167.023ZM77.0547 174.602C77.0449 178.508 79.0273 180.949 81.7617 180.949C84.4375 180.949 86.4297 178.508 86.4297 174.602C86.4297 170.725 84.4375 168.273 81.7617 168.273C79.0273 168.273 77.0449 170.725 77.0547 174.602ZM79.457 174.602C79.4473 171.965 80.375 170.52 81.7617 170.52C83.1094 170.52 84.0176 171.965 84.0273 174.602C84.0176 177.248 83.1094 178.693 81.7617 178.684C80.375 178.693 79.4473 177.248 79.457 174.602ZM109.223 167.023H106.84V184.797H109.223V167.023ZM93.9688 174.719C93.9688 178.713 95.4824 181.184 97.8359 181.184C100.023 181.184 101.518 179.064 101.732 175.578H103.168V183.977H105.512V167.277H103.168V173.605H101.713C101.439 170.285 99.9746 168.283 97.8359 168.293C95.4824 168.283 93.9688 170.744 93.9688 174.719ZM96.2734 174.719C96.2539 171.994 96.8398 170.637 97.8359 170.637C98.8613 170.637 99.4668 171.994 99.457 174.719C99.4668 177.453 98.8613 178.801 97.8359 178.781C96.8398 178.801 96.2539 177.453 96.2734 174.719ZM127.367 180.676H123.754V176.271C125.092 175.441 125.893 174.201 125.902 172.668C125.893 169.787 123.051 167.893 119.203 167.883C115.336 167.893 112.523 169.787 112.523 172.668C112.523 174.23 113.354 175.49 114.73 176.32V180.676H111.098V182.727H127.367V180.676ZM114.984 172.668C114.984 170.881 116.654 169.846 119.203 169.855C121.713 169.846 123.432 170.881 123.441 172.668C123.432 174.406 121.713 175.48 119.203 175.48C116.654 175.48 114.984 174.406 114.984 172.668ZM117.191 180.676V177.229C117.816 177.346 118.49 177.414 119.203 177.414C119.916 177.414 120.6 177.346 121.234 177.219V180.676H117.191Z" fill="white"/>
<rect width="10" height="10" rx="5" transform="matrix(-0.760151 0.649747 0.649747 0.760151 131.894 18)" fill="#36DDAB"/>
<rect width="10" height="10" rx="5" transform="matrix(-0.760151 0.649747 0.649747 0.760151 117.601 114)" fill="#36DDAB"/>
<rect width="10" height="10" rx="5" transform="matrix(-0.760151 0.649747 0.649747 0.760151 145.894 52)" fill="#36DDAB"/>
<rect width="10" height="10" rx="5" transform="matrix(-0.760151 0.649747 0.649747 0.760151 139.601 87)" fill="#36DDAB"/>
<rect x="6.49707" y="52" width="10" height="10" rx="5" transform="rotate(40.5225 6.49707 52)" fill="#36DDAB"/>
<rect x="13.4971" y="87" width="10" height="10" rx="5" transform="rotate(40.5225 13.4971 87)" fill="#36DDAB"/>
<rect x="23.96" y="18" width="10" height="10" rx="5" transform="rotate(60.0864 23.96 18)" fill="#36DDAB"/>
<rect x="37.667" y="114" width="10" height="10" rx="5" transform="rotate(60.0864 37.667 114)" fill="#36DDAB"/>
<rect x="51.292" y="12" width="10" height="10" rx="5" transform="rotate(-90 51.292 12)" fill="#36DDAB"/>
<rect x="71.999" y="136" width="10" height="10" rx="5" transform="rotate(-90 71.999 136)" fill="#36DDAB"/>
<rect width="10" height="10" rx="5" transform="matrix(-0.498693 0.866779 0.866779 0.498693 93.2803 0)" fill="#36DDAB"/>
<g filter="url(#filter0_d_1961_50675)">
<circle cx="76.4337" cy="69.6417" r="44.6417" fill="#F2F2F2"/>
</g>
<circle cx="62.4665" cy="65.4528" r="4.19108" fill="#292929"/>
<circle cx="90.5319" cy="65.4528" r="4.19108" fill="#292929"/>
<path d="M81.514 77C81.514 77.4409 81.4111 77.6458 81.3334 77.7509C81.2482 77.8661 81.082 78.0102 80.7229 78.1441C79.9277 78.4406 78.697 78.515 76.999 78.515C75.301 78.515 74.0703 78.4406 73.2752 78.1441C72.916 78.0102 72.7498 77.8661 72.6646 77.7509C72.5869 77.6458 72.484 77.4409 72.484 77C72.484 75.3007 74.2404 73.485 76.999 73.485C79.7576 73.485 81.514 75.3007 81.514 77Z" stroke="#292929" stroke-width="2.97"/>
<defs>
<filter id="filter0_d_1961_50675" x="26.792" y="20" width="103.283" height="103.285" filterUnits="userSpaceOnUse" color-interpolation-filters="sRGB">
<feFlood flood-opacity="0" result="BackgroundImageFix"/>
<feColorMatrix in="SourceAlpha" type="matrix" values="0 0 0 0 0 0 0 0 0 0 0 0 0 0 0 0 0 0 127 0" result="hardAlpha"/>
<feMorphology radius="3" operator="dilate" in="SourceAlpha" result="effect1_dropShadow_1961_50675"/>
<feOffset dx="2" dy="2"/>
<feGaussianBlur stdDeviation="2"/>
<feComposite in2="hardAlpha" operator="out"/>
<feColorMatrix type="matrix" values="0 0 0 0 0 0 0 0 0 0 0 0 0 0 0 0 0 0 0.25 0"/>
<feBlend mode="normal" in2="BackgroundImageFix" result="effect1_dropShadow_1961_50675"/>
<feBlend mode="normal" in="SourceGraphic" in2="effect1_dropShadow_1961_50675" result="shape"/>
</filter>
</defs>
</svg>
