<svg width="64" height="59" viewBox="0 0 64 59" fill="none" xmlns="http://www.w3.org/2000/svg">
<rect width="15.7182" height="1.19933" rx="0.599667" transform="matrix(1 0 0 -1 37.4021 38.0811)" fill="#36DDAB"/>
<rect width="15.7182" height="1.19933" rx="0.599667" transform="matrix(1 0 0 -1 43.2546 35.3711)" fill="#36DDAB"/>
<rect width="15.7182" height="1.19933" rx="0.599667" transform="matrix(1 0 0 -1 47.3652 32.8179)" fill="#36DDAB"/>
<circle cx="28.574" cy="17.8386" r="16.9519" fill="#F2F2F2"/>
<circle cx="18.3347" cy="16.2482" r="1.59149" fill="#292929"/>
<circle cx="28.9919" cy="16.2482" r="1.59149" fill="#292929"/>
<path d="M27.2712 19.8955C24.0762 23.1677 22.9007 22.4415 20.3022 19.8955C21.1433 20.1335 22.2096 20.6288 23.789 20.6396C24.8471 20.6468 26.0502 20.2689 27.2712 19.8955Z" stroke="#292929"/>
<g filter="url(#filter0_d_901_29249)">
<rect width="10.3639" height="9.64852" rx="4.82426" transform="matrix(-0.980052 -0.198741 -0.198741 0.980052 18.8306 45.9453)" fill="#F2F2F2"/>
</g>
<g filter="url(#filter1_d_901_29249)">
<rect x="35.3684" y="45.9453" width="10.3639" height="9.64852" rx="4.82426" transform="rotate(-11.4633 35.3684 45.9453)" fill="#F2F2F2"/>
</g>
<path d="M42.6057 45.4628L26.8645 38.0671C26.7177 37.9982 26.624 37.8507 26.624 37.6885V31.0799C26.624 30.7729 26.9436 30.5705 27.2211 30.7017L42.9624 38.1432C43.1086 38.2123 43.2019 38.3596 43.2019 38.5214V45.0842C43.2019 45.3907 42.8832 45.5932 42.6057 45.4628Z" fill="#CCCCCC"/>
<path d="M26.3768 38.0653L9.85544 45.4786C9.57867 45.6028 9.26587 45.4003 9.26587 45.097V38.5323C9.26587 38.3679 9.36211 38.2188 9.51187 38.1511L26.0332 30.6825C26.3101 30.5574 26.6239 30.7598 26.6239 31.0637V37.6836C26.6239 37.8484 26.5271 37.9978 26.3768 38.0653Z" fill="#CCCCCC"/>
<path d="M26.4486 38.0332L10.1679 45.3386C9.83066 45.4899 9.84104 45.9723 10.1845 46.1089L26.4656 52.5882C26.567 52.6286 26.6803 52.6277 26.7811 52.5857L42.3301 46.1066C42.6651 45.967 42.6756 45.4961 42.3471 45.3418L26.7977 38.0363C26.6874 37.9844 26.5599 37.9833 26.4486 38.0332Z" fill="#C4C4C4"/>
<rect width="14.9612" height="22.9557" rx="1.63415" transform="matrix(0.139122 0.990275 -0.990261 0.13922 36.3208 28.8613)" fill="#36DDAB"/>
<g filter="url(#filter2_d_901_29249)">
<rect width="14.9612" height="22.9557" rx="1.63415" transform="matrix(0.139122 0.990275 -0.990261 0.13922 36.3208 28.8613)" fill="url(#paint0_linear_901_29249)" fill-opacity="0.7" shape-rendering="crispEdges"/>
</g>
<path d="M26.7399 52.6034L42.9445 45.8511C43.1004 45.7862 43.2019 45.6339 43.2019 45.465V38.8803C43.2019 38.5827 42.9 38.3803 42.6247 38.4933L26.8835 44.9557C26.7265 45.0202 26.624 45.1731 26.624 45.3427V52.5262C26.624 52.5859 26.6848 52.6264 26.7399 52.6034Z" fill="#E6E6E6"/>
<path d="M9.52951 45.8474L26.5093 52.6048C26.5642 52.6266 26.6239 52.5862 26.6239 52.527V45.3476C26.6239 45.1755 26.5185 45.0209 26.3582 44.9581L9.83689 38.4802C9.5625 38.3727 9.26587 38.575 9.26587 38.8697V45.4588C9.26587 45.6301 9.37033 45.7841 9.52951 45.8474Z" fill="#E6E6E6"/>
<g filter="url(#filter3_d_901_29249)">
<path d="M3.64235 42.4647L21.0768 49.3546C21.1823 49.3963 21.2964 49.384 21.3903 49.3208L26.696 45.7541C26.9792 45.5637 26.9246 45.0648 26.6068 44.9389L9.63073 38.2137C9.53199 38.1745 9.42531 38.1827 9.33459 38.2362L3.57054 41.6383C3.26991 41.8157 3.31506 42.3353 3.64235 42.4647Z" fill="#E6E6E6"/>
</g>
<g filter="url(#filter4_d_901_29249)">
<path d="M47.4605 43.0711L31.8269 49.7102C31.7085 49.7605 31.5786 49.7418 31.4782 49.66L26.6036 45.6923C26.3502 45.4859 26.4146 45.0233 26.7142 44.8991L42.8135 38.2214C42.9377 38.1699 43.0737 38.1942 43.1748 38.2861L47.5838 42.2924C47.8195 42.5066 47.7496 42.9483 47.4605 43.0711Z" fill="#E6E6E6"/>
</g>
<defs>
<filter id="filter0_d_901_29249" x="3.61743" y="40.7471" width="18.3516" height="17.7925" filterUnits="userSpaceOnUse" color-interpolation-filters="sRGB">
<feFlood flood-opacity="0" result="BackgroundImageFix"/>
<feColorMatrix in="SourceAlpha" type="matrix" values="0 0 0 0 0 0 0 0 0 0 0 0 0 0 0 0 0 0 127 0" result="hardAlpha"/>
<feOffset/>
<feGaussianBlur stdDeviation="2"/>
<feComposite in2="hardAlpha" operator="out"/>
<feColorMatrix type="matrix" values="0 0 0 0 0 0 0 0 0 0 0 0 0 0 0 0 0 0 0.25 0"/>
<feBlend mode="normal" in2="BackgroundImageFix" result="effect1_dropShadow_901_29249"/>
<feBlend mode="normal" in="SourceGraphic" in2="effect1_dropShadow_901_29249" result="shape"/>
</filter>
<filter id="filter1_d_901_29249" x="32.23" y="40.7471" width="18.3516" height="17.7925" filterUnits="userSpaceOnUse" color-interpolation-filters="sRGB">
<feFlood flood-opacity="0" result="BackgroundImageFix"/>
<feColorMatrix in="SourceAlpha" type="matrix" values="0 0 0 0 0 0 0 0 0 0 0 0 0 0 0 0 0 0 127 0" result="hardAlpha"/>
<feOffset/>
<feGaussianBlur stdDeviation="2"/>
<feComposite in2="hardAlpha" operator="out"/>
<feColorMatrix type="matrix" values="0 0 0 0 0 0 0 0 0 0 0 0 0 0 0 0 0 0 0.25 0"/>
<feBlend mode="normal" in2="BackgroundImageFix" result="effect1_dropShadow_901_29249"/>
<feBlend mode="normal" in="SourceGraphic" in2="effect1_dropShadow_901_29249" result="shape"/>
</filter>
<filter id="filter2_d_901_29249" x="13.2171" y="28.4898" width="26.7228" height="19.9208" filterUnits="userSpaceOnUse" color-interpolation-filters="sRGB">
<feFlood flood-opacity="0" result="BackgroundImageFix"/>
<feColorMatrix in="SourceAlpha" type="matrix" values="0 0 0 0 0 0 0 0 0 0 0 0 0 0 0 0 0 0 127 0" result="hardAlpha"/>
<feOffset dx="0.582974" dy="0.582974"/>
<feGaussianBlur stdDeviation="0.582974"/>
<feComposite in2="hardAlpha" operator="out"/>
<feColorMatrix type="matrix" values="0 0 0 0 0 0 0 0 0 0 0 0 0 0 0 0 0 0 0.05 0"/>
<feBlend mode="normal" in2="BackgroundImageFix" result="effect1_dropShadow_901_29249"/>
<feBlend mode="normal" in="SourceGraphic" in2="effect1_dropShadow_901_29249" result="shape"/>
</filter>
<filter id="filter3_d_901_29249" x="0.0223341" y="38.1895" width="30.2041" height="17.8826" filterUnits="userSpaceOnUse" color-interpolation-filters="sRGB">
<feFlood flood-opacity="0" result="BackgroundImageFix"/>
<feColorMatrix in="SourceAlpha" type="matrix" values="0 0 0 0 0 0 0 0 0 0 0 0 0 0 0 0 0 0 127 0" result="hardAlpha"/>
<feOffset dy="3.34656"/>
<feGaussianBlur stdDeviation="1.67328"/>
<feComposite in2="hardAlpha" operator="out"/>
<feColorMatrix type="matrix" values="0 0 0 0 0 0 0 0 0 0 0 0 0 0 0 0 0 0 0.25 0"/>
<feBlend mode="normal" in2="BackgroundImageFix" result="effect1_dropShadow_901_29249"/>
<feBlend mode="normal" in="SourceGraphic" in2="effect1_dropShadow_901_29249" result="shape"/>
</filter>
<filter id="filter4_d_901_29249" x="23.0997" y="38.1948" width="27.9724" height="18.2361" filterUnits="userSpaceOnUse" color-interpolation-filters="sRGB">
<feFlood flood-opacity="0" result="BackgroundImageFix"/>
<feColorMatrix in="SourceAlpha" type="matrix" values="0 0 0 0 0 0 0 0 0 0 0 0 0 0 0 0 0 0 127 0" result="hardAlpha"/>
<feOffset dy="3.34656"/>
<feGaussianBlur stdDeviation="1.67328"/>
<feComposite in2="hardAlpha" operator="out"/>
<feColorMatrix type="matrix" values="0 0 0 0 0 0 0 0 0 0 0 0 0 0 0 0 0 0 0.25 0"/>
<feBlend mode="normal" in2="BackgroundImageFix" result="effect1_dropShadow_901_29249"/>
<feBlend mode="normal" in="SourceGraphic" in2="effect1_dropShadow_901_29249" result="shape"/>
</filter>
<linearGradient id="paint0_linear_901_29249" x1="12.1207" y1="5.57997" x2="3.3937" y2="11.9073" gradientUnits="userSpaceOnUse">
<stop stop-color="#36DDAB"/>
<stop offset="1" stop-color="white" stop-opacity="0"/>
</linearGradient>
</defs>
</svg>
