<svg width="48" height="60" viewBox="0 0 48 60" fill="none" xmlns="http://www.w3.org/2000/svg">
<path d="M12.8806 43.9378C12.8806 37.7004 17.937 32.644 24.1744 32.644H25.0658C31.3032 32.644 36.3595 37.7004 36.3595 43.9378V50.8836C36.3595 53.3786 34.337 55.4011 31.842 55.4011H17.3981C14.9032 55.4011 12.8806 53.3786 12.8806 50.8836V43.9378Z" fill="#D9D9D9"/>
<circle cx="25.5213" cy="17.8386" r="16.9519" fill="#F2F2F2"/>
<circle cx="15.2819" cy="16.2482" r="1.59149" fill="#292929"/>
<circle cx="25.9391" cy="16.2482" r="1.59149" fill="#292929"/>
<path d="M16.8735 20.4736C18.1774 21.2539 21.3965 22.3464 23.8425 20.4736" stroke="#292929" stroke-width="1.12938"/>
<rect x="8.08838" y="38.9214" width="31.4933" height="18.9901" rx="0.589992" fill="#CCCCCC"/>
<path d="M8.67837 49.9465H38.9917C39.3175 49.9465 39.5817 49.6824 39.5817 49.3565L39.5817 39.476C39.5817 39.2952 39.4987 39.1243 39.3566 39.0124L24.8308 27.5799C24.6235 27.4168 24.3331 27.411 24.1196 27.5659L8.33204 39.0129C8.17898 39.1239 8.08838 39.3015 8.08838 39.4906V49.3565C8.08838 49.6824 8.35253 49.9465 8.67837 49.9465Z" fill="#CCCCCC"/>
<rect width="16.3243" height="25.0472" rx="1.78304" transform="matrix(0.835471 0.549535 -0.549453 0.835525 24.2803 24.5088)" fill="#36DDAB"/>
<g filter="url(#filter0_d_901_29231)">
<rect width="16.3243" height="25.0472" rx="1.78304" transform="matrix(0.835471 0.549535 -0.549453 0.835525 24.2803 24.5088)" fill="url(#paint0_linear_901_29231)" fill-opacity="0.7" shape-rendering="crispEdges"/>
</g>
<path d="M39.5817 57.3206V39.5149C39.5817 39.0529 39.0747 38.7702 38.6816 39.013L9.85612 56.8186C9.35044 57.131 9.57179 57.9106 10.1662 57.9106H38.9917C39.3175 57.9106 39.5817 57.6464 39.5817 57.3206Z" fill="#E6E6E6"/>
<g filter="url(#filter1_d_901_29231)">
<path d="M8.08868 57.3218V39.4925C8.08868 39.0362 8.58452 38.7526 8.97783 38.984L39.2843 56.8133C39.8024 57.1181 39.5863 57.9118 38.9852 57.9118H8.67867C8.35283 57.9118 8.08868 57.6476 8.08868 57.3218Z" fill="#E6E6E6"/>
</g>
<g filter="url(#filter2_d_901_29231)">
<rect x="32.3159" y="45.9453" width="10.3639" height="9.64852" rx="4.82426" transform="rotate(-11.4633 32.3159 45.9453)" fill="#F2F2F2"/>
</g>
<g filter="url(#filter3_d_901_29231)">
<rect width="10.3639" height="9.64852" rx="4.82426" transform="matrix(-0.980052 -0.198741 -0.198741 0.980052 15.7778 45.9453)" fill="#F2F2F2"/>
</g>
<defs>
<filter id="filter0_d_901_29231" x="10.5683" y="24.5592" width="28.5724" height="31.0697" filterUnits="userSpaceOnUse" color-interpolation-filters="sRGB">
<feFlood flood-opacity="0" result="BackgroundImageFix"/>
<feColorMatrix in="SourceAlpha" type="matrix" values="0 0 0 0 0 0 0 0 0 0 0 0 0 0 0 0 0 0 127 0" result="hardAlpha"/>
<feOffset dx="0.636089" dy="0.636089"/>
<feGaussianBlur stdDeviation="0.636089"/>
<feComposite in2="hardAlpha" operator="out"/>
<feColorMatrix type="matrix" values="0 0 0 0 0 0 0 0 0 0 0 0 0 0 0 0 0 0 0.05 0"/>
<feBlend mode="normal" in2="BackgroundImageFix" result="effect1_dropShadow_901_29231"/>
<feBlend mode="normal" in="SourceGraphic" in2="effect1_dropShadow_901_29231" result="shape"/>
</filter>
<filter id="filter1_d_901_29231" x="6.90864" y="38.0169" width="33.8475" height="21.3697" filterUnits="userSpaceOnUse" color-interpolation-filters="sRGB">
<feFlood flood-opacity="0" result="BackgroundImageFix"/>
<feColorMatrix in="SourceAlpha" type="matrix" values="0 0 0 0 0 0 0 0 0 0 0 0 0 0 0 0 0 0 127 0" result="hardAlpha"/>
<feOffset dy="0.294996"/>
<feGaussianBlur stdDeviation="0.589992"/>
<feComposite in2="hardAlpha" operator="out"/>
<feColorMatrix type="matrix" values="0 0 0 0 0 0 0 0 0 0 0 0 0 0 0 0 0 0 0.25 0"/>
<feBlend mode="normal" in2="BackgroundImageFix" result="effect1_dropShadow_901_29231"/>
<feBlend mode="normal" in="SourceGraphic" in2="effect1_dropShadow_901_29231" result="shape"/>
</filter>
<filter id="filter2_d_901_29231" x="29.1775" y="40.7471" width="18.3516" height="17.7925" filterUnits="userSpaceOnUse" color-interpolation-filters="sRGB">
<feFlood flood-opacity="0" result="BackgroundImageFix"/>
<feColorMatrix in="SourceAlpha" type="matrix" values="0 0 0 0 0 0 0 0 0 0 0 0 0 0 0 0 0 0 127 0" result="hardAlpha"/>
<feOffset/>
<feGaussianBlur stdDeviation="2"/>
<feComposite in2="hardAlpha" operator="out"/>
<feColorMatrix type="matrix" values="0 0 0 0 0 0 0 0 0 0 0 0 0 0 0 0 0 0 0.25 0"/>
<feBlend mode="normal" in2="BackgroundImageFix" result="effect1_dropShadow_901_29231"/>
<feBlend mode="normal" in="SourceGraphic" in2="effect1_dropShadow_901_29231" result="shape"/>
</filter>
<filter id="filter3_d_901_29231" x="0.564697" y="40.7471" width="18.3516" height="17.7925" filterUnits="userSpaceOnUse" color-interpolation-filters="sRGB">
<feFlood flood-opacity="0" result="BackgroundImageFix"/>
<feColorMatrix in="SourceAlpha" type="matrix" values="0 0 0 0 0 0 0 0 0 0 0 0 0 0 0 0 0 0 127 0" result="hardAlpha"/>
<feOffset/>
<feGaussianBlur stdDeviation="2"/>
<feComposite in2="hardAlpha" operator="out"/>
<feColorMatrix type="matrix" values="0 0 0 0 0 0 0 0 0 0 0 0 0 0 0 0 0 0 0.25 0"/>
<feBlend mode="normal" in2="BackgroundImageFix" result="effect1_dropShadow_901_29231"/>
<feBlend mode="normal" in="SourceGraphic" in2="effect1_dropShadow_901_29231" result="shape"/>
</filter>
<linearGradient id="paint0_linear_901_29231" x1="13.225" y1="6.08836" x2="3.7029" y2="12.9922" gradientUnits="userSpaceOnUse">
<stop stop-color="#36DDAB"/>
<stop offset="1" stop-color="white" stop-opacity="0"/>
</linearGradient>
</defs>
</svg>
