<svg width="56" height="50" viewBox="0 0 56 50" fill="none" xmlns="http://www.w3.org/2000/svg">
<g filter="url(#filter0_d_1871_61308)">
<rect width="23.1103" height="35.4594" rx="2.52426" transform="matrix(0.990089 -0.140441 -0.140344 -0.990103 10.0059 43.2988)" fill="#F2F2F2"/>
<g filter="url(#filter1_d_1871_61308)">
<rect width="23.1103" height="35.4594" rx="2.52426" transform="matrix(0.990089 -0.140441 -0.140344 -0.990103 10.2676 43.2637)" fill="url(#paint0_linear_1871_61308)" fill-opacity="0.7" shape-rendering="crispEdges"/>
</g>
</g>
<g filter="url(#filter2_d_1871_61308)">
<rect width="23.1103" height="35.4594" rx="2.52426" transform="matrix(0.987534 0.157408 0.157505 -0.987518 17.186 40.373)" fill="#1C1C1C"/>
<g filter="url(#filter3_d_1871_61308)">
<rect width="23.1103" height="35.4594" rx="2.52426" transform="matrix(0.987534 0.157408 0.157505 -0.987518 17.1855 40.377)" fill="url(#paint1_linear_1871_61308)" fill-opacity="0.7" shape-rendering="crispEdges"/>
</g>
</g>
<g filter="url(#filter4_d_1871_61308)">
<rect width="23.1103" height="35.4594" rx="2.52426" transform="matrix(0.997493 -0.0707685 -0.0706704 -0.9975 27.509 42.4473)" fill="#F2F2F2"/>
<g filter="url(#filter5_d_1871_61308)">
<rect width="23.1103" height="35.4594" rx="2.52426" transform="matrix(0.997493 -0.0707685 -0.0706704 -0.9975 27.5051 42.4512)" fill="url(#paint2_linear_1871_61308)" fill-opacity="0.7" shape-rendering="crispEdges"/>
</g>
</g>
<path d="M12.5335 37.1426L13.5967 36.9919C13.9905 36.936 14.3289 36.8335 14.6119 36.6844C14.8941 36.5296 15.1045 36.3333 15.2429 36.0956C15.3814 35.8579 15.4295 35.59 15.3872 35.2918C15.3393 34.9543 15.2155 34.6878 15.0156 34.4923C14.8157 34.2969 14.5591 34.1668 14.2458 34.1022C13.9317 34.032 13.5777 34.0248 13.1839 34.0806L11.2178 34.3594L12.0553 40.2663L14.148 39.9696C14.5869 39.9074 14.9638 39.7937 15.279 39.6285C15.5942 39.4633 15.8242 39.2441 15.9691 38.9711C16.1197 38.6972 16.1674 38.3662 16.1124 37.9781C16.0709 37.6855 15.9735 37.444 15.8203 37.2534C15.6726 37.062 15.4855 36.9163 15.259 36.8164C15.0318 36.7109 14.7815 36.646 14.5083 36.6216C14.2408 36.5964 13.9635 36.6042 13.6766 36.6448L12.4868 36.8135L12.5801 37.4717L13.6603 37.3186C13.8122 37.2971 13.9552 37.294 14.0894 37.3094C14.2227 37.3192 14.3424 37.3539 14.4484 37.4134C14.5593 37.4666 14.6476 37.543 14.7134 37.6427C14.784 37.736 14.8297 37.8558 14.8504 38.002C14.8791 38.2046 14.8548 38.3773 14.7775 38.5203C14.7059 38.6624 14.5929 38.776 14.4385 38.861C14.2833 38.9404 14.1045 38.9945 13.902 39.0232L13.1256 39.1332L12.5609 35.1503L13.2106 35.0581C13.475 35.0207 13.6916 35.0502 13.8602 35.1468C14.0345 35.2426 14.1376 35.403 14.1695 35.6281C14.1902 35.7743 14.1716 35.9061 14.1136 36.0233C14.0613 36.1398 13.9744 36.2353 13.853 36.3099C13.7316 36.3845 13.5837 36.4342 13.4093 36.4589L12.4557 36.5941L12.5335 37.1426Z" fill="#1C1C1C"/>
<path d="M23.7217 32.3848L23.0909 36.3406C23.0354 36.6884 23.0428 37.0032 23.1129 37.2848C23.1831 37.5664 23.3049 37.8131 23.4782 38.0249C23.6516 38.2366 23.8686 38.4093 24.1292 38.5429C24.389 38.6822 24.6815 38.7777 25.007 38.8296C25.3268 38.8806 25.6318 38.8804 25.922 38.8288C26.2112 38.7829 26.4712 38.6862 26.7018 38.5389C26.938 38.3924 27.1333 38.1963 27.2876 37.9505C27.4418 37.7047 27.5467 37.4078 27.6022 37.0599L28.233 33.1041L27.0294 32.9122L26.4107 36.7922C26.357 37.1289 26.2238 37.3867 26.0112 37.5657C25.805 37.74 25.528 37.7994 25.1801 37.7439C24.8322 37.6884 24.5846 37.5454 24.4373 37.3147C24.2964 37.0794 24.2529 36.7934 24.3065 36.4567L24.9252 32.5767L23.7217 32.3848Z" fill="white"/>
<path d="M36.8729 34.0423L35.7594 36.5308L34.314 34.2239L32.9282 34.3223L35.2251 37.671L35.3995 40.1279L36.6322 40.0404L36.4572 37.575L38.2587 33.9439L36.8729 34.0423Z" fill="#1C1C1C"/>
<defs>
<filter id="filter0_d_1871_61308" x="3.35129" y="3.23118" width="31.4756" height="41.7447" filterUnits="userSpaceOnUse" color-interpolation-filters="sRGB">
<feFlood flood-opacity="0" result="BackgroundImageFix"/>
<feColorMatrix in="SourceAlpha" type="matrix" values="0 0 0 0 0 0 0 0 0 0 0 0 0 0 0 0 0 0 127 0" result="hardAlpha"/>
<feOffset/>
<feGaussianBlur stdDeviation="1.00355"/>
<feComposite in2="hardAlpha" operator="out"/>
<feColorMatrix type="matrix" values="0 0 0 0 0 0 0 0 0 0 0 0 0 0 0 0 0 0 0.3 0"/>
<feBlend mode="normal" in2="BackgroundImageFix" result="effect1_dropShadow_1871_61308"/>
<feBlend mode="normal" in="SourceGraphic" in2="effect1_dropShadow_1871_61308" result="shape"/>
</filter>
<filter id="filter1_d_1871_61308" x="4.7196" y="4.33777" width="30.8018" height="41.2974" filterUnits="userSpaceOnUse" color-interpolation-filters="sRGB">
<feFlood flood-opacity="0" result="BackgroundImageFix"/>
<feColorMatrix in="SourceAlpha" type="matrix" values="0 0 0 0 0 0 0 0 0 0 0 0 0 0 0 0 0 0 127 0" result="hardAlpha"/>
<feOffset dx="0.900513" dy="0.900513"/>
<feGaussianBlur stdDeviation="0.900513"/>
<feComposite in2="hardAlpha" operator="out"/>
<feColorMatrix type="matrix" values="0 0 0 0 0 0 0 0 0 0 0 0 0 0 0 0 0 0 0.05 0"/>
<feBlend mode="normal" in2="BackgroundImageFix" result="effect1_dropShadow_1871_61308"/>
<feBlend mode="normal" in="SourceGraphic" in2="effect1_dropShadow_1871_61308" result="shape"/>
</filter>
<filter id="filter2_d_1871_61308" x="15.5442" y="3.71555" width="31.6905" height="41.94" filterUnits="userSpaceOnUse" color-interpolation-filters="sRGB">
<feFlood flood-opacity="0" result="BackgroundImageFix"/>
<feColorMatrix in="SourceAlpha" type="matrix" values="0 0 0 0 0 0 0 0 0 0 0 0 0 0 0 0 0 0 127 0" result="hardAlpha"/>
<feOffset/>
<feGaussianBlur stdDeviation="1.00355"/>
<feComposite in2="hardAlpha" operator="out"/>
<feColorMatrix type="matrix" values="0 0 0 0 0 0 0 0 0 0 0 0 0 0 0 0 0 0 0.3 0"/>
<feBlend mode="normal" in2="BackgroundImageFix" result="effect1_dropShadow_1871_61308"/>
<feBlend mode="normal" in="SourceGraphic" in2="effect1_dropShadow_1871_61308" result="shape"/>
</filter>
<filter id="filter3_d_1871_61308" x="16.6508" y="4.82605" width="31.2778" height="41.5239" filterUnits="userSpaceOnUse" color-interpolation-filters="sRGB">
<feFlood flood-opacity="0" result="BackgroundImageFix"/>
<feColorMatrix in="SourceAlpha" type="matrix" values="0 0 0 0 0 0 0 0 0 0 0 0 0 0 0 0 0 0 127 0" result="hardAlpha"/>
<feOffset dx="0.900513" dy="0.900513"/>
<feGaussianBlur stdDeviation="0.900513"/>
<feComposite in2="hardAlpha" operator="out"/>
<feColorMatrix type="matrix" values="0 0 0 0 0 0 0 0 0 0 0 0 0 0 0 0 0 0 0.05 0"/>
<feBlend mode="normal" in2="BackgroundImageFix" result="effect1_dropShadow_1871_61308"/>
<feBlend mode="normal" in="SourceGraphic" in2="effect1_dropShadow_1871_61308" result="shape"/>
</filter>
<filter id="filter4_d_1871_61308" x="23.164" y="3.60618" width="29.2325" height="40.6802" filterUnits="userSpaceOnUse" color-interpolation-filters="sRGB">
<feFlood flood-opacity="0" result="BackgroundImageFix"/>
<feColorMatrix in="SourceAlpha" type="matrix" values="0 0 0 0 0 0 0 0 0 0 0 0 0 0 0 0 0 0 127 0" result="hardAlpha"/>
<feOffset/>
<feGaussianBlur stdDeviation="1.00355"/>
<feComposite in2="hardAlpha" operator="out"/>
<feColorMatrix type="matrix" values="0 0 0 0 0 0 0 0 0 0 0 0 0 0 0 0 0 0 0.3 0"/>
<feBlend mode="normal" in2="BackgroundImageFix" result="effect1_dropShadow_1871_61308"/>
<feBlend mode="normal" in="SourceGraphic" in2="effect1_dropShadow_1871_61308" result="shape"/>
</filter>
<filter id="filter5_d_1871_61308" x="24.2706" y="4.71667" width="28.8164" height="40.2642" filterUnits="userSpaceOnUse" color-interpolation-filters="sRGB">
<feFlood flood-opacity="0" result="BackgroundImageFix"/>
<feColorMatrix in="SourceAlpha" type="matrix" values="0 0 0 0 0 0 0 0 0 0 0 0 0 0 0 0 0 0 127 0" result="hardAlpha"/>
<feOffset dx="0.900513" dy="0.900513"/>
<feGaussianBlur stdDeviation="0.900513"/>
<feComposite in2="hardAlpha" operator="out"/>
<feColorMatrix type="matrix" values="0 0 0 0 0 0 0 0 0 0 0 0 0 0 0 0 0 0 0.05 0"/>
<feBlend mode="normal" in2="BackgroundImageFix" result="effect1_dropShadow_1871_61308"/>
<feBlend mode="normal" in="SourceGraphic" in2="effect1_dropShadow_1871_61308" result="shape"/>
</filter>
<linearGradient id="paint0_linear_1871_61308" x1="26.7938" y1="-3.67969" x2="5.68814" y2="21.0534" gradientUnits="userSpaceOnUse">
<stop stop-color="#CCCCCC"/>
<stop offset="1" stop-color="white"/>
</linearGradient>
<linearGradient id="paint1_linear_1871_61308" x1="12.2527" y1="11.4019" x2="-5.52344" y2="24.2885" gradientUnits="userSpaceOnUse">
<stop/>
<stop offset="1" stop-color="white" stop-opacity="0.1"/>
</linearGradient>
<linearGradient id="paint2_linear_1871_61308" x1="15.7552" y1="12.2995" x2="5.68764" y2="21.0529" gradientUnits="userSpaceOnUse">
<stop stop-color="#CCCCCC"/>
<stop offset="1" stop-color="white"/>
</linearGradient>
</defs>
</svg>
