<svg width="104" height="14" viewBox="0 0 104 14" fill="none" xmlns="http://www.w3.org/2000/svg">
<path d="M6.69741 4.69552C5.62824 4.59923 2.683 4.11781 0.564842 1.58C0.195005 2.50159 0.00806919 4.53458 1.57349 5.62398C1.37176 5.64462 0.798847 5.59097 0.121037 5.21133C0.121037 6.00912 0.617291 7.75739 2.60231 8.36811H1.31124C1.47935 9.02148 2.24726 10.3282 3.97406 10.3282C3.47646 10.8234 1.98501 11.8137 0 11.8137C0.0336215 11.9857 0.201729 12.2264 0.524496 12.3296C1.9097 12.9348 5.47493 13.6789 8.65418 11.8137C10.0797 10.9197 12.8582 8.09164 12.5677 3.93211C12.9241 3.84958 13.7095 3.42868 14 2.40531C13.731 2.59788 13.0236 2.98302 12.3458 2.98302C12.8703 2.66665 13.6369 1.62127 13.6369 1.08482C13.3881 1.35992 12.6928 1.93488 11.902 2.03392C11.4111 1.4906 9.90857 0.548376 8.4121 1.24988C7.76657 1.55249 6.51988 2.66527 6.69741 4.69552Z" fill="#50ABF1"/>
<path d="M26.8594 7.16797H20.5898V5.49219H26.5195V4.75391H20.5898V3.20703H26.7422V2.43359H19.6523V7.91797H26.8594V7.16797ZM18.4219 10.5898H27.9609V9.82812H18.4219V10.5898ZM32.2266 2.04688C30.668 2.03516 29.5547 2.89648 29.5547 4.16797C29.5547 5.43945 30.668 6.30664 32.2266 6.30078C33.7852 6.30664 34.9043 5.43945 34.8984 4.16797C34.9043 2.89648 33.7852 2.03516 32.2266 2.04688ZM28.7695 7.19141L28.8984 7.97656C29.7656 7.9707 30.7676 7.96484 31.8281 7.91797V11.6328H32.7422V7.86523C33.75 7.80078 34.7812 7.68945 35.7773 7.50781L35.7188 6.81641C33.4043 7.15625 30.7266 7.19727 28.7695 7.19141ZM30.457 4.16797C30.4453 3.35938 31.1895 2.78516 32.2266 2.79688C33.2754 2.78516 34.0254 3.35938 34.0195 4.16797C34.0254 4.98242 33.2754 5.54492 32.2266 5.53906C31.1895 5.54492 30.4453 4.98242 30.457 4.16797ZM36.4805 11.9609H37.3828V1.54297H36.4805V11.9609ZM47.8008 1.53125H46.8867V5.46875H44.6836V6.23047H46.8867V11.9727H47.8008V1.53125ZM39.6445 9.45312H40.4414C42.457 9.45312 43.7285 9.38281 45.2461 9.13672L45.1406 8.375C43.7109 8.63281 42.4805 8.68555 40.5703 8.69141V6.17188H44.0508V5.42188H40.5703V3.25391H44.5078V2.49219H39.6445V9.45312ZM59.0742 9.88672H54.7266V7.91797H58.1133V7.15625H51.6445V5.45703H57.8672V2.30469H50.707V3.06641H56.9648V4.70703H50.7305V7.91797H53.8242V9.88672H49.5352V10.6602H59.0742V9.88672ZM67.6289 8.11719C65.3965 8.11719 63.9785 8.82031 63.9844 10.0273C63.9785 11.2227 65.3965 11.9258 67.6289 11.9258C69.8613 11.9258 71.2793 11.2227 71.2852 10.0273C71.2793 8.82031 69.8613 8.11719 67.6289 8.11719ZM62.9297 7.14453H72.4102V6.39453H67.7578V4.37891H66.8555V6.39453H62.9297V7.14453ZM64.0547 2.82031H70.2891V2.94922C70.2891 3.76367 70.2891 4.53711 70.0078 5.60938L70.9102 5.71484C71.1973 4.63672 71.1973 3.79297 71.2031 2.94922V2.07031H64.0547V2.82031ZM64.8984 10.0273C64.8926 9.2832 65.9707 8.82617 67.6289 8.82031C69.293 8.82617 70.3594 9.2832 70.3711 10.0273C70.3594 10.7539 69.293 11.1992 67.6289 11.1992C65.9707 11.1992 64.8926 10.7539 64.8984 10.0273ZM82.8164 7.47266H73.2773V8.23438H75.75V11.9492H76.6992V8.23438H79.3711V11.9492H80.2969V8.23438H82.8164V7.47266ZM74.3555 4.22656C74.3613 5.61523 75.832 6.48242 78.0234 6.47656C80.209 6.48242 81.6914 5.61523 81.6914 4.22656C81.6914 2.83789 80.209 1.95898 78.0234 1.95312C75.832 1.95898 74.3613 2.83789 74.3555 4.22656ZM75.3047 4.22656C75.293 3.30078 76.4004 2.70312 78.0234 2.70312C79.6465 2.70312 80.748 3.30078 80.7539 4.22656C80.748 5.14648 79.6465 5.73828 78.0234 5.73828C76.4004 5.73828 75.293 5.14648 75.3047 4.22656ZM91.7227 1.53125H90.8086V11.9492H91.7227V6.59375H93.4688V5.83203H91.7227V1.53125ZM83.6016 3.96875H89.8008V3.20703H87.1992V1.66016H86.2852V3.20703H83.6016V3.96875ZM84.1992 7.22656C84.1934 8.63867 85.2715 9.61719 86.7539 9.61719C88.2246 9.61719 89.2969 8.63867 89.3086 7.22656C89.2969 5.82031 88.2246 4.83594 86.7539 4.83594C85.2715 4.83594 84.1934 5.82031 84.1992 7.22656ZM85.0781 7.22656C85.0723 6.2832 85.7812 5.60352 86.7539 5.60938C87.7148 5.60352 88.418 6.2832 88.4297 7.22656C88.418 8.17578 87.7148 8.84375 86.7539 8.83203C85.7812 8.84375 85.0723 8.17578 85.0781 7.22656ZM102.645 1.53125H101.719V11.9492H102.645V1.53125ZM94.1602 9.24219L94.6641 9.99219C98.1562 8.31641 99.5508 5.66211 99.5625 2.66797H94.6406V3.41797H98.625C98.4199 5.9082 96.9785 7.90625 94.1602 9.24219Z" fill="#E6E6E6"/>
<path d="M18 12.916H103.98V13.7305H18V12.916Z" fill="#E6E6E6"/>
</svg>
