<svg width="55" height="50" viewBox="0 0 55 50" fill="none" xmlns="http://www.w3.org/2000/svg">
<g filter="url(#filter0_d_1871_50334)">
<rect width="23.1103" height="35.4594" rx="2.52426" transform="matrix(0.990089 -0.140441 -0.140344 -0.990103 9.42334 43.2983)" fill="#F2F2F2"/>
<g filter="url(#filter1_d_1871_50334)">
<rect width="23.1103" height="35.4594" rx="2.52426" transform="matrix(0.990089 -0.140441 -0.140344 -0.990103 9.68506 43.2632)" fill="url(#paint0_linear_1871_50334)" fill-opacity="0.7" shape-rendering="crispEdges"/>
</g>
</g>
<g filter="url(#filter2_d_1871_50334)">
<rect width="23.1103" height="35.4594" rx="2.52426" transform="matrix(0.987534 0.157408 0.157505 -0.987518 16.6045 40.3729)" fill="#36DDAB"/>
<g filter="url(#filter3_d_1871_50334)">
<rect width="23.1103" height="35.4594" rx="2.52426" transform="matrix(0.987534 0.157408 0.157505 -0.987518 16.6035 40.3748)" fill="url(#paint1_linear_1871_50334)" fill-opacity="0.5" shape-rendering="crispEdges"/>
</g>
</g>
<g filter="url(#filter4_d_1871_50334)">
<rect width="23.1103" height="35.4594" rx="2.52426" transform="matrix(0.997493 -0.0707685 -0.0706704 -0.9975 26.9268 42.4449)" fill="#F2F2F2"/>
<g filter="url(#filter5_d_1871_50334)">
<rect width="23.1103" height="35.4594" rx="2.52426" transform="matrix(0.997493 -0.0707685 -0.0706704 -0.9975 26.9229 42.4488)" fill="url(#paint2_linear_1871_50334)" fill-opacity="0.7" shape-rendering="crispEdges"/>
</g>
</g>
<path d="M11.9514 37.1446L13.0147 36.9938C13.4085 36.938 13.7469 36.8355 14.0299 36.6863C14.3121 36.5315 14.5224 36.3353 14.6609 36.0976C14.7994 35.8599 14.8474 35.592 14.8052 35.2938C14.7573 34.9563 14.6334 34.6898 14.4336 34.4943C14.2337 34.2988 13.9771 34.1688 13.6638 34.1042C13.3497 34.0339 12.9957 34.0267 12.6019 34.0826L10.6357 34.3613L11.4733 40.2683L13.566 39.9716C14.0048 39.9093 14.3818 39.7956 14.697 39.6304C15.0121 39.4652 15.2422 39.2461 15.3871 38.973C15.5377 38.6992 15.5854 38.3682 15.5304 37.98C15.4889 37.6875 15.3915 37.4459 15.2382 37.2553C15.0906 37.0639 14.9035 36.9183 14.677 36.8184C14.4497 36.7129 14.1995 36.6479 13.9263 36.6236C13.6588 36.5984 13.3815 36.6061 13.0946 36.6468L11.9048 36.8155L11.9981 37.4737L13.0782 37.3205C13.2301 37.299 13.3732 37.2959 13.5073 37.3113C13.6407 37.3211 13.7604 37.3558 13.8664 37.4154C13.9772 37.4685 14.0656 37.545 14.1313 37.6447C14.202 37.738 14.2476 37.8577 14.2684 38.004C14.2971 38.2065 14.2728 38.3793 14.1955 38.5222C14.1238 38.6644 14.0108 38.778 13.8565 38.863C13.7013 38.9424 13.5224 38.9964 13.3199 39.0251L12.5436 39.1352L11.9788 35.1522L12.6286 35.0601C12.893 35.0226 13.1095 35.0522 13.2782 35.1488C13.4525 35.2446 13.5555 35.405 13.5874 35.63C13.6082 35.7763 13.5896 35.908 13.5316 36.0253C13.4792 36.1418 13.3924 36.2373 13.2709 36.3119C13.1495 36.3865 13.0016 36.4362 12.8272 36.4609L11.8737 36.5961L11.9514 37.1446Z" fill="#36DDAB"/>
<path d="M23.1396 32.3848L22.5089 36.3406C22.4534 36.6885 22.4607 37.0032 22.5309 37.2849C22.6011 37.5665 22.7228 37.8132 22.8962 38.0249C23.0696 38.2367 23.2866 38.4094 23.5472 38.543C23.8069 38.6822 24.0995 38.7778 24.425 38.8297C24.7448 38.8807 25.0498 38.8804 25.3399 38.8289C25.6292 38.7829 25.8891 38.6863 26.1198 38.5389C26.356 38.3925 26.5513 38.1964 26.7055 37.9505C26.8598 37.7047 26.9647 37.4079 27.0201 37.06L27.6509 33.1042L26.4474 32.9123L25.8287 36.7923C25.775 37.129 25.6418 37.3868 25.4291 37.5658C25.223 37.74 24.946 37.7994 24.5981 37.7439C24.2502 37.6885 24.0026 37.5454 23.8552 37.3148C23.7144 37.0795 23.6708 36.7934 23.7245 36.4568L24.3432 32.5767L23.1396 32.3848Z" fill="white"/>
<path d="M36.2904 34.0424L35.1768 36.5309L33.7314 34.224L32.3457 34.3223L34.6426 37.671L34.8169 40.128L36.0497 40.0405L35.8747 37.575L37.6762 33.944L36.2904 34.0424Z" fill="#36DDAB"/>
<defs>
<filter id="filter0_d_1871_50334" x="2.76877" y="3.23116" width="31.4756" height="41.7451" filterUnits="userSpaceOnUse" color-interpolation-filters="sRGB">
<feFlood flood-opacity="0" result="BackgroundImageFix"/>
<feColorMatrix in="SourceAlpha" type="matrix" values="0 0 0 0 0 0 0 0 0 0 0 0 0 0 0 0 0 0 127 0" result="hardAlpha"/>
<feOffset/>
<feGaussianBlur stdDeviation="1.00355"/>
<feComposite in2="hardAlpha" operator="out"/>
<feColorMatrix type="matrix" values="0 0 0 0 0 0 0 0 0 0 0 0 0 0 0 0 0 0 0.3 0"/>
<feBlend mode="normal" in2="BackgroundImageFix" result="effect1_dropShadow_1871_50334"/>
<feBlend mode="normal" in="SourceGraphic" in2="effect1_dropShadow_1871_50334" result="shape"/>
</filter>
<filter id="filter1_d_1871_50334" x="4.13708" y="4.33775" width="30.8018" height="41.2978" filterUnits="userSpaceOnUse" color-interpolation-filters="sRGB">
<feFlood flood-opacity="0" result="BackgroundImageFix"/>
<feColorMatrix in="SourceAlpha" type="matrix" values="0 0 0 0 0 0 0 0 0 0 0 0 0 0 0 0 0 0 127 0" result="hardAlpha"/>
<feOffset dx="0.900513" dy="0.900513"/>
<feGaussianBlur stdDeviation="0.900513"/>
<feComposite in2="hardAlpha" operator="out"/>
<feColorMatrix type="matrix" values="0 0 0 0 0 0 0 0 0 0 0 0 0 0 0 0 0 0 0.05 0"/>
<feBlend mode="normal" in2="BackgroundImageFix" result="effect1_dropShadow_1871_50334"/>
<feBlend mode="normal" in="SourceGraphic" in2="effect1_dropShadow_1871_50334" result="shape"/>
</filter>
<filter id="filter2_d_1871_50334" x="14.9621" y="3.71451" width="31.691" height="41.9397" filterUnits="userSpaceOnUse" color-interpolation-filters="sRGB">
<feFlood flood-opacity="0" result="BackgroundImageFix"/>
<feColorMatrix in="SourceAlpha" type="matrix" values="0 0 0 0 0 0 0 0 0 0 0 0 0 0 0 0 0 0 127 0" result="hardAlpha"/>
<feOffset/>
<feGaussianBlur stdDeviation="1.00355"/>
<feComposite in2="hardAlpha" operator="out"/>
<feColorMatrix type="matrix" values="0 0 0 0 0 0 0 0 0 0 0 0 0 0 0 0 0 0 0.3 0"/>
<feBlend mode="normal" in2="BackgroundImageFix" result="effect1_dropShadow_1871_50334"/>
<feBlend mode="normal" in="SourceGraphic" in2="effect1_dropShadow_1871_50334" result="shape"/>
</filter>
<filter id="filter3_d_1871_50334" x="16.0687" y="4.82306" width="31.2778" height="41.5256" filterUnits="userSpaceOnUse" color-interpolation-filters="sRGB">
<feFlood flood-opacity="0" result="BackgroundImageFix"/>
<feColorMatrix in="SourceAlpha" type="matrix" values="0 0 0 0 0 0 0 0 0 0 0 0 0 0 0 0 0 0 127 0" result="hardAlpha"/>
<feOffset dx="0.900513" dy="0.900513"/>
<feGaussianBlur stdDeviation="0.900513"/>
<feComposite in2="hardAlpha" operator="out"/>
<feColorMatrix type="matrix" values="0 0 0 0 0 0 0 0 0 0 0 0 0 0 0 0 0 0 0.05 0"/>
<feBlend mode="normal" in2="BackgroundImageFix" result="effect1_dropShadow_1871_50334"/>
<feBlend mode="normal" in="SourceGraphic" in2="effect1_dropShadow_1871_50334" result="shape"/>
</filter>
<filter id="filter4_d_1871_50334" x="22.5818" y="3.60378" width="29.2325" height="40.6799" filterUnits="userSpaceOnUse" color-interpolation-filters="sRGB">
<feFlood flood-opacity="0" result="BackgroundImageFix"/>
<feColorMatrix in="SourceAlpha" type="matrix" values="0 0 0 0 0 0 0 0 0 0 0 0 0 0 0 0 0 0 127 0" result="hardAlpha"/>
<feOffset/>
<feGaussianBlur stdDeviation="1.00355"/>
<feComposite in2="hardAlpha" operator="out"/>
<feColorMatrix type="matrix" values="0 0 0 0 0 0 0 0 0 0 0 0 0 0 0 0 0 0 0.3 0"/>
<feBlend mode="normal" in2="BackgroundImageFix" result="effect1_dropShadow_1871_50334"/>
<feBlend mode="normal" in="SourceGraphic" in2="effect1_dropShadow_1871_50334" result="shape"/>
</filter>
<filter id="filter5_d_1871_50334" x="23.6884" y="4.71428" width="28.8164" height="40.2638" filterUnits="userSpaceOnUse" color-interpolation-filters="sRGB">
<feFlood flood-opacity="0" result="BackgroundImageFix"/>
<feColorMatrix in="SourceAlpha" type="matrix" values="0 0 0 0 0 0 0 0 0 0 0 0 0 0 0 0 0 0 127 0" result="hardAlpha"/>
<feOffset dx="0.900513" dy="0.900513"/>
<feGaussianBlur stdDeviation="0.900513"/>
<feComposite in2="hardAlpha" operator="out"/>
<feColorMatrix type="matrix" values="0 0 0 0 0 0 0 0 0 0 0 0 0 0 0 0 0 0 0.05 0"/>
<feBlend mode="normal" in2="BackgroundImageFix" result="effect1_dropShadow_1871_50334"/>
<feBlend mode="normal" in="SourceGraphic" in2="effect1_dropShadow_1871_50334" result="shape"/>
</filter>
<linearGradient id="paint0_linear_1871_50334" x1="26.7938" y1="-3.67969" x2="5.68814" y2="21.0534" gradientUnits="userSpaceOnUse">
<stop stop-color="#CCCCCC"/>
<stop offset="1" stop-color="white"/>
</linearGradient>
<linearGradient id="paint1_linear_1871_50334" x1="8.53621" y1="23.1008" x2="-2.75197" y2="-1.20577" gradientUnits="userSpaceOnUse">
<stop stop-color="#2FFFC1"/>
<stop offset="0.489583" stop-color="white"/>
<stop offset="1" stop-color="#36DDAB"/>
</linearGradient>
<linearGradient id="paint2_linear_1871_50334" x1="15.7552" y1="12.2995" x2="5.68764" y2="21.0529" gradientUnits="userSpaceOnUse">
<stop stop-color="#CCCCCC"/>
<stop offset="1" stop-color="white"/>
</linearGradient>
</defs>
</svg>
