<svg width="58" height="50" viewBox="0 0 58 50" fill="none" xmlns="http://www.w3.org/2000/svg">
<g filter="url(#filter0_d_1871_50350)">
<rect width="23.1103" height="35.4594" rx="2.52426" transform="matrix(0.987534 0.157408 0.157505 -0.987518 2.00098 41.6952)" fill="#36DDAB"/>
<g filter="url(#filter1_d_1871_50350)">
<rect width="23.1103" height="35.4594" rx="2.52426" transform="matrix(0.987534 0.157408 0.157505 -0.987518 2 41.6967)" fill="url(#paint0_linear_1871_50350)" fill-opacity="0.5" shape-rendering="crispEdges"/>
</g>
</g>
<g filter="url(#filter2_d_1871_50350)">
<rect width="23.1103" height="35.4594" rx="2.52426" transform="matrix(0.97437 -0.224951 -0.224855 -0.974392 15.9995 45.3301)" fill="#F2F2F2"/>
<g filter="url(#filter3_d_1871_50350)">
<rect width="23.1103" height="35.4594" rx="2.52426" transform="matrix(0.97437 -0.224951 -0.224855 -0.974392 16.2573 45.2727)" fill="url(#paint1_linear_1871_50350)" fill-opacity="0.7" shape-rendering="crispEdges"/>
</g>
</g>
<path d="M7.2549 36.9178L6.25561 37.4086C6.34477 37.7178 6.49003 38.0148 6.6914 38.2998C6.89278 38.5847 7.1432 38.8263 7.44267 39.0246C7.74896 39.2179 8.08995 39.3445 8.46566 39.4044C8.74745 39.4493 9.02157 39.4479 9.28805 39.4001C9.55945 39.3591 9.81053 39.2757 10.0413 39.15C10.2729 39.0184 10.4662 38.8445 10.6211 38.6284C10.7759 38.4123 10.8772 38.1546 10.925 37.8552C10.9671 37.591 10.96 37.3521 10.9038 37.1385C10.8544 36.9199 10.765 36.7251 10.6358 36.554C10.5134 36.3779 10.3667 36.2221 10.1957 36.0865C10.0305 35.9518 9.85379 35.8333 9.66543 35.731C9.37114 35.5757 9.12922 35.4318 8.93967 35.2993C8.75105 35.1608 8.61573 35.0279 8.53372 34.9004C8.45265 34.7671 8.42428 34.6241 8.44862 34.4715C8.47295 34.3189 8.55566 34.1966 8.69672 34.1047C8.83872 34.007 9.03301 33.9778 9.27957 34.0171C9.46742 34.047 9.62865 34.1119 9.76324 34.2116C9.89877 34.3054 10.0125 34.4229 10.1044 34.564C10.203 34.7001 10.2818 34.8481 10.3406 35.008L11.4139 34.6193C11.3428 34.3852 11.2264 34.1529 11.0645 33.9225C10.9094 33.687 10.6983 33.4818 10.4312 33.3068C10.171 33.1268 9.84419 33.0055 9.45087 32.9428C9.06929 32.8819 8.7117 32.8972 8.3781 32.9884C8.0513 33.0748 7.77632 33.2326 7.55314 33.4619C7.33678 33.6862 7.20051 33.9745 7.14434 34.3267C7.09754 34.6203 7.11306 34.8816 7.1909 35.1107C7.26967 35.334 7.38248 35.5325 7.52932 35.7064C7.6771 35.8745 7.83743 36.0204 8.01031 36.1443C8.18999 36.2633 8.349 36.3609 8.48734 36.4371C8.7464 36.5868 8.96237 36.7235 9.13525 36.8474C9.31494 36.9664 9.44238 37.092 9.51759 37.2244C9.59866 37.3578 9.62376 37.5213 9.59286 37.715C9.55729 37.9381 9.44996 38.1016 9.27086 38.2054C9.09176 38.3093 8.876 38.3411 8.62357 38.3009C8.40636 38.2662 8.21132 38.187 8.03844 38.0631C7.86556 37.9392 7.71345 37.7795 7.58209 37.584C7.4566 37.3894 7.34754 37.1673 7.2549 36.9178Z" fill="white"/>
<path d="M19.2288 41.5888L22.2959 40.8807L22.0531 39.8294L18.9861 40.5375L19.2288 41.5888ZM18.0674 36.5582L21.1345 35.8501L20.8917 34.7988L17.8247 35.5069L18.0674 36.5582ZM18.603 38.878L21.4963 38.21L21.2576 37.1761L18.3643 37.8441L18.603 38.878ZM17.0254 35.6914L18.4295 41.7733L19.6285 41.4965L18.2244 35.4146L17.0254 35.6914Z" fill="#36DDAB"/>
<g filter="url(#filter4_d_1871_50350)">
<rect width="23.1103" height="35.4594" rx="2.52426" transform="matrix(0.97437 0.224951 0.225047 -0.974348 19.0049 36.9417)" fill="#F2F2F2"/>
<g filter="url(#filter5_d_1871_50350)">
<rect width="23.1103" height="35.4594" rx="2.52426" transform="matrix(0.97437 0.224951 0.225047 -0.974348 19 36.9436)" fill="url(#paint2_linear_1871_50350)" fill-opacity="0.7" shape-rendering="crispEdges"/>
</g>
</g>
<g filter="url(#filter6_d_1871_50350)">
<rect width="23.1103" height="35.4594" rx="2.52426" transform="matrix(0.995227 -0.0975829 -0.097485 -0.995237 32.4604 45.7802)" fill="#36DDAB"/>
<g filter="url(#filter7_d_1871_50350)">
<rect width="23.1103" height="35.4594" rx="2.52426" transform="matrix(0.995227 -0.0975829 -0.097485 -0.995237 32.4604 45.7833)" fill="url(#paint3_linear_1871_50350)" fill-opacity="0.5" shape-rendering="crispEdges"/>
</g>
</g>
<path d="M24.4043 28.5566L23.0002 34.6385L26.6667 35.485L26.9174 34.399L24.4934 33.8393L25.6467 28.8435L24.4043 28.5566Z" fill="#36DDAB"/>
<path d="M35 34.9238L35.6102 41.1358L39.3551 40.768L39.2462 39.6587L36.7702 39.9019L36.269 34.7992L35 34.9238Z" fill="white"/>
<defs>
<filter id="filter0_d_1871_50350" x="0.358617" y="5.03682" width="31.691" height="41.9392" filterUnits="userSpaceOnUse" color-interpolation-filters="sRGB">
<feFlood flood-opacity="0" result="BackgroundImageFix"/>
<feColorMatrix in="SourceAlpha" type="matrix" values="0 0 0 0 0 0 0 0 0 0 0 0 0 0 0 0 0 0 127 0" result="hardAlpha"/>
<feOffset/>
<feGaussianBlur stdDeviation="1.00355"/>
<feComposite in2="hardAlpha" operator="out"/>
<feColorMatrix type="matrix" values="0 0 0 0 0 0 0 0 0 0 0 0 0 0 0 0 0 0 0.3 0"/>
<feBlend mode="normal" in2="BackgroundImageFix" result="effect1_dropShadow_1871_50350"/>
<feBlend mode="normal" in="SourceGraphic" in2="effect1_dropShadow_1871_50350" result="shape"/>
</filter>
<filter id="filter1_d_1871_50350" x="1.46521" y="6.14488" width="31.2778" height="41.5256" filterUnits="userSpaceOnUse" color-interpolation-filters="sRGB">
<feFlood flood-opacity="0" result="BackgroundImageFix"/>
<feColorMatrix in="SourceAlpha" type="matrix" values="0 0 0 0 0 0 0 0 0 0 0 0 0 0 0 0 0 0 127 0" result="hardAlpha"/>
<feOffset dx="0.900513" dy="0.900513"/>
<feGaussianBlur stdDeviation="0.900513"/>
<feComposite in2="hardAlpha" operator="out"/>
<feColorMatrix type="matrix" values="0 0 0 0 0 0 0 0 0 0 0 0 0 0 0 0 0 0 0.05 0"/>
<feBlend mode="normal" in2="BackgroundImageFix" result="effect1_dropShadow_1871_50350"/>
<feBlend mode="normal" in="SourceGraphic" in2="effect1_dropShadow_1871_50350" result="shape"/>
</filter>
<filter id="filter2_d_1871_50350" x="6.5217" y="4.01813" width="33.7584" height="42.8165" filterUnits="userSpaceOnUse" color-interpolation-filters="sRGB">
<feFlood flood-opacity="0" result="BackgroundImageFix"/>
<feColorMatrix in="SourceAlpha" type="matrix" values="0 0 0 0 0 0 0 0 0 0 0 0 0 0 0 0 0 0 127 0" result="hardAlpha"/>
<feOffset/>
<feGaussianBlur stdDeviation="1.00355"/>
<feComposite in2="hardAlpha" operator="out"/>
<feColorMatrix type="matrix" values="0 0 0 0 0 0 0 0 0 0 0 0 0 0 0 0 0 0 0.3 0"/>
<feBlend mode="normal" in2="BackgroundImageFix" result="effect1_dropShadow_1871_50350"/>
<feBlend mode="normal" in="SourceGraphic" in2="effect1_dropShadow_1871_50350" result="shape"/>
</filter>
<filter id="filter3_d_1871_50350" x="7.88611" y="5.12472" width="33.0884" height="42.3469" filterUnits="userSpaceOnUse" color-interpolation-filters="sRGB">
<feFlood flood-opacity="0" result="BackgroundImageFix"/>
<feColorMatrix in="SourceAlpha" type="matrix" values="0 0 0 0 0 0 0 0 0 0 0 0 0 0 0 0 0 0 127 0" result="hardAlpha"/>
<feOffset dx="0.900513" dy="0.900513"/>
<feGaussianBlur stdDeviation="0.900513"/>
<feComposite in2="hardAlpha" operator="out"/>
<feColorMatrix type="matrix" values="0 0 0 0 0 0 0 0 0 0 0 0 0 0 0 0 0 0 0.05 0"/>
<feBlend mode="normal" in2="BackgroundImageFix" result="effect1_dropShadow_1871_50350"/>
<feBlend mode="normal" in="SourceGraphic" in2="effect1_dropShadow_1871_50350" result="shape"/>
</filter>
<filter id="filter4_d_1871_50350" x="17.4958" y="0.887395" width="33.5113" height="42.7594" filterUnits="userSpaceOnUse" color-interpolation-filters="sRGB">
<feFlood flood-opacity="0" result="BackgroundImageFix"/>
<feColorMatrix in="SourceAlpha" type="matrix" values="0 0 0 0 0 0 0 0 0 0 0 0 0 0 0 0 0 0 127 0" result="hardAlpha"/>
<feOffset/>
<feGaussianBlur stdDeviation="1.00355"/>
<feComposite in2="hardAlpha" operator="out"/>
<feColorMatrix type="matrix" values="0 0 0 0 0 0 0 0 0 0 0 0 0 0 0 0 0 0 0.3 0"/>
<feBlend mode="normal" in2="BackgroundImageFix" result="effect1_dropShadow_1871_50350"/>
<feBlend mode="normal" in="SourceGraphic" in2="effect1_dropShadow_1871_50350" result="shape"/>
</filter>
<filter id="filter5_d_1871_50350" x="18.6024" y="1.99586" width="33.0942" height="42.3454" filterUnits="userSpaceOnUse" color-interpolation-filters="sRGB">
<feFlood flood-opacity="0" result="BackgroundImageFix"/>
<feColorMatrix in="SourceAlpha" type="matrix" values="0 0 0 0 0 0 0 0 0 0 0 0 0 0 0 0 0 0 127 0" result="hardAlpha"/>
<feOffset dx="0.900513" dy="0.900513"/>
<feGaussianBlur stdDeviation="0.900513"/>
<feComposite in2="hardAlpha" operator="out"/>
<feColorMatrix type="matrix" values="0 0 0 0 0 0 0 0 0 0 0 0 0 0 0 0 0 0 0.05 0"/>
<feBlend mode="normal" in2="BackgroundImageFix" result="effect1_dropShadow_1871_50350"/>
<feBlend mode="normal" in="SourceGraphic" in2="effect1_dropShadow_1871_50350" result="shape"/>
</filter>
<filter id="filter6_d_1871_50350" x="27.2307" y="6.46151" width="30.003" height="41.0948" filterUnits="userSpaceOnUse" color-interpolation-filters="sRGB">
<feFlood flood-opacity="0" result="BackgroundImageFix"/>
<feColorMatrix in="SourceAlpha" type="matrix" values="0 0 0 0 0 0 0 0 0 0 0 0 0 0 0 0 0 0 127 0" result="hardAlpha"/>
<feOffset/>
<feGaussianBlur stdDeviation="1.00355"/>
<feComposite in2="hardAlpha" operator="out"/>
<feColorMatrix type="matrix" values="0 0 0 0 0 0 0 0 0 0 0 0 0 0 0 0 0 0 0.3 0"/>
<feBlend mode="normal" in2="BackgroundImageFix" result="effect1_dropShadow_1871_50350"/>
<feBlend mode="normal" in="SourceGraphic" in2="effect1_dropShadow_1871_50350" result="shape"/>
</filter>
<filter id="filter7_d_1871_50350" x="28.3373" y="7.57124" width="29.5908" height="40.6795" filterUnits="userSpaceOnUse" color-interpolation-filters="sRGB">
<feFlood flood-opacity="0" result="BackgroundImageFix"/>
<feColorMatrix in="SourceAlpha" type="matrix" values="0 0 0 0 0 0 0 0 0 0 0 0 0 0 0 0 0 0 127 0" result="hardAlpha"/>
<feOffset dx="0.900513" dy="0.900513"/>
<feGaussianBlur stdDeviation="0.900513"/>
<feComposite in2="hardAlpha" operator="out"/>
<feColorMatrix type="matrix" values="0 0 0 0 0 0 0 0 0 0 0 0 0 0 0 0 0 0 0.05 0"/>
<feBlend mode="normal" in2="BackgroundImageFix" result="effect1_dropShadow_1871_50350"/>
<feBlend mode="normal" in="SourceGraphic" in2="effect1_dropShadow_1871_50350" result="shape"/>
</filter>
<linearGradient id="paint0_linear_1871_50350" x1="8.53621" y1="23.1008" x2="-2.75197" y2="-1.20577" gradientUnits="userSpaceOnUse">
<stop stop-color="#2FFFC1"/>
<stop offset="0.489583" stop-color="white"/>
<stop offset="1" stop-color="#36DDAB"/>
</linearGradient>
<linearGradient id="paint1_linear_1871_50350" x1="26.7938" y1="-3.67969" x2="5.68814" y2="21.0534" gradientUnits="userSpaceOnUse">
<stop stop-color="#CCCCCC"/>
<stop offset="1" stop-color="white"/>
</linearGradient>
<linearGradient id="paint2_linear_1871_50350" x1="15.7552" y1="12.2995" x2="5.68764" y2="21.0529" gradientUnits="userSpaceOnUse">
<stop stop-color="#CCCCCC"/>
<stop offset="1" stop-color="white"/>
</linearGradient>
<linearGradient id="paint3_linear_1871_50350" x1="8.53621" y1="23.1008" x2="-2.75197" y2="-1.20577" gradientUnits="userSpaceOnUse">
<stop stop-color="#2FFFC1"/>
<stop offset="0.489583" stop-color="white"/>
<stop offset="1" stop-color="#36DDAB"/>
</linearGradient>
</defs>
</svg>
