<svg width="55" height="50" viewBox="0 0 55 50" fill="none" xmlns="http://www.w3.org/2000/svg">
<circle cx="27.3782" cy="23.5257" r="20.6232" transform="rotate(-8.76727 27.3782 23.5257)" fill="#36DDAB"/>
<circle cx="27.3782" cy="23.5257" r="20.6232" transform="rotate(-8.76727 27.3782 23.5257)" fill="url(#paint0_linear_1871_50399)" fill-opacity="0.5"/>
<circle cx="27.3782" cy="23.5257" r="20.6232" transform="rotate(-8.76727 27.3782 23.5257)" fill="url(#paint1_linear_1871_50399)" fill-opacity="0.5"/>
<circle cx="27.3775" cy="23.4026" r="16.4986" fill="#E6E6E6"/>
<circle cx="27.3667" cy="23.4045" r="16.4986" fill="white"/>
<circle cx="27.3658" cy="23.6428" r="16.4986" fill="url(#paint2_linear_1871_50399)" fill-opacity="0.5"/>
<g filter="url(#filter0_d_1871_50399)">
<path d="M35.4121 18.0974L30.366 31.4058L27.2607 20.7591" stroke="#36DDAB" stroke-width="2.77259" stroke-linecap="round" stroke-linejoin="round"/>
<path d="M19.1084 18.0974L24.1545 31.4058L27.2598 20.7591" stroke="#36DDAB" stroke-width="2.77259" stroke-linecap="round" stroke-linejoin="round"/>
<path d="M17.9443 23.4294H36.5761" stroke="#36DDAB" stroke-width="2.77259" stroke-linecap="round" stroke-linejoin="round"/>
</g>
<circle cx="3.75083" cy="24.64" r="0.750631" transform="rotate(-180 3.75083 24.64)" fill="#D9D9D9"/>
<circle cx="3.75083" cy="24.64" r="0.750631" transform="rotate(-180 3.75083 24.64)" fill="url(#paint3_linear_1871_50399)" fill-opacity="0.5"/>
<circle cx="9.64439" cy="41.1537" r="0.750631" transform="rotate(-180 9.64439 41.1537)" fill="#D9D9D9"/>
<circle cx="9.64439" cy="41.1537" r="0.750631" transform="rotate(-180 9.64439 41.1537)" fill="url(#paint4_linear_1871_50399)" fill-opacity="0.5"/>
<circle cx="45.1493" cy="41.1537" r="0.750631" transform="rotate(-180 45.1493 41.1537)" fill="#D9D9D9"/>
<circle cx="45.1493" cy="41.1537" r="0.750631" transform="rotate(-180 45.1493 41.1537)" fill="url(#paint5_linear_1871_50399)" fill-opacity="0.5"/>
<circle cx="51.0038" cy="24.64" r="0.750631" transform="rotate(-180 51.0038 24.64)" fill="#D9D9D9"/>
<circle cx="51.0038" cy="24.64" r="0.750631" transform="rotate(-180 51.0038 24.64)" fill="url(#paint6_linear_1871_50399)" fill-opacity="0.5"/>
<circle cx="27.1336" cy="48.6595" r="0.750631" transform="rotate(-180 27.1336 48.6595)" fill="#D9D9D9"/>
<circle cx="27.1336" cy="48.6595" r="0.750631" transform="rotate(-180 27.1336 48.6595)" fill="url(#paint7_linear_1871_50399)" fill-opacity="0.5"/>
<defs>
<filter id="filter0_d_1871_50399" x="15.8075" y="15.9601" width="22.9056" height="17.5827" filterUnits="userSpaceOnUse" color-interpolation-filters="sRGB">
<feFlood flood-opacity="0" result="BackgroundImageFix"/>
<feColorMatrix in="SourceAlpha" type="matrix" values="0 0 0 0 0 0 0 0 0 0 0 0 0 0 0 0 0 0 127 0" result="hardAlpha"/>
<feOffset/>
<feGaussianBlur stdDeviation="0.375315"/>
<feComposite in2="hardAlpha" operator="out"/>
<feColorMatrix type="matrix" values="0 0 0 0 0 0 0 0 0 0 0 0 0 0 0 0 0 0 0.2 0"/>
<feBlend mode="normal" in2="BackgroundImageFix" result="effect1_dropShadow_1871_50399"/>
<feBlend mode="normal" in="SourceGraphic" in2="effect1_dropShadow_1871_50399" result="shape"/>
</filter>
<linearGradient id="paint0_linear_1871_50399" x1="9.70627" y1="28.9108" x2="46.0193" y2="13.6807" gradientUnits="userSpaceOnUse">
<stop stop-color="#2FFFC1"/>
<stop offset="0.40611" stop-color="white"/>
<stop offset="0.532691" stop-color="white"/>
<stop offset="1" stop-color="#36DDAB"/>
</linearGradient>
<linearGradient id="paint1_linear_1871_50399" x1="9.70627" y1="28.9108" x2="46.0193" y2="13.6807" gradientUnits="userSpaceOnUse">
<stop stop-color="#2FFFC1"/>
<stop offset="0.40611" stop-color="white"/>
<stop offset="0.532691" stop-color="white"/>
<stop offset="1" stop-color="#36DDAB"/>
</linearGradient>
<linearGradient id="paint2_linear_1871_50399" x1="27.3658" y1="16.8666" x2="44.2673" y2="29.1486" gradientUnits="userSpaceOnUse">
<stop stop-color="#6C6C6C" stop-opacity="0"/>
<stop offset="0.9375" stop-color="#EDEDED"/>
</linearGradient>
<linearGradient id="paint3_linear_1871_50399" x1="3.75083" y1="24.3317" x2="4.5198" y2="24.8905" gradientUnits="userSpaceOnUse">
<stop stop-color="#333333" stop-opacity="0"/>
<stop offset="0.9375" stop-color="#EDEDED"/>
</linearGradient>
<linearGradient id="paint4_linear_1871_50399" x1="9.64439" y1="40.8454" x2="10.4134" y2="41.4042" gradientUnits="userSpaceOnUse">
<stop stop-color="#333333" stop-opacity="0"/>
<stop offset="0.9375" stop-color="#EDEDED"/>
</linearGradient>
<linearGradient id="paint5_linear_1871_50399" x1="45.1493" y1="40.8454" x2="45.9182" y2="41.4042" gradientUnits="userSpaceOnUse">
<stop stop-color="#333333" stop-opacity="0"/>
<stop offset="0.9375" stop-color="#EDEDED"/>
</linearGradient>
<linearGradient id="paint6_linear_1871_50399" x1="51.0038" y1="24.3317" x2="51.7727" y2="24.8905" gradientUnits="userSpaceOnUse">
<stop stop-color="#333333" stop-opacity="0"/>
<stop offset="0.9375" stop-color="#EDEDED"/>
</linearGradient>
<linearGradient id="paint7_linear_1871_50399" x1="27.1336" y1="48.3512" x2="27.9026" y2="48.91" gradientUnits="userSpaceOnUse">
<stop stop-color="#333333" stop-opacity="0"/>
<stop offset="0.9375" stop-color="#EDEDED"/>
</linearGradient>
</defs>
</svg>
